  0
SECTION
  2
HEADER
  9
$ACADVER
  1
AC1014
  9
$ACADMAINTVER
 70
     9
  9
$DWGCODEPAGE
  3
ANSI_1252
  9
$INSBASE
 10
0.0
 20
0.0
 30
0.0
  9
$EXTMIN
 10
0.984251968503937
 20
-3.171979599601971
 30
0.0
  9
$EXTMAX
 10
20.66929133858267
 20
11.77179992795709
 30
0.0
  9
$LIMMIN
 10
0.0
 20
0.0
  9
$LIMMAX
 10
12.0
 20
9.0
  9
$ORTHOMODE
 70
     0
  9
$REGENMODE
 70
     1
  9
$FILLMODE
 70
     1
  9
$QTEXTMODE
 70
     0
  9
$MIRRTEXT
 70
     1
  9
$DRAGMODE
 70
     2
  9
$LTSCALE
 40
0.5
  9
$OSMODE
 70
    23
  9
$ATTMODE
 70
     1
  9
$TEXTSIZE
 40
0.12
  9
$TRACEWID
 40
0.05
  9
$TEXTSTYLE
  7
ONSHAPE-STANDARD
  9
$CLAYER
  8
0
  9
$CELTYPE
  6
BYLAYER
  9
$CECOLOR
 62
   256
  9
$CELTSCALE
 40
1.0
  9
$DELOBJ
 70
     1
  9
$DISPSILH
 70
     0
  9
$DIMSCALE
 40
1.0
  9
$DIMASZ
 40
0.18
  9
$DIMEXO
 40
0.0625
  9
$DIMDLI
 40
0.38
  9
$DIMRND
 40
0.0
  9
$DIMDLE
 40
0.0
  9
$DIMEXE
 40
0.08
  9
$DIMTP
 40
0.0
  9
$DIMTM
 40
0.0
  9
$DIMTXT
 40
0.12
  9
$DIMCEN
 40
0.09
  9
$DIMTSZ
 40
0.0
  9
$DIMTOL
 70
     0
  9
$DIMLIM
 70
     0
  9
$DIMTIH
 70
     1
  9
$DIMTOH
 70
     1
  9
$DIMSE1
 70
     0
  9
$DIMSE2
 70
     0
  9
$DIMTAD
 70
     0
  9
$DIMZIN
 70
     7
  9
$DIMBLK
  1

  9
$DIMASO
 70
     1
  9
$DIMSHO
 70
     1
  9
$DIMPOST
  1

  9
$DIMAPOST
  1

  9
$DIMALT
 70
     1
  9
$DIMALTD
 70
     2
  9
$DIMALTF
 40
25.4
  9
$DIMLFAC
 40
1.0
  9
$DIMTOFL
 70
     0
  9
$DIMTVP
 40
0.0
  9
$DIMTIX
 70
     0
  9
$DIMSOXD
 70
     0
  9
$DIMSAH
 70
     0
  9
$DIMBLK1
  1

  9
$DIMBLK2
  1

  9
$DIMSTYLE
  2
ONSHAPE-STANDARD
  9
$DIMCLRD
 70
     7
  9
$DIMCLRE
 70
     7
  9
$DIMCLRT
 70
     7
  9
$DIMTFAC
 40
1.0
  9
$DIMGAP
 40
0.09
  9
$DIMJUST
 70
     0
  9
$DIMSD1
 70
     0
  9
$DIMSD2
 70
     0
  9
$DIMTOLJ
 70
     1
  9
$DIMTZIN
 70
     7
  9
$DIMALTZ
 70
     7
  9
$DIMALTTZ
 70
     0
  9
$DIMFIT
 70
     3
  9
$DIMUPT
 70
     1
  9
$DIMUNIT
 70
     2
  9
$DIMDEC
 70
     3
  9
$DIMTDEC
 70
     3
  9
$DIMALTU
 70
     2
  9
$DIMALTTD
 70
     2
  9
$DIMTXSTY
  7
ONSHAPE-STANDARD-DIMENSION
  9
$DIMAUNIT
 70
     0
  9
$LUNITS
 70
     2
  9
$LUPREC
 70
     4
  9
$SKETCHINC
 40
0.1
  9
$FILLETRAD
 40
0.5
  9
$AUNITS
 70
     0
  9
$AUPREC
 70
     0
  9
$MENU
  1
.
  9
$ELEVATION
 40
0.0
  9
$PELEVATION
 40
0.0
  9
$THICKNESS
 40
0.0
  9
$LIMCHECK
 70
     0
  9
$CHAMFERA
 40
0.0
  9
$CHAMFERB
 40
0.0
  9
$CHAMFERC
 40
0.0
  9
$CHAMFERD
 40
0.0
  9
$SKPOLY
 70
     0
  9
$TDCREATE
 40
2461222.769660035
  9
$TDUPDATE
 40
2461222.769660521
  9
$TDINDWG
 40
0.0
  9
$TDUSRTIMER
 40
0.0
  9
$USRTIMER
 70
     1
  9
$ANGBASE
 50
0.0
  9
$ANGDIR
 70
     0
  9
$PDMODE
 70
    33
  9
$PDSIZE
 40
0.0393700787401575
  9
$PLINEWID
 40
0.0
  9
$COORDS
 70
     1
  9
$SPLFRAME
 70
     0
  9
$SPLINETYPE
 70
     6
  9
$SPLINESEGS
 70
     8
  9
$ATTDIA
 70
     0
  9
$ATTREQ
 70
     1
  9
$HANDLING
 70
     1
  9
$HANDSEED
  5
279
  9
$SURFTAB1
 70
     6
  9
$SURFTAB2
 70
     6
  9
$SURFTYPE
 70
     6
  9
$SURFU
 70
     6
  9
$SURFV
 70
     6
  9
$UCSNAME
  2

  9
$UCSORG
 10
0.0
 20
0.0
 30
0.0
  9
$UCSXDIR
 10
1.0
 20
0.0
 30
0.0
  9
$UCSYDIR
 10
0.0
 20
1.0
 30
0.0
  9
$PUCSNAME
  2

  9
$PUCSORG
 10
0.0
 20
0.0
 30
0.0
  9
$PUCSXDIR
 10
1.0
 20
0.0
 30
0.0
  9
$PUCSYDIR
 10
0.0
 20
1.0
 30
0.0
  9
$USERI1
 70
     0
  9
$USERI2
 70
     0
  9
$USERI3
 70
     0
  9
$USERI4
 70
     0
  9
$USERI5
 70
     0
  9
$USERR1
 40
0.0
  9
$USERR2
 40
0.0
  9
$USERR3
 40
0.0
  9
$USERR4
 40
0.0
  9
$USERR5
 40
0.0
  9
$WORLDVIEW
 70
     1
  9
$SHADEDGE
 70
     3
  9
$SHADEDIF
 70
    70
  9
$TILEMODE
 70
     1
  9
$MAXACTVP
 70
    64
  9
$PINSBASE
 10
0.0
 20
0.0
 30
0.0
  9
$PLIMCHECK
 70
     0
  9
$PEXTMIN
 10
1.000000000000000E+20
 20
1.000000000000000E+20
 30
1.000000000000000E+20
  9
$PEXTMAX
 10
-1.000000000000000E+20
 20
-1.000000000000000E+20
 30
-1.000000000000000E+20
  9
$PLIMMIN
 10
0.0
 20
0.0
  9
$PLIMMAX
 10
12.0
 20
9.0
  9
$UNITMODE
 70
     0
  9
$VISRETAIN
 70
     1
  9
$PLINEGEN
 70
     0
  9
$PSLTSCALE
 70
     1
  9
$TREEDEPTH
 70
  3020
  9
$PICKSTYLE
 70
     1
  9
$CMLSTYLE
  2
STANDARD
  9
$CMLJUST
 70
     0
  9
$CMLSCALE
 40
1.0
  9
$PROXYGRAPHICS
 70
     1
  9
$MEASUREMENT
 70
     0
  0
ENDSEC
  0
SECTION
  2
CLASSES
  0
CLASS
  1
ACDBDICTIONARYWDFLT
  2
AcDbDictionaryWithDefault
  3
ObjectDBX Classes
 90
        0
280
     0
281
     0
  0
CLASS
  1
VISUALSTYLE
  2
AcDbVisualStyle
  3
ObjectDBX Classes
 90
     4095
280
     0
281
     0
  0
CLASS
  1
MATERIAL
  2
AcDbMaterial
  3
ObjectDBX Classes
 90
     1153
280
     0
281
     0
  0
CLASS
  1
SCALE
  2
AcDbScale
  3
ObjectDBX Classes
 90
     1153
280
     0
281
     0
  0
CLASS
  1
TABLESTYLE
  2
AcDbTableStyle
  3
ObjectDBX Classes
 90
     4095
280
     0
281
     0
  0
CLASS
  1
MLEADERSTYLE
  2
AcDbMLeaderStyle
  3
ACDB_MLEADERSTYLE_CLASS
 90
     4095
280
     0
281
     0
  0
CLASS
  1
SUN
  2
AcDbSun
  3
SCENEOE
 90
     1153
280
     0
281
     0
  0
CLASS
  1
DICTIONARYVAR
  2
AcDbDictionaryVar
  3
ObjectDBX Classes
 90
        0
280
     0
281
     0
  0
CLASS
  1
DIMASSOC
  2
AcDbDimAssoc
  3
"AcDbDimAssoc|Product Desc:     AcDim ARX App For Dimension|Company:          Autodesk, Inc.|WEB Address:      www.autodesk.com"
 90
        0
280
     0
281
     0
  0
CLASS
  1
XRECORD
  2
AcDbXrecord
  3
ObjectDBX Classes
 90
        0
280
     0
281
     0
  0
CLASS
  1
LWPOLYLINE
  2
AcDbPolyline
  3
ObjectDBX Classes
 90
        0
280
     0
281
     1
  0
CLASS
  1
HATCH
  2
AcDbHatch
  3
ObjectDBX Classes
 90
        0
280
     0
281
     1
  0
CLASS
  1
ACDBPLACEHOLDER
  2
AcDbPlaceHolder
  3
ObjectDBX Classes
 90
        0
280
     0
281
     0
  0
CLASS
  1
LAYOUT
  2
AcDbLayout
  3
ObjectDBX Classes
 90
        0
280
     0
281
     0
  0
ENDSEC
  0
SECTION
  2
TABLES
  0
TABLE
  2
VPORT
  5
8
102
{ACAD_XDICTIONARY
360
26E
102
}
330
0
100
AcDbSymbolTable
 70
     1
  0
VPORT
  5
29
330
8
100
AcDbSymbolTableRecord
100
AcDbViewportTableRecord
  2
*ACTIVE
 70
     0
 10
0.0
 20
0.0
 11
1.0
 21
1.0
 12
10.82677165354331
 22
4.882036148429527
 13
0.0
 23
0.0
 14
0.5
 24
0.5
 15
0.5
 25
0.5
 16
0.0
 26
0.0
 36
1.0
 17
0.0
 27
0.0
 37
0.0
 40
14.05511811023622
 41
1.428571428571428
 42
50.0
 43
0.0
 44
0.0
 50
0.0
 51
0.0
 71
     0
 72
   100
 73
     1
 74
     3
 75
     0
 76
     0
 77
     0
 78
     0
  0
ENDTAB
  0
TABLE
  2
LTYPE
  5
5
330
0
100
AcDbSymbolTable
 70
     2
  0
LTYPE
  5
14
330
5
100
AcDbSymbolTableRecord
100
AcDbLinetypeTableRecord
  2
BYBLOCK
 70
     0
  3

 72
    65
 73
     0
 40
0.0
  0
LTYPE
  5
15
330
5
100
AcDbSymbolTableRecord
100
AcDbLinetypeTableRecord
  2
BYLAYER
 70
     0
  3

 72
    65
 73
     0
 40
0.0
  0
LTYPE
  5
16
330
5
100
AcDbSymbolTableRecord
100
AcDbLinetypeTableRecord
  2
CONTINUOUS
 70
     0
  3
Solid line
 72
    65
 73
     0
 40
0.0
  0
LTYPE
  5
78
330
5
100
AcDbSymbolTableRecord
100
AcDbLinetypeTableRecord
  2
CENTER
 70
     0
  3
Center line ____ _ ____ _ ____ _
 72
    65
 73
     4
 40
0.7199999999999999
 49
0.45
 74
     0
 49
-0.09
 74
     0
 49
0.09
 74
     0
 49
-0.09
 74
     0
  0
ENDTAB
  0
TABLE
  2
LAYER
  5
2
330
0
100
AcDbSymbolTable
 70
     9
  0
LAYER
  5
10
330
2
100
AcDbSymbolTableRecord
100
AcDbLayerTableRecord
  2
0
 70
     0
 62
     7
  6
CONTINUOUS
  0
LAYER
  5
70
330
2
100
AcDbSymbolTableRecord
100
AcDbLayerTableRecord
  2
DEFPOINTS
 70
     0
 62
     7
  6
CONTINUOUS
  0
LAYER
  5
74
330
2
100
AcDbSymbolTableRecord
100
AcDbLayerTableRecord
  2
MODELSKETCH_VISIBLE
 70
     0
 62
     7
  6
CONTINUOUS
  0
LAYER
  5
76
330
2
100
AcDbSymbolTableRecord
100
AcDbLayerTableRecord
  2
MODELSKETCH_POINT
 70
     0
 62
     7
  6
CONTINUOUS
  0
LAYER
  5
77
330
2
100
AcDbSymbolTableRecord
100
AcDbLayerTableRecord
  2
MODELSKETCH_CONSTRUCTION
 70
     0
 62
     7
  6
CENTER
  0
LAYER
  5
178
330
2
100
AcDbSymbolTableRecord
100
AcDbLayerTableRecord
  2
VISIBLE
 70
     0
 62
     7
  6
CONTINUOUS
  0
LAYER
  5
1C6
330
2
100
AcDbSymbolTableRecord
100
AcDbLayerTableRecord
  2
ANNOTATION_TEXT
 70
     0
 62
     7
  6
CONTINUOUS
  0
LAYER
  5
1D1
330
2
100
AcDbSymbolTableRecord
100
AcDbLayerTableRecord
  2
SKETCHED_GEOMETRY
 70
     0
 62
     7
  6
CONTINUOUS
  0
LAYER
  5
1D3
330
2
100
AcDbSymbolTableRecord
100
AcDbLayerTableRecord
  2
CENTERMARKS
 70
     0
 62
     7
  6
CONTINUOUS
  0
ENDTAB
  0
TABLE
  2
STYLE
  5
3
330
0
100
AcDbSymbolTable
 70
    36
  0
STYLE
  5
11
330
3
100
AcDbSymbolTableRecord
100
AcDbTextStyleTableRecord
  2
STANDARD
 70
     0
 40
0.0
 41
1.0
 50
0.0
 71
     0
 42
0.12
  3
txt
  4

  0
STYLE
  5
71
330
3
100
AcDbSymbolTableRecord
100
AcDbTextStyleTableRecord
  2
ONSHAPE-STANDARD
 70
     0
 40
0.0
 41
1.0
 50
0.0
 71
     0
 42
0.12
  3
NotoSans-Regular.ttf
  4

1001
ACAD
1000
Noto Sans
1071
        0
  0
STYLE
  5
73
330
3
100
AcDbSymbolTableRecord
100
AcDbTextStyleTableRecord
  2
ONSHAPE-STANDARD-DIMENSION
 70
     0
 40
0.0
 41
1.0
 50
0.0
 71
     0
 42
0.12
  3

  4

1001
ACAD
1000
Noto Sans
1071
        0
  0
STYLE
  5
1C9
330
3
100
AcDbSymbolTableRecord
100
AcDbTextStyleTableRecord
  2
ONSHAPE-STANDARD-VIEW-LABE
 70
     0
 40
0.12
 41
1.0
 50
0.0
 71
     0
 42
0.12
  3
NotoSans-Regular.ttf
  4

1001
ACAD
1000
Noto Sans
1071
        0
  0
STYLE
  5
1F1
330
3
100
AcDbSymbolTableRecord
100
AcDbTextStyleTableRecord
  2
ONSHAPE-STANDARD-TCFIELDS
 70
     0
 40
0.0
 41
1.0
 50
0.0
 71
     0
 42
0.12
  3
NotoSansTC-Regular.otf
  4

1001
ACAD
1000
Noto Sans TC
1071
        0
  0
STYLE
  5
1F2
330
3
100
AcDbSymbolTableRecord
100
AcDbTextStyleTableRecord
  2
ONSHAPE-STANDARD-SCFIELDS
 70
     0
 40
0.0
 41
1.0
 50
0.0
 71
     0
 42
0.12
  3
NotoSansSC-Regular.otf
  4

1001
ACAD
1000
Noto Sans SC
1071
        0
  0
STYLE
  5
1F3
330
3
100
AcDbSymbolTableRecord
100
AcDbTextStyleTableRecord
  2
ONSHAPE-STANDARD-KOREANFIE
 70
     0
 40
0.0
 41
1.0
 50
0.0
 71
     0
 42
0.12
  3
NotoSansKR-Regular.otf
  4

1001
ACAD
1000
Noto Sans KR
1071
        0
  0
STYLE
  5
1F4
330
3
100
AcDbSymbolTableRecord
100
AcDbTextStyleTableRecord
  2
ONSHAPE-STANDARD-JAPANESEF
 70
     0
 40
0.0
 41
1.0
 50
0.0
 71
     0
 42
0.12
  3
NotoSansJP-Regular.otf
  4

1001
ACAD
1000
Noto Sans JP
1071
        0
  0
STYLE
  5
1F6
330
3
100
AcDbSymbolTableRecord
100
AcDbTextStyleTableRecord
  2
ONSHAPE-STANDARD-BOLD
 70
     0
 40
0.0
 41
1.0
 50
0.0
 71
     0
 42
0.12
  3
NotoSans-Bold.ttf
  4

1001
ACAD
1000
Noto Sans
1071
 33554432
  0
STYLE
  5
1F7
330
3
100
AcDbSymbolTableRecord
100
AcDbTextStyleTableRecord
  2
ONSHAPE-STANDARD-FIELDS
 70
     0
 40
0.0
 41
1.0
 50
0.0
 71
     0
 42
0.12
  3

  4

1001
ACAD
1000
Noto Sans
1071
        0
  0
STYLE
  5
1F9
330
3
100
AcDbSymbolTableRecord
100
AcDbTextStyleTableRecord
  2
TTFSTYLE
 70
     0
 40
0.0
 41
1.0
 50
0.0
 71
     0
 42
0.12
  3

  4

1001
ACAD
1000
Verdana
1071
       34
  0
STYLE
  5
1FA
330
3
100
AcDbSymbolTableRecord
100
AcDbTextStyleTableRecord
  2
ONSHAPE-STANDARD-GTOLERANC
 70
     0
 40
0.0
 41
1.0
 50
0.0
 71
     0
 42
0.12
  3

  4

1001
ACAD
1000
Noto Sans
1071
        0
  0
STYLE
  5
1FB
330
3
100
AcDbSymbolTableRecord
100
AcDbTextStyleTableRecord
  2
ONSHAPE-STANDARD-TABLE-DAT
 70
     0
 40
0.0
 41
1.0
 50
0.0
 71
     0
 42
0.12
  3
NotoSans-Regular.ttf
  4

1001
ACAD
1000
Noto Sans
1071
        0
  0
STYLE
  5
1FC
330
3
100
AcDbSymbolTableRecord
100
AcDbTextStyleTableRecord
  2
ONSHAPE-STANDARD-TABLE-TIT
 70
     0
 40
0.0
 41
1.0
 50
0.0
 71
     0
 42
0.12
  3
NotoSans-Bold.ttf
  4

1001
ACAD
1000
Noto Sans
1071
 33554432
  0
STYLE
  5
1FD
330
3
100
AcDbSymbolTableRecord
100
AcDbTextStyleTableRecord
  2
ONSHAPE-STANDARD-TABLE-HEA
 70
     0
 40
0.0
 41
1.0
 50
0.0
 71
     0
 42
0.12
  3
NotoSans-Bold.ttf
  4

1001
ACAD
1000
Noto Sans
1071
 33554432
  0
STYLE
  5
1FE
330
3
100
AcDbSymbolTableRecord
100
AcDbTextStyleTableRecord
  2
ONSHAPE-STANDARD-BOMTABLE-
 70
     0
 40
0.0
 41
1.0
 50
0.0
 71
     0
 42
0.12
  3
NotoSans-Regular.ttf
  4

1001
ACAD
1000
Noto Sans
1071
        0
  0
STYLE
  5
1FF
330
3
100
AcDbSymbolTableRecord
100
AcDbTextStyleTableRecord
  2
ONSHAPE-STANDARD-BOMTABLE0
 70
     0
 40
0.0
 41
1.0
 50
0.0
 71
     0
 42
0.12
  3
NotoSans-Bold.ttf
  4

1001
ACAD
1000
Noto Sans
1071
 33554432
  0
STYLE
  5
200
330
3
100
AcDbSymbolTableRecord
100
AcDbTextStyleTableRecord
  2
ONSHAPE-STANDARD-BOMTABLE1
 70
     0
 40
0.0
 41
1.0
 50
0.0
 71
     0
 42
0.12
  3
NotoSans-Bold.ttf
  4

1001
ACAD
1000
Noto Sans
1071
 33554432
  0
STYLE
  5
201
330
3
100
AcDbSymbolTableRecord
100
AcDbTextStyleTableRecord
  2
ONSHAPE-STANDARD-NOTESTYLE
 70
     0
 40
0.12
 41
1.0
 50
0.0
 71
     0
 42
0.12
  3
NotoSans-Regular.ttf
  4

1001
ACAD
1000
Noto Sans
1071
        0
  0
STYLE
  5
202
330
3
100
AcDbSymbolTableRecord
100
AcDbTextStyleTableRecord
  2
ONSHAPE-STANDARD-DATUM-DIM
 70
     0
 40
0.12
 41
1.0
 50
0.0
 71
     0
 42
0.12
  3
NotoSans-Regular.ttf
  4

1001
ACAD
1000
Noto Sans
1071
        0
  0
STYLE
  5
204
330
3
100
AcDbSymbolTableRecord
100
AcDbTextStyleTableRecord
  2
ONSHAPE-DETAIL-VIEW-LEADER
 70
     0
 40
0.12
 41
1.0
 50
0.0
 71
     0
 42
0.12
  3
NotoSans-Regular.ttf
  4

1001
ACAD
1000
Noto Sans
1071
        0
  0
STYLE
  5
205
330
3
100
AcDbSymbolTableRecord
100
AcDbTextStyleTableRecord
  2
ONSHAPE-STANDARD-HOLE-CALL
 70
     0
 40
0.12
 41
1.0
 50
0.0
 71
     0
 42
0.12
  3
NotoSans-Regular.ttf
  4

1001
ACAD
1000
Noto Sans
1071
        0
  0
STYLE
  5
206
330
3
100
AcDbSymbolTableRecord
100
AcDbTextStyleTableRecord
  2
ONSHAPE-STANDARD-HOLETABLE
 70
     0
 40
0.0
 41
1.0
 50
0.0
 71
     0
 42
0.12
  3
NotoSans-Regular.ttf
  4

1001
ACAD
1000
Noto Sans
1071
        0
  0
STYLE
  5
207
330
3
100
AcDbSymbolTableRecord
100
AcDbTextStyleTableRecord
  2
ONSHAPE-STANDARD-HOLETABL0
 70
     0
 40
0.0
 41
1.0
 50
0.0
 71
     0
 42
0.12
  3
NotoSans-Bold.ttf
  4

1001
ACAD
1000
Noto Sans
1071
 33554432
  0
STYLE
  5
208
330
3
100
AcDbSymbolTableRecord
100
AcDbTextStyleTableRecord
  2
ONSHAPE-STANDARD-HOLETABL1
 70
     0
 40
0.0
 41
1.0
 50
0.0
 71
     0
 42
0.12
  3
NotoSans-Bold.ttf
  4

1001
ACAD
1000
Noto Sans
1071
 33554432
  0
STYLE
  5
209
330
3
100
AcDbSymbolTableRecord
100
AcDbTextStyleTableRecord
  2
ONSHAPE-STANDARD-HOLE-TAG
 70
     0
 40
0.12
 41
1.0
 50
0.0
 71
     0
 42
0.12
  3
NotoSans-Regular.ttf
  4

1001
ACAD
1000
Noto Sans
1071
        0
  0
STYLE
  5
20A
330
3
100
AcDbSymbolTableRecord
100
AcDbTextStyleTableRecord
  2
ONSHAPE-STANDARD-REVISIONT
 70
     0
 40
0.0
 41
1.0
 50
0.0
 71
     0
 42
0.12
  3
NotoSans-Regular.ttf
  4

1001
ACAD
1000
Noto Sans
1071
        0
  0
STYLE
  5
20B
330
3
100
AcDbSymbolTableRecord
100
AcDbTextStyleTableRecord
  2
ONSHAPE-STANDARD-REVISION0
 70
     0
 40
0.0
 41
1.0
 50
0.0
 71
     0
 42
0.12
  3
NotoSans-Bold.ttf
  4

1001
ACAD
1000
Noto Sans
1071
 33554432
  0
STYLE
  5
20C
330
3
100
AcDbSymbolTableRecord
100
AcDbTextStyleTableRecord
  2
ONSHAPE-STANDARD-REVISION1
 70
     0
 40
0.0
 41
1.0
 50
0.0
 71
     0
 42
0.12
  3
NotoSans-Bold.ttf
  4

1001
ACAD
1000
Noto Sans
1071
 33554432
  0
STYLE
  5
20D
330
3
100
AcDbSymbolTableRecord
100
AcDbTextStyleTableRecord
  2
ONSHAPE-STANDARD-REVISION-
 70
     0
 40
0.12
 41
1.0
 50
0.0
 71
     0
 42
0.12
  3
NotoSans-Regular.ttf
  4

1001
ACAD
1000
Noto Sans
1071
        0
  0
STYLE
  5
20E
330
3
100
AcDbSymbolTableRecord
100
AcDbTextStyleTableRecord
  2
ONSHAPE-STANDARD-CUTLISTTA
 70
     0
 40
0.0
 41
1.0
 50
0.0
 71
     0
 42
0.12
  3
NotoSans-Regular.ttf
  4

1001
ACAD
1000
Noto Sans
1071
        0
  0
STYLE
  5
20F
330
3
100
AcDbSymbolTableRecord
100
AcDbTextStyleTableRecord
  2
ONSHAPE-STANDARD-CUTLISTT0
 70
     0
 40
0.0
 41
1.0
 50
0.0
 71
     0
 42
0.12
  3
NotoSans-Bold.ttf
  4

1001
ACAD
1000
Noto Sans
1071
 33554432
  0
STYLE
  5
210
330
3
100
AcDbSymbolTableRecord
100
AcDbTextStyleTableRecord
  2
ONSHAPE-STANDARD-CUTLISTT1
 70
     0
 40
0.0
 41
1.0
 50
0.0
 71
     0
 42
0.12
  3
NotoSans-Bold.ttf
  4

1001
ACAD
1000
Noto Sans
1071
 33554432
  0
STYLE
  5
211
330
3
100
AcDbSymbolTableRecord
100
AcDbTextStyleTableRecord
  2
ONSHAPE-STANDARD-CUSTOMTAB
 70
     0
 40
0.0
 41
1.0
 50
0.0
 71
     0
 42
0.12
  3
NotoSans-Regular.ttf
  4

1001
ACAD
1000
Noto Sans
1071
        0
  0
STYLE
  5
212
330
3
100
AcDbSymbolTableRecord
100
AcDbTextStyleTableRecord
  2
ONSHAPE-STANDARD-CUSTOMTA0
 70
     0
 40
0.0
 41
1.0
 50
0.0
 71
     0
 42
0.12
  3
NotoSans-Bold.ttf
  4

1001
ACAD
1000
Noto Sans
1071
 33554432
  0
STYLE
  5
213
330
3
100
AcDbSymbolTableRecord
100
AcDbTextStyleTableRecord
  2
ONSHAPE-STANDARD-CUSTOMTA1
 70
     0
 40
0.0
 41
1.0
 50
0.0
 71
     0
 42
0.12
  3
NotoSans-Bold.ttf
  4

1001
ACAD
1000
Noto Sans
1071
 33554432
  0
ENDTAB
  0
TABLE
  2
VIEW
  5
6
330
0
100
AcDbSymbolTable
 70
     0
  0
ENDTAB
  0
TABLE
  2
UCS
  5
7
330
0
100
AcDbSymbolTable
 70
     0
  0
ENDTAB
  0
TABLE
  2
APPID
  5
9
330
0
100
AcDbSymbolTable
 70
     4
  0
APPID
  5
12
330
9
100
AcDbSymbolTableRecord
100
AcDbRegAppTableRecord
  2
ACAD
 70
     0
  0
APPID
  5
1D0
330
9
100
AcDbSymbolTableRecord
100
AcDbRegAppTableRecord
  2
ONSHAPE_CUSTOM_ASSOC_XDATA
 70
     0
  0
APPID
  5
1D2
330
9
100
AcDbSymbolTableRecord
100
AcDbRegAppTableRecord
  2
ONSHAPE_NOTES_ANNOTATION_D
 70
     0
  0
APPID
  5
278
330
9
100
AcDbSymbolTableRecord
100
AcDbRegAppTableRecord
  2
ACAD_MLEADERVER
 70
     0
  0
ENDTAB
  0
TABLE
  2
DIMSTYLE
  5
A
330
0
100
AcDbSymbolTable
 70
    21
  0
DIMSTYLE
105
27
330
A
100
AcDbSymbolTableRecord
100
AcDbDimStyleTableRecord
  2
STANDARD
 70
     0
  3

  4

  5

  6

  7

 40
1.0
 41
0.18
 42
0.0625
 43
0.38
 44
0.18
 45
0.0
 46
0.0
 47
0.0
 48
0.0
140
0.18
141
0.09
142
0.0
143
25.4
144
1.0
145
0.0
146
1.0
147
0.09
 71
     0
 72
     0
 73
     1
 74
     1
 75
     0
 76
     0
 77
     0
 78
     0
170
     0
171
     2
172
     0
173
     0
174
     0
175
     0
176
     0
177
     0
178
     0
270
     2
271
     4
272
     4
273
     2
274
     2
340
11
275
     0
280
     0
281
     0
282
     0
283
     1
284
     0
285
     0
286
     0
287
     3
288
     0
  0
DIMSTYLE
105
72
330
A
100
AcDbSymbolTableRecord
100
AcDbDimStyleTableRecord
  2
ONSHAPE-STANDARD
 70
     0
  3

  4

  5

  6

  7

 40
1.0
 41
0.18
 42
0.0625
 43
0.38
 44
0.08
 45
0.0
 46
0.0
 47
0.0
 48
0.0
140
0.12
141
0.09
142
0.0
143
25.4
144
1.0
145
0.0
146
1.0
147
0.09
 71
     0
 72
     0
 73
     1
 74
     1
 75
     0
 76
     0
 77
     0
 78
     7
170
     0
171
     2
172
     0
173
     0
174
     0
175
     0
176
     7
177
     7
178
     7
179
     1
270
     2
271
     3
272
     3
273
     2
274
     2
340
73
275
     0
280
     0
281
     0
282
     0
283
     1
284
     7
285
     7
286
     0
287
     3
288
     1
  0
DIMSTYLE
105
216
330
A
100
AcDbSymbolTableRecord
100
AcDbDimStyleTableRecord
  2
ANSI
 70
     0
  3

  4
mm
  5

  6

  7

 40
1.0
 41
0.12
 42
0.05
 43
0.5
 44
0.1
 45
0.0
 46
0.0
 47
0.1
 48
0.1
140
0.12
141
0.0
142
0.0
143
25.4
144
1.0
145
0.0
146
0.71
147
0.06
 71
     0
 72
     0
 73
     1
 74
     1
 75
     0
 76
     0
 77
     0
 78
     7
170
     0
171
     2
172
     0
173
     0
174
     0
175
     0
176
     7
177
     7
178
     7
270
     2
271
     3
272
     4
273
     2
274
     2
340
11
275
     0
280
     0
281
     0
282
     0
283
     1
284
     7
285
     7
286
     0
287
     3
288
     1
  0
DIMSTYLE
105
217
330
A
100
AcDbSymbolTableRecord
100
AcDbDimStyleTableRecord
  2
ANSI$3
 70
     0
  3

  4
mm
  5

  6

  7

 40
1.0
 41
0.12
 42
0.05
 43
0.5
 44
0.1
 45
0.0
 46
0.0
 47
0.1
 48
0.1
140
0.12
141
0.0
142
0.0
143
25.4
144
1.0
145
0.0
146
0.71
147
0.06
 71
     0
 72
     0
 73
     1
 74
     1
 75
     0
 76
     0
 77
     0
 78
     7
170
     0
171
     2
172
     0
173
     0
174
     0
175
     0
176
     7
177
     7
178
     7
270
     2
271
     3
272
     4
273
     2
274
     2
340
11
275
     0
280
     0
281
     0
282
     0
283
     1
284
     7
285
     7
286
     0
288
     1
  0
DIMSTYLE
105
218
330
A
100
AcDbSymbolTableRecord
100
AcDbDimStyleTableRecord
  2
ANSI$4
 70
     0
  3

  4
mm
  5

  6

  7

 40
1.0
 41
0.12
 42
0.05
 43
0.5
 44
0.1
 45
0.0
 46
0.0
 47
0.1
 48
0.1
140
0.12
141
0.0
142
0.0
143
25.4
144
1.0
145
0.0
146
0.71
147
0.06
 71
     0
 72
     0
 73
     1
 74
     1
 75
     0
 76
     0
 77
     0
 78
     7
170
     0
171
     2
172
     0
173
     0
174
     0
175
     0
176
     7
177
     7
178
     7
270
     2
271
     3
272
     4
273
     2
274
     2
340
11
275
     0
280
     0
281
     0
282
     0
283
     1
284
     7
285
     7
286
     0
287
     3
288
     1
  0
DIMSTYLE
105
219
330
A
100
AcDbSymbolTableRecord
100
AcDbDimStyleTableRecord
  2
ANSI$7
 70
     0
  3

  4
mm
  5

  6

  7

 40
1.0
 41
0.12
 42
0.05
 43
0.5
 44
0.1
 45
0.0
 46
0.0
 47
0.1
 48
0.1
140
0.12
141
0.0
142
0.0
143
25.4
144
1.0
145
0.0
146
0.71
147
0.06
 71
     0
 72
     0
 73
     1
 74
     1
 75
     0
 76
     0
 77
     0
 78
     7
170
     0
171
     2
172
     0
173
     0
174
     0
175
     0
176
     7
177
     7
178
     7
270
     2
271
     3
272
     4
273
     2
274
     2
340
11
275
     0
280
     0
281
     0
282
     0
283
     1
284
     7
285
     7
286
     0
287
     3
288
     1
  0
DIMSTYLE
105
21A
330
A
100
AcDbSymbolTableRecord
100
AcDbDimStyleTableRecord
  2
ANSI$SF
 70
     0
  3

  4
mm
  5

  6

  7

 40
1.0
 41
0.12
 42
0.05
 43
0.5
 44
0.1
 45
0.0
 46
0.0
 47
0.1
 48
0.1
140
0.12
141
0.0
142
0.0
143
25.4
144
1.0
145
0.0
146
0.71
147
0.06
 71
     0
 72
     0
 73
     1
 74
     1
 75
     1
 76
     1
 77
     0
 78
     7
170
     0
171
     2
172
     0
173
     0
174
     0
175
     0
176
     7
177
     7
178
     7
270
     2
271
     3
272
     4
273
     2
274
     2
340
11
275
     0
280
     0
281
     0
282
     0
283
     1
284
     7
285
     7
286
     0
287
     3
288
     1
  0
DIMSTYLE
105
21B
330
A
100
AcDbSymbolTableRecord
100
AcDbDimStyleTableRecord
  2
ANSI$SH
 70
     0
  3

  4
mm
  5

  6

  7

 40
1.0
 41
0.12
 42
0.05
 43
0.5
 44
0.1
 45
0.0
 46
0.0
 47
0.1
 48
0.1
140
0.12
141
0.0
142
0.0
143
25.4
144
1.0
145
0.0
146
0.71
147
0.06
 71
     0
 72
     0
 73
     1
 74
     1
 75
     1
 76
     1
 77
     0
 78
     7
170
     0
171
     2
172
     0
173
     1
174
     0
175
     0
176
     7
177
     7
178
     7
270
     2
271
     3
272
     4
273
     2
274
     2
340
11
275
     0
280
     0
281
     0
282
     0
283
     1
284
     7
285
     7
286
     0
287
     3
288
     1
  0
DIMSTYLE
105
21E
330
A
100
AcDbSymbolTableRecord
100
AcDbDimStyleTableRecord
  2
ONSHAPE-STANDARD$0
 70
     0
  3

  4

  5

  6

  7

 40
1.0
 41
0.18
 42
0.0625
 43
0.38
 44
0.08
 45
0.0
 46
0.0
 47
0.0
 48
0.0
140
0.12
141
0.09
142
0.0
143
25.4
144
1.0
145
0.0
146
1.0
147
0.09
 71
     0
 72
     0
 73
     1
 74
     1
 75
     0
 76
     0
 77
     0
 78
     7
170
     0
171
     2
172
     0
173
     0
174
     0
175
     0
176
     7
177
     7
178
     7
179
     1
270
     2
271
     3
272
     3
273
     2
274
     2
340
73
275
     0
280
     0
281
     0
282
     0
283
     1
284
     7
285
     7
286
     0
287
     3
288
     1
  0
DIMSTYLE
105
21F
330
A
100
AcDbSymbolTableRecord
100
AcDbDimStyleTableRecord
  2
ONSHAPE-STANDARD$2
 70
     0
  3

  4

  5

  6

  7

 40
1.0
 41
0.18
 42
0.0625
 43
0.38
 44
0.08
 45
0.0
 46
0.0
 47
0.0
 48
0.0
140
0.12
141
0.09
142
0.0
143
25.4
144
1.0
145
0.0
146
1.0
147
0.09
 71
     0
 72
     0
 73
     1
 74
     1
 75
     0
 76
     0
 77
     0
 78
     7
170
     0
171
     2
172
     0
173
     0
174
     0
175
     0
176
     7
177
     7
178
     7
179
     1
270
     2
271
     3
272
     3
273
     2
274
     2
340
73
275
     0
280
     0
281
     0
282
     0
283
     1
284
     7
285
     7
286
     0
287
     3
288
     1
  0
DIMSTYLE
105
220
330
A
100
AcDbSymbolTableRecord
100
AcDbDimStyleTableRecord
  2
ONSHAPE-STANDARD$3
 70
     0
  3

  4

  5

  6

  7

 40
1.0
 41
0.18
 42
0.0625
 43
0.38
 44
0.08
 45
0.0
 46
0.0
 47
0.0
 48
0.0
140
0.12
141
0.0
142
0.0
143
25.4
144
1.0
145
0.0
146
1.0
147
0.09
 71
     0
 72
     0
 73
     1
 74
     1
 75
     0
 76
     0
 77
     0
 78
     7
170
     0
171
     2
172
     0
173
     0
174
     0
175
     0
176
     7
177
     7
178
     7
179
     1
270
     2
271
     3
272
     3
273
     2
274
     2
340
73
275
     0
280
     0
281
     0
282
     0
283
     1
284
     7
285
     7
286
     0
287
     3
288
     1
  0
DIMSTYLE
105
221
330
A
100
AcDbSymbolTableRecord
100
AcDbDimStyleTableRecord
  2
ONSHAPE-STANDARD$4
 70
     0
  3

  4

  5

  6

  7

 40
1.0
 41
0.18
 42
0.0625
 43
0.38
 44
0.08
 45
0.0
 46
0.0
 47
0.0
 48
0.0
140
0.12
141
0.0
142
0.0
143
25.4
144
1.0
145
0.0
146
1.0
147
0.09
 71
     0
 72
     0
 73
     1
 74
     1
 75
     0
 76
     0
 77
     0
 78
     7
170
     0
171
     2
172
     0
173
     0
174
     0
175
     0
176
     7
177
     7
178
     7
179
     1
270
     2
271
     3
272
     3
273
     2
274
     2
340
73
275
     0
280
     0
281
     0
282
     0
283
     1
284
     7
285
     7
286
     0
287
     3
288
     1
  0
DIMSTYLE
105
222
330
A
100
AcDbSymbolTableRecord
100
AcDbDimStyleTableRecord
  2
ONSHAPE-STANDARD$6
 70
     0
  3

  4

  5

  6

  7

 40
1.0
 41
0.02
 42
0.0625
 43
0.38
 44
0.08
 45
0.0
 46
0.0
 47
0.0
 48
0.0
140
0.12
141
0.09
142
0.0
143
25.4
144
1.0
145
0.0
146
1.0
147
0.09
 71
     0
 72
     0
 73
     1
 74
     1
 75
     0
 76
     0
 77
     0
 78
     7
170
     0
171
     2
172
     0
173
     0
174
     0
175
     0
176
     7
177
     7
178
     7
179
     1
270
     2
271
     3
272
     3
273
     2
274
     2
340
73
275
     0
280
     0
281
     0
282
     0
283
     1
284
     7
285
     7
286
     0
287
     3
288
     1
  0
DIMSTYLE
105
223
330
A
100
AcDbSymbolTableRecord
100
AcDbDimStyleTableRecord
  2
ONSHAPE-STANDARD$7
 70
     0
  3

  4

  5

  6

  7

 40
1.0
 41
0.18
 42
0.0625
 43
0.38
 44
0.08
 45
0.0
 46
0.0
 47
0.0
 48
0.0
140
0.12
141
0.09
142
0.0
143
25.4
144
1.0
145
0.0
146
1.0
147
0.09
 71
     0
 72
     0
 73
     1
 74
     1
 75
     0
 76
     0
 77
     0
 78
     7
170
     0
171
     2
172
     0
173
     0
174
     0
175
     0
176
     7
177
     7
178
     7
179
     1
270
     2
271
     3
272
     3
273
     2
274
     2
340
73
275
     0
280
     0
281
     0
282
     0
283
     1
284
     7
285
     7
286
     0
287
     3
288
     1
  0
DIMSTYLE
105
224
330
A
100
AcDbSymbolTableRecord
100
AcDbDimStyleTableRecord
  2
ONSHAPE-STANDARD-GTOLERANC
 70
     0
  3

  4

  5

  6

  7

 40
1.0
 41
0.18
 42
0.0625
 43
0.38
 44
0.08
 45
0.0
 46
0.0
 47
0.0
 48
0.0
140
0.12
141
0.09
142
0.0
143
25.4
144
1.0
145
0.0
146
1.0
147
0.09
 71
     0
 72
     0
 73
     1
 74
     1
 75
     0
 76
     0
 77
     0
 78
     7
170
     0
171
     2
172
     0
173
     0
174
     0
175
     0
176
     7
177
     7
178
     7
179
     1
270
     2
271
     3
272
     3
273
     2
274
     2
340
1FA
275
     0
280
     0
281
     0
282
     0
283
     1
284
     7
285
     7
286
     0
287
     3
288
     1
  0
DIMSTYLE
105
226
330
A
100
AcDbSymbolTableRecord
100
AcDbDimStyleTableRecord
  2
ONSHAPE-ORDINATESTYLE
 70
     0
  3

  4

  5

  6

  7

 40
1.0
 41
0.02
 42
0.0625
 43
0.38
 44
0.08
 45
0.0
 46
0.0
 47
0.0
 48
0.0
140
0.12
141
0.09
142
0.0
143
25.4
144
1.0
145
0.0
146
1.0
147
0.09
 71
     0
 72
     0
 73
     1
 74
     1
 75
     0
 76
     0
 77
     0
 78
     7
170
     0
171
     2
172
     0
173
     0
174
     0
175
     0
176
     7
177
     7
178
     7
179
     1
270
     2
271
     3
272
     3
273
     2
274
     2
340
73
275
     0
280
     0
281
     0
282
     0
283
     1
284
     7
285
     7
286
     0
287
     3
288
     1
  0
DIMSTYLE
105
227
330
A
100
AcDbSymbolTableRecord
100
AcDbDimStyleTableRecord
  2
ONSHAPE-CHAMFERDIMSTYLE
 70
     0
  3

  4

  5

  6

  7

 40
1.0
 41
0.18
 42
0.0625
 43
0.38
 44
0.08
 45
0.0
 46
0.0
 47
0.0
 48
0.0
140
0.12
141
0.09
142
0.0
143
25.4
144
1.0
145
0.0
146
1.0
147
0.09
 71
     0
 72
     0
 73
     1
 74
     1
 75
     0
 76
     0
 77
     0
 78
     7
170
     0
171
     2
172
     0
173
     0
174
     0
175
     0
176
     7
177
     7
178
     7
179
     1
270
     2
271
     3
272
     3
273
     2
274
     2
340
73
275
     0
280
     0
281
     0
282
     0
283
     1
284
     7
285
     7
286
     0
287
     3
288
     1
  0
DIMSTYLE
105
228
330
A
100
AcDbSymbolTableRecord
100
AcDbDimStyleTableRecord
  2
ONSHAPE-SKETCHDRIVENDIMSTY
 70
     0
  3

  4

  5

  6

  7

 40
1.0
 41
0.18
 42
0.0625
 43
0.38
 44
0.08
 45
0.0
 46
0.0
 47
0.0
 48
0.0
140
0.12
141
0.09
142
0.0
143
25.4
144
1.0
145
0.0
146
1.0
147
0.09
 71
     0
 72
     0
 73
     1
 74
     1
 75
     0
 76
     0
 77
     0
 78
     7
170
     0
171
     2
172
     0
173
     0
174
     0
175
     0
176
   251
177
   251
178
   251
179
     1
270
     2
271
     3
272
     3
273
     2
274
     2
340
73
275
     0
280
     0
281
     0
282
     0
283
     1
284
     7
285
     7
286
     0
287
     3
288
     1
  0
DIMSTYLE
105
229
330
A
100
AcDbSymbolTableRecord
100
AcDbDimStyleTableRecord
  2
ONSHAPE-SKETCHDRIVENDIMST0
 70
     0
  3

  4

  5

  6

  7

 40
1.0
 41
0.18
 42
0.0625
 43
0.38
 44
0.08
 45
0.0
 46
0.0
 47
0.0
 48
0.0
140
0.12
141
0.09
142
0.0
143
25.4
144
1.0
145
0.0
146
1.0
147
0.09
 71
     0
 72
     0
 73
     1
 74
     1
 75
     0
 76
     0
 77
     0
 78
     7
170
     0
171
     2
172
     0
173
     0
174
     0
175
     0
176
   251
177
   251
178
   251
179
     1
270
     2
271
     3
272
     3
273
     2
274
     2
340
73
275
     0
280
     0
281
     0
282
     0
283
     1
284
     7
285
     7
286
     0
287
     3
288
     1
  0
DIMSTYLE
105
22A
330
A
100
AcDbSymbolTableRecord
100
AcDbDimStyleTableRecord
  2
ONSHAPE-SKETCHDRIVENDIMST1
 70
     0
  3

  4

  5

  6

  7

 40
1.0
 41
0.18
 42
0.0625
 43
0.38
 44
0.08
 45
0.0
 46
0.0
 47
0.0
 48
0.0
140
0.12
141
0.0
142
0.0
143
25.4
144
1.0
145
0.0
146
1.0
147
0.09
 71
     0
 72
     0
 73
     1
 74
     1
 75
     0
 76
     0
 77
     0
 78
     7
170
     0
171
     2
172
     0
173
     0
174
     0
175
     0
176
   251
177
   251
178
   251
179
     1
270
     2
271
     3
272
     3
273
     2
274
     2
340
73
275
     0
280
     0
281
     0
282
     0
283
     1
284
     7
285
     7
286
     0
287
     3
288
     1
  0
DIMSTYLE
105
22B
330
A
100
AcDbSymbolTableRecord
100
AcDbDimStyleTableRecord
  2
ONSHAPE-SKETCHDRIVENDIMST2
 70
     0
  3

  4

  5

  6

  7

 40
1.0
 41
0.18
 42
0.0625
 43
0.38
 44
0.08
 45
0.0
 46
0.0
 47
0.0
 48
0.0
140
0.12
141
0.0
142
0.0
143
25.4
144
1.0
145
0.0
146
1.0
147
0.09
 71
     0
 72
     0
 73
     1
 74
     1
 75
     0
 76
     0
 77
     0
 78
     7
170
     0
171
     2
172
     0
173
     0
174
     0
175
     0
176
   251
177
   251
178
   251
179
     1
270
     2
271
     3
272
     3
273
     2
274
     2
340
73
275
     0
280
     0
281
     0
282
     0
283
     1
284
     7
285
     7
286
     0
287
     3
288
     1
  0
ENDTAB
  0
TABLE
  2
BLOCK_RECORD
  5
1
330
0
100
AcDbSymbolTable
 70
     0
  0
BLOCK_RECORD
  5
1F
330
1
100
AcDbSymbolTableRecord
100
AcDbBlockTableRecord
  2
*MODEL_SPACE
  0
BLOCK_RECORD
  5
1B
330
1
100
AcDbSymbolTableRecord
100
AcDbBlockTableRecord
  2
*PAPER_SPACE
  0
ENDTAB
  0
ENDSEC
  0
SECTION
  2
BLOCKS
  0
BLOCK
  5
20
330
1F
100
AcDbEntity
  8
0
100
AcDbBlockBegin
  2
*MODEL_SPACE
 70
     0
 10
0.0
 20
0.0
 30
0.0
  3
*MODEL_SPACE
  1

  0
ENDBLK
  5
21
330
1F
100
AcDbEntity
  8
0
100
AcDbBlockEnd
  0
BLOCK
  5
1C
330
1B
100
AcDbEntity
 67
     1
  8
0
100
AcDbBlockBegin
  2
*PAPER_SPACE
 70
     0
 10
0.0
 20
0.0
 30
0.0
  3
*PAPER_SPACE
  1

  0
ENDBLK
  5
1D
330
1B
100
AcDbEntity
 67
     1
  8
0
100
AcDbBlockEnd
  0
ENDSEC
  0
SECTION
  2
ENTITIES
  0
LINE
  5
79
330
1F
100
AcDbEntity
  8
MODELSKETCH_VISIBLE
100
AcDbLine
 10
16.90551181102362
 20
8.622193628744489
 30
0.0
 11
16.73228346456693
 21
8.622193628744489
 31
0.0
  0
LINE
  5
7A
330
1F
100
AcDbEntity
  8
MODELSKETCH_CONSTRUCTION
100
AcDbLine
 10
10.82677165354331
 20
4.882036148429527
 30
0.0
 11
15.12999204904076
 21
4.882036148429527
 31
0.0
  0
LINE
  5
7B
330
1F
100
AcDbEntity
  8
MODELSKETCH_VISIBLE
100
AcDbLine
 10
1.771653543307089
 20
7.834792053941337
 30
0.0
 11
1.771653543307089
 21
8.008020400398031
 31
0.0
  0
LINE
  5
7C
330
1F
100
AcDbEntity
  8
MODELSKETCH_VISIBLE
100
AcDbLine
 10
3.346456692913388
 20
8.008020400398031
 30
0.0
 11
2.952755905511813
 21
8.008020400398031
 31
0.0
  0
LINE
  5
7D
330
1F
100
AcDbEntity
  8
MODELSKETCH_VISIBLE
100
AcDbLine
 10
4.748031496062993
 20
0.3544770933114147
 30
0.0
 11
4.921259842519686
 21
0.3544770933114147
 31
0.0
  0
LINE
  5
7E
330
1F
100
AcDbEntity
  8
MODELSKETCH_VISIBLE
100
AcDbLine
 10
4.748031496062993
 20
-0.0392236940901585
 30
0.0
 11
4.748031496062993
 21
-0.4329244814917361
 31
0.0
  0
LINE
  5
7F
330
1F
100
AcDbEntity
  8
MODELSKETCH_VISIBLE
100
AcDbLine
 10
18.7007874015748
 20
1.756051896461022
 30
0.0
 11
18.7007874015748
 21
1.929280242917714
 31
0.0
  0
LINE
  5
80
330
1F
100
AcDbEntity
  8
MODELSKETCH_VISIBLE
100
AcDbLine
 10
17.51968503937008
 20
1.756051896461022
 30
0.0
 11
17.91338582677165
 21
1.756051896461022
 31
0.0
  0
LINE
  5
81
330
1F
100
AcDbEntity
  8
MODELSKETCH_VISIBLE
100
AcDbLine
 10
17.1259842519685
 20
8.008020400398031
 30
0.0
 11
17.1259842519685
 21
7.834792053941338
 31
0.0
  0
LINE
  5
82
330
1F
100
AcDbEntity
  8
MODELSKETCH_VISIBLE
100
AcDbLine
 10
16.90551181102362
 20
9.015894416146061
 30
0.0
 11
16.90551181102362
 21
9.409595203547639
 31
0.0
  0
LINE
  5
83
330
1F
100
AcDbEntity
  8
MODELSKETCH_VISIBLE
100
AcDbLine
 10
4.921259842519686
 20
8.228492841342913
 30
0.0
 11
4.748031496062993
 21
8.228492841342913
 31
0.0
  0
LINE
  5
84
330
1F
100
AcDbEntity
  8
MODELSKETCH_VISIBLE
100
AcDbLine
 10
4.748031496062993
 20
10.98439835315394
 30
0.0
 11
4.921259842519686
 21
10.98439835315394
 31
0.0
  0
LINE
  5
85
330
1F
100
AcDbEntity
  8
MODELSKETCH_CONSTRUCTION
100
AcDbLine
 10
4.921259842519685
 20
1.929280242917716
 30
0.0
 11
4.133858267716536
 21
1.929280242917716
 31
0.0
  0
LINE
  5
86
330
1F
100
AcDbEntity
  8
MODELSKETCH_VISIBLE
100
AcDbLine
 10
4.921259842519686
 20
-1.614026843696458
 30
0.0
 11
4.748031496062993
 21
-1.614026843696458
 31
0.0
  0
LINE
  5
87
330
1F
100
AcDbEntity
  8
MODELSKETCH_VISIBLE
100
AcDbLine
 10
4.133858267716536
 20
1.929280242917716
 30
0.0
 11
4.133858267716536
 21
1.756051896461022
 31
0.0
  0
LINE
  5
88
330
1F
100
AcDbEntity
  8
MODELSKETCH_VISIBLE
100
AcDbLine
 10
16.73228346456693
 20
0.7481778807129915
 30
0.0
 11
16.90551181102362
 21
0.7481778807129915
 31
0.0
  0
LINE
  5
89
330
1F
100
AcDbEntity
  8
MODELSKETCH_VISIBLE
100
AcDbLine
 10
4.921259842519686
 20
1.756051896461022
 30
0.0
 11
4.527559055118111
 21
1.756051896461022
 31
0.0
  0
LINE
  5
8A
330
1F
100
AcDbEntity
  8
MODELSKETCH_VISIBLE
100
AcDbLine
 10
20.2755905511811
 20
1.756051896461022
 30
0.0
 11
20.2755905511811
 21
1.929280242917714
 31
0.0
  0
LINE
  5
8B
330
1F
100
AcDbEntity
  8
MODELSKETCH_VISIBLE
100
AcDbLine
 10
16.90551181102362
 20
-1.220326056294884
 30
0.0
 11
16.73228346456693
 21
-1.220326056294884
 31
0.0
  0
LINE
  5
8C
330
1F
100
AcDbEntity
  8
MODELSKETCH_VISIBLE
100
AcDbLine
 10
16.90551181102362
 20
0.7481778807129915
 30
0.0
 11
16.90551181102362
 21
0.3544770933114147
 31
0.0
  0
LINE
  5
8D
330
1F
100
AcDbEntity
  8
MODELSKETCH_VISIBLE
100
AcDbLine
 10
16.90551181102362
 20
-0.0392236940901585
 30
0.0
 11
16.90551181102362
 21
-0.4329244814917361
 31
0.0
  0
LINE
  5
8E
330
1F
100
AcDbEntity
  8
MODELSKETCH_VISIBLE
100
AcDbLine
 10
17.51968503937008
 20
8.008020400398031
 30
0.0
 11
17.91338582677165
 21
8.008020400398031
 31
0.0
  0
LINE
  5
8F
330
1F
100
AcDbEntity
  8
MODELSKETCH_CONSTRUCTION
100
AcDbLine
 10
16.73228346456693
 20
7.834792053941337
 30
0.0
 11
17.51968503937008
 21
7.834792053941337
 31
0.0
  0
LINE
  5
90
330
1F
100
AcDbEntity
  8
MODELSKETCH_VISIBLE
100
AcDbLine
 10
16.73228346456693
 20
9.803295990949213
 30
0.0
 11
16.90551181102362
 21
9.803295990949213
 31
0.0
  0
LINE
  5
91
330
1F
100
AcDbEntity
  8
MODELSKETCH_CONSTRUCTION
100
AcDbLine
 10
16.73228346456693
 20
8.228492841342913
 30
0.0
 11
16.90551181102362
 21
8.228492841342913
 31
0.0
  0
LINE
  5
92
330
1F
100
AcDbEntity
  8
MODELSKETCH_VISIBLE
100
AcDbLine
 10
4.748031496062993
 20
11.77179992795709
 30
0.0
 11
4.921259842519686
 21
11.77179992795709
 31
0.0
  0
LINE
  5
93
330
1F
100
AcDbEntity
  8
MODELSKETCH_CONSTRUCTION
100
AcDbLine
 10
4.921259842519685
 20
7.834792053941337
 30
0.0
 11
4.133858267716536
 21
7.834792053941337
 31
0.0
  0
LINE
  5
94
330
1F
100
AcDbEntity
  8
MODELSKETCH_VISIBLE
100
AcDbLine
 10
3.740157480314962
 20
8.008020400398031
 30
0.0
 11
3.740157480314962
 21
7.834792053941339
 31
0.0
  0
LINE
  5
95
330
1F
100
AcDbEntity
  8
MODELSKETCH_CONSTRUCTION
100
AcDbLine
 10
4.921259842519686
 20
1.535579455516141
 30
0.0
 11
4.921259842519686
 21
0.7481778807129915
 31
0.0
  0
LINE
  5
96
330
1F
100
AcDbEntity
  8
MODELSKETCH_VISIBLE
100
AcDbLine
 10
4.748031496062993
 20
9.803295990949213
 30
0.0
 11
4.748031496062993
 21
10.19699677835079
 31
0.0
  0
LINE
  5
97
330
1F
100
AcDbEntity
  8
MODELSKETCH_VISIBLE
100
AcDbLine
 10
4.921259842519686
 20
-0.0392236940901585
 30
0.0
 11
4.748031496062993
 21
-0.0392236940901585
 31
0.0
  0
LINE
  5
98
330
1F
100
AcDbEntity
  8
MODELSKETCH_VISIBLE
100
AcDbLine
 10
4.527559055118111
 20
1.756051896461022
 30
0.0
 11
4.527559055118111
 21
1.929280242917716
 31
0.0
  0
LINE
  5
99
330
1F
100
AcDbEntity
  8
MODELSKETCH_VISIBLE
100
AcDbLine
 10
17.51968503937008
 20
1.929280242917716
 30
0.0
 11
17.51968503937008
 21
1.756051896461022
 31
0.0
  0
LINE
  5
9A
330
1F
100
AcDbEntity
  8
MODELSKETCH_VISIBLE
100
AcDbLine
 10
2.559055118110239
 20
1.756051896461022
 30
0.0
 11
2.165354330708663
 21
1.756051896461022
 31
0.0
  0
LINE
  5
9B
330
1F
100
AcDbEntity
  8
MODELSKETCH_VISIBLE
100
AcDbLine
 10
16.90551181102362
 20
0.3544770933114147
 30
0.0
 11
16.73228346456693
 21
0.3544770933114147
 31
0.0
  0
LINE
  5
9C
330
1F
100
AcDbEntity
  8
MODELSKETCH_VISIBLE
100
AcDbLine
 10
16.90551181102362
 20
-0.4329244814917343
 30
0.0
 11
16.73228346456693
 21
-0.4329244814917343
 31
0.0
  0
LINE
  5
9D
330
1F
100
AcDbEntity
  8
MODELSKETCH_VISIBLE
100
AcDbLine
 10
16.90551181102362
 20
-1.614026843696457
 30
0.0
 11
16.90551181102362
 21
-2.007727631098034
 31
0.0
  0
LINE
  5
9E
330
1F
100
AcDbEntity
  8
MODELSKETCH_VISIBLE
100
AcDbLine
 10
16.90551181102362
 20
10.19699677835079
 30
0.0
 11
16.73228346456693
 21
10.19699677835079
 31
0.0
  0
LINE
  5
9F
330
1F
100
AcDbEntity
  8
MODELSKETCH_VISIBLE
100
AcDbLine
 10
16.90551181102362
 20
8.228492841342913
 30
0.0
 11
16.90551181102362
 21
8.622193628744489
 31
0.0
  0
LINE
  5
A0
330
1F
100
AcDbEntity
  8
MODELSKETCH_CONSTRUCTION
100
AcDbLine
 10
10.82677165354331
 20
4.882036148429527
 30
0.0
 11
10.82677165354331
 21
-0.9144457434503588
 31
0.0
  0
LINE
  5
A1
330
1F
100
AcDbEntity
  8
MODELSKETCH_VISIBLE
100
AcDbLine
 10
4.921259842519686
 20
9.015894416146061
 30
0.0
 11
4.748031496062993
 21
9.015894416146061
 31
0.0
  0
LINE
  5
A2
330
1F
100
AcDbEntity
  8
MODELSKETCH_VISIBLE
100
AcDbLine
 10
4.921259842519686
 20
10.59069756575236
 30
0.0
 11
4.748031496062993
 21
10.59069756575236
 31
0.0
  0
LINE
  5
A3
330
1F
100
AcDbEntity
  8
MODELSKETCH_VISIBLE
100
AcDbLine
 10
4.748031496062993
 20
9.015894416146061
 30
0.0
 11
4.748031496062993
 21
9.409595203547639
 31
0.0
  0
LINE
  5
A4
330
1F
100
AcDbEntity
  8
MODELSKETCH_VISIBLE
100
AcDbLine
 10
3.346456692913387
 20
1.929280242917716
 30
0.0
 11
3.346456692913387
 21
1.756051896461022
 31
0.0
  0
LINE
  5
A5
330
1F
100
AcDbEntity
  8
MODELSKETCH_VISIBLE
100
AcDbLine
 10
1.771653543307089
 20
8.008020400398031
 30
0.0
 11
1.377952755905515
 21
8.008020400398031
 31
0.0
  0
LINE
  5
A6
330
1F
100
AcDbEntity
  8
MODELSKETCH_VISIBLE
100
AcDbLine
 10
18.7007874015748
 20
8.008020400398031
 30
0.0
 11
18.7007874015748
 21
7.834792053941339
 31
0.0
  0
LINE
  5
A7
330
1F
100
AcDbEntity
  8
MODELSKETCH_VISIBLE
100
AcDbLine
 10
2.165354330708663
 20
8.008020400398031
 30
0.0
 11
2.165354330708663
 21
7.834792053941339
 31
0.0
  0
LINE
  5
A8
330
1F
100
AcDbEntity
  8
MODELSKETCH_VISIBLE
100
AcDbLine
 10
1.771653543307089
 20
1.929280242917716
 30
0.0
 11
1.771653543307089
 21
1.756051896461022
 31
0.0
  0
LINE
  5
A9
330
1F
100
AcDbEntity
  8
MODELSKETCH_VISIBLE
100
AcDbLine
 10
4.921259842519686
 20
-0.8266252688933085
 30
0.0
 11
4.748031496062993
 21
-0.8266252688933085
 31
0.0
  0
LINE
  5
AA
330
1F
100
AcDbEntity
  8
MODELSKETCH_VISIBLE
100
AcDbLine
 10
16.90551181102362
 20
-2.007727631098034
 30
0.0
 11
16.73228346456693
 21
-2.007727631098034
 31
0.0
  0
LINE
  5
AB
330
1F
100
AcDbEntity
  8
MODELSKETCH_VISIBLE
100
AcDbLine
 10
16.90551181102362
 20
1.535579455516141
 30
0.0
 11
16.90551181102362
 21
1.141878668114565
 31
0.0
  0
LINE
  5
AC
330
1F
100
AcDbEntity
  8
MODELSKETCH_VISIBLE
100
AcDbLine
 10
19.09448818897638
 20
7.834792053941337
 30
0.0
 11
19.09448818897638
 21
8.008020400398031
 31
0.0
  0
LINE
  5
AD
330
1F
100
AcDbEntity
  8
MODELSKETCH_VISIBLE
100
AcDbLine
 10
16.73228346456693
 20
10.59069756575236
 30
0.0
 11
16.90551181102362
 21
10.59069756575236
 31
0.0
  0
LINE
  5
AE
330
1F
100
AcDbEntity
  8
MODELSKETCH_VISIBLE
100
AcDbLine
 10
4.748031496062993
 20
8.228492841342913
 30
0.0
 11
4.748031496062993
 21
8.622193628744489
 31
0.0
  0
LINE
  5
AF
330
1F
100
AcDbEntity
  8
MODELSKETCH_VISIBLE
100
AcDbLine
 10
1.377952755905515
 20
8.008020400398031
 30
0.0
 11
1.377952755905515
 21
7.834792053941339
 31
0.0
  0
LINE
  5
B0
330
1F
100
AcDbEntity
  8
MODELSKETCH_VISIBLE
100
AcDbLine
 10
4.921259842519685
 20
1.929280242917716
 30
0.0
 11
4.921259842519685
 21
1.756051896461022
 31
0.0
  0
LINE
  5
B1
330
1F
100
AcDbEntity
  8
MODELSKETCH_VISIBLE
100
AcDbLine
 10
4.133858267716537
 20
1.756051896461022
 30
0.0
 11
3.740157480314962
 21
1.756051896461022
 31
0.0
  0
LINE
  5
B2
330
1F
100
AcDbEntity
  8
MODELSKETCH_VISIBLE
100
AcDbLine
 10
17.91338582677165
 20
1.756051896461022
 30
0.0
 11
17.91338582677165
 21
1.929280242917714
 31
0.0
  0
LINE
  5
B3
330
1F
100
AcDbEntity
  8
MODELSKETCH_VISIBLE
100
AcDbLine
 10
16.73228346456693
 20
1.929280242917717
 30
0.0
 11
20.66929133858267
 21
1.929280242917716
 31
0.0
  0
LINE
  5
B4
330
1F
100
AcDbEntity
  8
MODELSKETCH_VISIBLE
100
AcDbLine
 10
19.48818897637795
 20
8.008020400398031
 30
0.0
 11
19.48818897637795
 21
7.834792053941339
 31
0.0
  0
LINE
  5
B5
330
1F
100
AcDbEntity
  8
MODELSKETCH_VISIBLE
100
AcDbLine
 10
16.90551181102362
 20
10.98439835315394
 30
0.0
 11
16.73228346456693
 21
10.98439835315394
 31
0.0
  0
LINE
  5
B6
330
1F
100
AcDbEntity
  8
MODELSKETCH_VISIBLE
100
AcDbLine
 10
4.921259842519686
 20
8.008020400398031
 30
0.0
 11
4.527559055118111
 21
8.008020400398031
 31
0.0
  0
LINE
  5
B7
330
1F
100
AcDbEntity
  8
MODELSKETCH_VISIBLE
100
AcDbLine
 10
2.559055118110237
 20
7.834792053941337
 30
0.0
 11
2.559055118110237
 21
8.008020400398031
 31
0.0
  0
LINE
  5
B8
330
1F
100
AcDbEntity
  8
MODELSKETCH_VISIBLE
100
AcDbLine
 10
2.559055118110237
 20
1.929280242917716
 30
0.0
 11
2.559055118110237
 21
1.756051896461022
 31
0.0
  0
LINE
  5
B9
330
1F
100
AcDbEntity
  8
MODELSKETCH_VISIBLE
100
AcDbLine
 10
1.771653543307089
 20
1.756051896461022
 30
0.0
 11
1.377952755905515
 21
1.756051896461022
 31
0.0
  0
LINE
  5
BA
330
1F
100
AcDbEntity
  8
MODELSKETCH_VISIBLE
100
AcDbLine
 10
16.73228346456693
 20
-0.8266252688933085
 30
0.0
 11
16.90551181102362
 21
-0.8266252688933085
 31
0.0
  0
LINE
  5
BB
330
1F
100
AcDbEntity
  8
MODELSKETCH_VISIBLE
100
AcDbLine
 10
19.88188976377953
 20
8.008020400398031
 30
0.0
 11
20.2755905511811
 21
8.008020400398031
 31
0.0
  0
LINE
  5
BC
330
1F
100
AcDbEntity
  8
MODELSKETCH_VISIBLE
100
AcDbLine
 10
16.90551181102362
 20
11.37809914055551
 30
0.0
 11
16.90551181102362
 21
11.77179992795709
 31
0.0
  0
LINE
  5
BD
330
1F
100
AcDbEntity
  8
MODELSKETCH_VISIBLE
100
AcDbLine
 10
4.748031496062993
 20
9.409595203547639
 30
0.0
 11
4.921259842519686
 21
9.409595203547639
 31
0.0
  0
LINE
  5
BE
330
1F
100
AcDbEntity
  8
MODELSKETCH_VISIBLE
100
AcDbLine
 10
2.952755905511813
 20
1.756051896461022
 30
0.0
 11
2.952755905511813
 21
1.929280242917714
 31
0.0
  0
LINE
  5
BF
330
1F
100
AcDbEntity
  8
MODELSKETCH_VISIBLE
100
AcDbLine
 10
4.748031496062993
 20
-1.614026843696457
 30
0.0
 11
4.748031496062993
 21
-2.007727631098034
 31
0.0
  0
LINE
  5
C0
330
1F
100
AcDbEntity
  8
MODELSKETCH_VISIBLE
100
AcDbLine
 10
4.133858267716537
 20
8.008020400398031
 30
0.0
 11
3.740157480314962
 21
8.008020400398031
 31
0.0
  0
LINE
  5
C1
330
1F
100
AcDbEntity
  8
MODELSKETCH_VISIBLE
100
AcDbLine
 10
3.346456692913387
 20
7.834792053941337
 30
0.0
 11
3.346456692913387
 21
8.008020400398031
 31
0.0
  0
LINE
  5
C2
330
1F
100
AcDbEntity
  8
MODELSKETCH_VISIBLE
100
AcDbLine
 10
16.73228346456693
 20
1.756051896461022
 30
0.0
 11
17.1259842519685
 21
1.756051896461022
 31
0.0
  0
LINE
  5
C3
330
1F
100
AcDbEntity
  8
MODELSKETCH_VISIBLE
100
AcDbLine
 10
4.921259842519686
 20
11.37809914055551
 30
0.0
 11
4.748031496062993
 21
11.37809914055551
 31
0.0
  0
LINE
  5
C4
330
1F
100
AcDbEntity
  8
MODELSKETCH_VISIBLE
100
AcDbLine
 10
4.748031496062993
 20
-2.007727631098034
 30
0.0
 11
4.921259842519686
 21
-2.007727631098034
 31
0.0
  0
LINE
  5
C5
330
1F
100
AcDbEntity
  8
MODELSKETCH_VISIBLE
100
AcDbLine
 10
4.921259842519685
 20
1.929280242917713
 30
0.0
 11
4.921259842519685
 21
-2.007727631098029
 31
0.0
  0
LINE
  5
C6
330
1F
100
AcDbEntity
  8
MODELSKETCH_VISIBLE
100
AcDbLine
 10
16.73228346456693
 20
8.228492841342913
 30
0.0
 11
16.90551181102362
 21
8.228492841342913
 31
0.0
  0
LINE
  5
C7
330
1F
100
AcDbEntity
  8
MODELSKETCH_VISIBLE
100
AcDbLine
 10
4.748031496062993
 20
-1.220326056294884
 30
0.0
 11
4.921259842519686
 21
-1.220326056294884
 31
0.0
  0
LINE
  5
C8
330
1F
100
AcDbEntity
  8
MODELSKETCH_VISIBLE
100
AcDbLine
 10
18.30708661417323
 20
7.834792053941337
 30
0.0
 11
18.30708661417323
 21
8.008020400398031
 31
0.0
  0
LINE
  5
C9
330
1F
100
AcDbEntity
  8
MODELSKETCH_VISIBLE
100
AcDbLine
 10
19.09448818897638
 20
1.756051896461022
 30
0.0
 11
19.48818897637795
 21
1.756051896461022
 31
0.0
  0
LINE
  5
CA
330
1F
100
AcDbEntity
  8
MODELSKETCH_VISIBLE
100
AcDbLine
 10
16.73228346456693
 20
9.015894416146061
 30
0.0
 11
16.90551181102362
 21
9.015894416146061
 31
0.0
  0
LINE
  5
CB
330
1F
100
AcDbEntity
  8
MODELSKETCH_CONSTRUCTION
100
AcDbLine
 10
16.73228346456693
 20
8.228492841342913
 30
0.0
 11
16.73228346456693
 21
9.015894416146061
 31
0.0
  0
LINE
  5
CC
330
1F
100
AcDbEntity
  8
MODELSKETCH_VISIBLE
100
AcDbLine
 10
16.73228346456693
 20
1.929280242917716
 30
0.0
 11
16.73228346456693
 21
1.756051896461022
 31
0.0
  0
LINE
  5
CD
330
1F
100
AcDbEntity
  8
MODELSKETCH_CONSTRUCTION
100
AcDbLine
 10
16.73228346456693
 20
1.929280242917716
 30
0.0
 11
17.51968503937008
 21
1.929280242917716
 31
0.0
  0
LINE
  5
CE
330
1F
100
AcDbEntity
  8
MODELSKETCH_VISIBLE
100
AcDbLine
 10
16.90551181102362
 20
10.59069756575236
 30
0.0
 11
16.90551181102362
 21
10.98439835315394
 31
0.0
  0
LINE
  5
CF
330
1F
100
AcDbEntity
  8
MODELSKETCH_VISIBLE
100
AcDbLine
 10
17.91338582677165
 20
8.008020400398031
 30
0.0
 11
17.91338582677165
 21
7.834792053941339
 31
0.0
  0
LINE
  5
D0
330
1F
100
AcDbEntity
  8
MODELSKETCH_VISIBLE
100
AcDbLine
 10
4.527559055118111
 20
8.008020400398031
 30
0.0
 11
4.527559055118111
 21
7.834792053941338
 31
0.0
  0
LINE
  5
D1
330
1F
100
AcDbEntity
  8
MODELSKETCH_VISIBLE
100
AcDbLine
 10
18.30708661417323
 20
1.929280242917716
 30
0.0
 11
18.30708661417323
 21
1.756051896461022
 31
0.0
  0
LINE
  5
D2
330
1F
100
AcDbEntity
  8
MODELSKETCH_VISIBLE
100
AcDbLine
 10
3.346456692913388
 20
1.756051896461022
 30
0.0
 11
2.952755905511813
 21
1.756051896461022
 31
0.0
  0
LINE
  5
D3
330
1F
100
AcDbEntity
  8
MODELSKETCH_VISIBLE
100
AcDbLine
 10
16.90551181102362
 20
9.803295990949213
 30
0.0
 11
16.90551181102362
 21
10.19699677835079
 31
0.0
  0
LINE
  5
D4
330
1F
100
AcDbEntity
  8
MODELSKETCH_VISIBLE
100
AcDbLine
 10
2.952755905511813
 20
8.008020400398031
 30
0.0
 11
2.952755905511813
 21
7.834792053941339
 31
0.0
  0
LINE
  5
D5
330
1F
100
AcDbEntity
  8
MODELSKETCH_VISIBLE
100
AcDbLine
 10
19.48818897637795
 20
1.756051896461022
 30
0.0
 11
19.48818897637795
 21
1.929280242917714
 31
0.0
  0
LINE
  5
D6
330
1F
100
AcDbEntity
  8
MODELSKETCH_VISIBLE
100
AcDbLine
 10
4.133858267716536
 20
7.834792053941337
 30
0.0
 11
4.133858267716536
 21
8.008020400398031
 31
0.0
  0
LINE
  5
D7
330
1F
100
AcDbEntity
  8
MODELSKETCH_VISIBLE
100
AcDbLine
 10
1.377952755905515
 20
1.756051896461022
 30
0.0
 11
1.377952755905515
 21
1.929280242917714
 31
0.0
  0
LINE
  5
D8
330
1F
100
AcDbEntity
  8
MODELSKETCH_VISIBLE
100
AcDbLine
 10
4.921259842519685
 20
7.834792053941337
 30
0.0
 11
0.984251968503937
 21
7.834792053941336
 31
0.0
  0
LINE
  5
D9
330
1F
100
AcDbEntity
  8
MODELSKETCH_VISIBLE
100
AcDbLine
 10
20.2755905511811
 20
8.008020400398031
 30
0.0
 11
20.2755905511811
 21
7.834792053941339
 31
0.0
  0
LINE
  5
DA
330
1F
100
AcDbEntity
  8
MODELSKETCH_VISIBLE
100
AcDbLine
 10
16.90551181102362
 20
11.77179992795709
 30
0.0
 11
16.73228346456693
 21
11.77179992795709
 31
0.0
  0
LINE
  5
DB
330
1F
100
AcDbEntity
  8
MODELSKETCH_VISIBLE
100
AcDbLine
 10
19.09448818897638
 20
8.008020400398031
 30
0.0
 11
19.48818897637795
 21
8.008020400398031
 31
0.0
  0
LINE
  5
DC
330
1F
100
AcDbEntity
  8
MODELSKETCH_VISIBLE
100
AcDbLine
 10
4.748031496062993
 20
8.622193628744489
 30
0.0
 11
4.921259842519686
 21
8.622193628744489
 31
0.0
  0
LINE
  5
DD
330
1F
100
AcDbEntity
  8
MODELSKETCH_VISIBLE
100
AcDbLine
 10
19.88188976377953
 20
7.834792053941337
 30
0.0
 11
19.88188976377953
 21
8.008020400398031
 31
0.0
  0
LINE
  5
DE
330
1F
100
AcDbEntity
  8
MODELSKETCH_VISIBLE
100
AcDbLine
 10
3.740157480314962
 20
1.756051896461022
 30
0.0
 11
3.740157480314962
 21
1.929280242917714
 31
0.0
  0
LINE
  5
DF
330
1F
100
AcDbEntity
  8
MODELSKETCH_VISIBLE
100
AcDbLine
 10
0.9842519685039388
 20
1.929280242917712
 30
0.0
 11
4.921259842519685
 21
1.929280242917715
 31
0.0
  0
LINE
  5
E0
330
1F
100
AcDbEntity
  8
MODELSKETCH_VISIBLE
100
AcDbLine
 10
18.30708661417323
 20
8.008020400398031
 30
0.0
 11
18.7007874015748
 21
8.008020400398031
 31
0.0
  0
LINE
  5
E1
330
1F
100
AcDbEntity
  8
MODELSKETCH_VISIBLE
100
AcDbLine
 10
4.748031496062993
 20
10.59069756575236
 30
0.0
 11
4.748031496062993
 21
10.98439835315394
 31
0.0
  0
LINE
  5
E2
330
1F
100
AcDbEntity
  8
MODELSKETCH_VISIBLE
100
AcDbLine
 10
4.748031496062993
 20
11.37809914055551
 30
0.0
 11
4.748031496062993
 21
11.77179992795709
 31
0.0
  0
LINE
  5
E3
330
1F
100
AcDbEntity
  8
MODELSKETCH_VISIBLE
100
AcDbLine
 10
16.73228346456693
 20
11.37809914055551
 30
0.0
 11
16.90551181102362
 21
11.37809914055551
 31
0.0
  0
LINE
  5
E4
330
1F
100
AcDbEntity
  8
MODELSKETCH_VISIBLE
100
AcDbLine
 10
16.73228346456693
 20
-2.007727631098033
 30
0.0
 11
16.73228346456693
 21
1.929280242917713
 31
0.0
  0
LINE
  5
E5
330
1F
100
AcDbEntity
  8
MODELSKETCH_CONSTRUCTION
100
AcDbLine
 10
4.921259842519686
 20
8.228492841342913
 30
0.0
 11
4.921259842519686
 21
9.015894416146061
 31
0.0
  0
LINE
  5
E6
330
1F
100
AcDbEntity
  8
MODELSKETCH_VISIBLE
100
AcDbLine
 10
4.748031496062993
 20
0.7481778807129915
 30
0.0
 11
4.748031496062993
 21
0.3544770933114147
 31
0.0
  0
LINE
  5
E7
330
1F
100
AcDbEntity
  8
MODELSKETCH_VISIBLE
100
AcDbLine
 10
4.921259842519686
 20
1.535579455516141
 30
0.0
 11
4.748031496062993
 21
1.535579455516141
 31
0.0
  0
LINE
  5
E8
330
1F
100
AcDbEntity
  8
MODELSKETCH_VISIBLE
100
AcDbLine
 10
16.73228346456693
 20
11.77179992795709
 30
0.0
 11
16.73228346456693
 21
7.83479205394134
 31
0.0
  0
LINE
  5
E9
330
1F
100
AcDbEntity
  8
MODELSKETCH_VISIBLE
100
AcDbLine
 10
19.09448818897638
 20
1.929280242917716
 30
0.0
 11
19.09448818897638
 21
1.756051896461022
 31
0.0
  0
LINE
  5
EA
330
1F
100
AcDbEntity
  8
MODELSKETCH_CONSTRUCTION
100
AcDbLine
 10
16.73228346456693
 20
1.535579455516141
 30
0.0
 11
16.73228346456693
 21
0.7481778807129915
 31
0.0
  0
LINE
  5
EB
330
1F
100
AcDbEntity
  8
MODELSKETCH_VISIBLE
100
AcDbLine
 10
16.73228346456693
 20
-0.0392236940901585
 30
0.0
 11
16.90551181102362
 21
-0.0392236940901585
 31
0.0
  0
LINE
  5
EC
330
1F
100
AcDbEntity
  8
MODELSKETCH_VISIBLE
100
AcDbLine
 10
16.90551181102362
 20
1.141878668114565
 30
0.0
 11
16.73228346456693
 21
1.141878668114565
 31
0.0
  0
LINE
  5
ED
330
1F
100
AcDbEntity
  8
MODELSKETCH_VISIBLE
100
AcDbLine
 10
4.748031496062993
 20
-0.8266252688933085
 30
0.0
 11
4.748031496062993
 21
-1.220326056294884
 31
0.0
  0
LINE
  5
EE
330
1F
100
AcDbEntity
  8
MODELSKETCH_CONSTRUCTION
100
AcDbLine
 10
16.73228346456693
 20
1.535579455516141
 30
0.0
 11
16.90551181102362
 21
1.535579455516141
 31
0.0
  0
LINE
  5
EF
330
1F
100
AcDbEntity
  8
MODELSKETCH_VISIBLE
100
AcDbLine
 10
4.921259842519686
 20
0.7481778807129915
 30
0.0
 11
4.748031496062993
 21
0.7481778807129915
 31
0.0
  0
LINE
  5
F0
330
1F
100
AcDbEntity
  8
MODELSKETCH_VISIBLE
100
AcDbLine
 10
16.73228346456693
 20
8.008020400398031
 30
0.0
 11
17.1259842519685
 21
8.008020400398031
 31
0.0
  0
LINE
  5
F1
330
1F
100
AcDbEntity
  8
MODELSKETCH_VISIBLE
100
AcDbLine
 10
4.748031496062993
 20
1.141878668114565
 30
0.0
 11
4.921259842519686
 21
1.141878668114565
 31
0.0
  0
LINE
  5
F2
330
1F
100
AcDbEntity
  8
MODELSKETCH_CONSTRUCTION
100
AcDbLine
 10
4.921259842519686
 20
1.535579455516141
 30
0.0
 11
4.748031496062993
 21
1.535579455516141
 31
0.0
  0
LINE
  5
F3
330
1F
100
AcDbEntity
  8
MODELSKETCH_VISIBLE
100
AcDbLine
 10
4.921259842519685
 20
7.834792053941336
 30
0.0
 11
4.921259842519685
 21
11.77179992795709
 31
0.0
  0
LINE
  5
F4
330
1F
100
AcDbEntity
  8
MODELSKETCH_VISIBLE
100
AcDbLine
 10
4.748031496062993
 20
10.19699677835079
 30
0.0
 11
4.921259842519686
 21
10.19699677835079
 31
0.0
  0
LINE
  5
F5
330
1F
100
AcDbEntity
  8
MODELSKETCH_CONSTRUCTION
100
AcDbLine
 10
4.921259842519686
 20
8.228492841342913
 30
0.0
 11
4.748031496062993
 21
8.228492841342913
 31
0.0
  0
LINE
  5
F6
330
1F
100
AcDbEntity
  8
MODELSKETCH_VISIBLE
100
AcDbLine
 10
16.90551181102362
 20
9.409595203547639
 30
0.0
 11
16.73228346456693
 21
9.409595203547639
 31
0.0
  0
LINE
  5
F7
330
1F
100
AcDbEntity
  8
MODELSKETCH_VISIBLE
100
AcDbLine
 10
17.51968503937008
 20
7.834792053941337
 30
0.0
 11
17.51968503937008
 21
8.008020400398031
 31
0.0
  0
LINE
  5
F8
330
1F
100
AcDbEntity
  8
MODELSKETCH_VISIBLE
100
AcDbLine
 10
16.90551181102362
 20
-0.8266252688933085
 30
0.0
 11
16.90551181102362
 21
-1.220326056294884
 31
0.0
  0
LINE
  5
F9
330
1F
100
AcDbEntity
  8
MODELSKETCH_VISIBLE
100
AcDbLine
 10
19.88188976377953
 20
1.929280242917716
 30
0.0
 11
19.88188976377953
 21
1.756051896461022
 31
0.0
  0
LINE
  5
FA
330
1F
100
AcDbEntity
  8
MODELSKETCH_VISIBLE
100
AcDbLine
 10
16.73228346456693
 20
1.535579455516141
 30
0.0
 11
16.90551181102362
 21
1.535579455516141
 31
0.0
  0
LINE
  5
FB
330
1F
100
AcDbEntity
  8
MODELSKETCH_VISIBLE
100
AcDbLine
 10
4.748031496062993
 20
-0.4329244814917343
 30
0.0
 11
4.921259842519686
 21
-0.4329244814917343
 31
0.0
  0
LINE
  5
FC
330
1F
100
AcDbEntity
  8
MODELSKETCH_VISIBLE
100
AcDbLine
 10
16.73228346456693
 20
7.834792053941337
 30
0.0
 11
16.73228346456693
 21
8.008020400398031
 31
0.0
  0
LINE
  5
FD
330
1F
100
AcDbEntity
  8
MODELSKETCH_VISIBLE
100
AcDbLine
 10
2.559055118110239
 20
8.008020400398031
 30
0.0
 11
2.165354330708663
 21
8.008020400398031
 31
0.0
  0
LINE
  5
FE
330
1F
100
AcDbEntity
  8
MODELSKETCH_VISIBLE
100
AcDbLine
 10
16.73228346456693
 20
1.929280242917715
 30
0.0
 11
16.73228346456693
 21
7.834792053941337
 31
0.0
  0
LINE
  5
FF
330
1F
100
AcDbEntity
  8
MODELSKETCH_VISIBLE
100
AcDbLine
 10
4.921259842519686
 20
9.803295990949213
 30
0.0
 11
4.748031496062993
 21
9.803295990949213
 31
0.0
  0
LINE
  5
100
330
1F
100
AcDbEntity
  8
MODELSKETCH_VISIBLE
100
AcDbLine
 10
19.88188976377953
 20
1.756051896461022
 30
0.0
 11
20.2755905511811
 21
1.756051896461022
 31
0.0
  0
LINE
  5
101
330
1F
100
AcDbEntity
  8
MODELSKETCH_VISIBLE
100
AcDbLine
 10
4.921259842519685
 20
7.834792053941337
 30
0.0
 11
4.921259842519685
 21
8.008020400398031
 31
0.0
  0
LINE
  5
102
330
1F
100
AcDbEntity
  8
MODELSKETCH_VISIBLE
100
AcDbLine
 10
17.1259842519685
 20
1.756051896461022
 30
0.0
 11
17.1259842519685
 21
1.929280242917716
 31
0.0
  0
LINE
  5
103
330
1F
100
AcDbEntity
  8
MODELSKETCH_VISIBLE
100
AcDbLine
 10
18.30708661417323
 20
1.756051896461022
 30
0.0
 11
18.7007874015748
 21
1.756051896461022
 31
0.0
  0
LINE
  5
104
330
1F
100
AcDbEntity
  8
MODELSKETCH_VISIBLE
100
AcDbLine
 10
16.73228346456693
 20
-1.614026843696458
 30
0.0
 11
16.90551181102362
 21
-1.614026843696458
 31
0.0
  0
LINE
  5
105
330
1F
100
AcDbEntity
  8
MODELSKETCH_VISIBLE
100
AcDbLine
 10
4.748031496062993
 20
1.535579455516141
 30
0.0
 11
4.748031496062993
 21
1.141878668114565
 31
0.0
  0
LINE
  5
106
330
1F
100
AcDbEntity
  8
MODELSKETCH_VISIBLE
100
AcDbLine
 10
2.165354330708663
 20
1.756051896461022
 30
0.0
 11
2.165354330708663
 21
1.929280242917714
 31
0.0
  0
LINE
  5
107
330
1F
100
AcDbEntity
  8
MODELSKETCH_VISIBLE
100
AcDbLine
 10
16.73228346456693
 20
1.929280242917715
 30
0.0
 11
4.921259842519685
 21
1.929280242917713
 31
0.0
  0
LINE
  5
108
330
1F
100
AcDbEntity
  8
MODELSKETCH_VISIBLE
100
AcDbLine
 10
16.73228346456693
 20
7.834792053941337
 30
0.0
 11
4.921259842519685
 21
7.834792053941336
 31
0.0
  0
LINE
  5
109
330
1F
100
AcDbEntity
  8
MODELSKETCH_VISIBLE
100
AcDbLine
 10
4.921259842519684
 20
1.929280242917713
 30
0.0
 11
4.921259842519683
 21
7.834792053941336
 31
0.0
  0
LINE
  5
10A
330
1F
100
AcDbEntity
  8
MODELSKETCH_VISIBLE
100
AcDbLine
 10
4.921259842519685
 20
11.77179992795709
 30
0.0
 11
16.73228346456693
 21
11.77179992795709
 31
0.0
  0
LINE
  5
10B
330
1F
100
AcDbEntity
  8
MODELSKETCH_VISIBLE
100
AcDbLine
 10
16.73228346456693
 20
7.834792053941337
 30
0.0
 11
20.66929133858267
 21
7.834792053941337
 31
0.0
  0
LINE
  5
10C
330
1F
100
AcDbEntity
  8
MODELSKETCH_VISIBLE
100
AcDbLine
 10
20.66929133858267
 20
7.834792053941339
 30
0.0
 11
20.66929133858267
 21
1.929280242917716
 31
0.0
  0
LINE
  5
10D
330
1F
100
AcDbEntity
  8
MODELSKETCH_VISIBLE
100
AcDbLine
 10
4.921259842519685
 20
-2.007727631098029
 30
0.0
 11
16.73228346456693
 21
-2.007727631098029
 31
0.0
  0
LINE
  5
10E
330
1F
100
AcDbEntity
  8
MODELSKETCH_VISIBLE
100
AcDbLine
 10
0.984251968503937
 20
7.834792053941335
 30
0.0
 11
0.984251968503937
 21
1.929280242917712
 31
0.0
  0
CIRCLE
  5
10F
330
1F
100
AcDbEntity
  8
MODELSKETCH_POINT
100
AcDbCircle
 10
16.73228346456693
 20
1.535579455516141
 30
0.0
 40
0.0196850393700787
  0
CIRCLE
  5
110
330
1F
100
AcDbEntity
  8
MODELSKETCH_POINT
100
AcDbCircle
 10
16.73228346456693
 20
8.228492841342913
 30
0.0
 40
0.0196850393700787
  0
CIRCLE
  5
111
330
1F
100
AcDbEntity
  8
MODELSKETCH_POINT
100
AcDbCircle
 10
4.921259842519686
 20
1.535579455516141
 30
0.0
 40
0.0196850393700787
  0
CIRCLE
  5
112
330
1F
100
AcDbEntity
  8
MODELSKETCH_POINT
100
AcDbCircle
 10
4.921259842519686
 20
8.228492841342913
 30
0.0
 40
0.0196850393700787
  0
CIRCLE
  5
113
330
1F
100
AcDbEntity
  8
MODELSKETCH_POINT
100
AcDbCircle
 10
10.82677165354331
 20
4.882036148429527
 30
0.0
 40
0.0196850393700787
  0
CIRCLE
  5
119
330
1F
100
AcDbEntity
  8
MODELSKETCH_VISIBLE
100
AcDbCircle
 10
9.679127744608206
 20
9.417146542332752
 30
0.0
 40
0.078740157480315
  0
CIRCLE
  5
11A
330
1F
100
AcDbEntity
  8
MODELSKETCH_VISIBLE
100
AcDbCircle
 10
12.60326185016465
 20
10.20255450697142
 30
0.0
 40
0.078740157480315
  0
LINE
  5
11B
330
1F
100
AcDbEntity
  8
MODELSKETCH_VISIBLE
100
AcDbLine
 10
8.907474201301119
 20
8.865965439970546
 30
0.0
 11
8.907474201301119
 21
9.417146542332752
 31
0.0
  0
LINE
  5
11C
330
1F
100
AcDbEntity
  8
MODELSKETCH_VISIBLE
100
AcDbLine
 10
12.10432459500191
 20
9.968327644694956
 30
0.0
 11
11.5531434926397
 21
9.968327644694956
 31
0.0
  0
CIRCLE
  5
11D
330
1F
100
AcDbEntity
  8
MODELSKETCH_VISIBLE
100
AcDbCircle
 10
6.043453180911635
 20
9.417146542332752
 30
0.0
 40
0.078740157480315
  0
LINE
  5
11E
330
1F
100
AcDbEntity
  8
MODELSKETCH_CONSTRUCTION
100
AcDbLine
 10
7.475463691106377
 20
10.93184499995475
 30
0.0
 11
7.475463691106377
 21
10.24391819587606
 31
0.0
  0
CIRCLE
  5
11F
330
1F
100
AcDbEntity
  8
MODELSKETCH_VISIBLE
100
AcDbCircle
 10
9.679127744608206
 20
9.968327644694956
 30
0.0
 40
0.078740157480315
  0
LINE
  5
120
330
1F
100
AcDbEntity
  8
MODELSKETCH_VISIBLE
100
AcDbLine
 10
12.10432459500191
 20
9.968327644694956
 30
0.0
 11
12.33855145727838
 21
9.46939038953221
 31
0.0
  0
CIRCLE
  5
121
330
1F
100
AcDbEntity
  8
MODELSKETCH_VISIBLE
100
AcDbCircle
 10
6.043453180911635
 20
9.968327644694956
 30
0.0
 40
0.078740157480315
  0
CIRCLE
  5
122
330
1F
100
AcDbEntity
  8
MODELSKETCH_VISIBLE
100
AcDbCircle
 10
10.23030884697041
 20
9.968327644694956
 30
0.0
 40
0.078740157480315
  0
CIRCLE
  5
123
330
1F
100
AcDbEntity
  8
MODELSKETCH_VISIBLE
100
AcDbCircle
 10
8.907474201301119
 20
9.417146542332752
 30
0.0
 40
0.078740157480315
  0
CIRCLE
  5
124
330
1F
100
AcDbEntity
  8
MODELSKETCH_VISIBLE
100
AcDbCircle
 10
12.60326185016465
 20
10.75373560933363
 30
0.0
 40
0.078740157480315
  0
CIRCLE
  5
125
330
1F
100
AcDbEntity
  8
MODELSKETCH_VISIBLE
100
AcDbCircle
 10
11.5531434926397
 20
9.417146542332752
 30
0.0
 40
0.078740157480315
  0
LINE
  5
126
330
1F
100
AcDbEntity
  8
MODELSKETCH_VISIBLE
100
AcDbLine
 10
6.043453180911635
 20
11.07068984941937
 30
0.0
 11
6.520790017643216
 21
10.79509929823826
 31
0.0
  0
CIRCLE
  5
127
330
1F
100
AcDbEntity
  8
MODELSKETCH_VISIBLE
100
AcDbCircle
 10
8.907474201301119
 20
11.07068984941937
 30
0.0
 40
0.078740157480315
  0
LINE
  5
128
330
1F
100
AcDbEntity
  8
MODELSKETCH_VISIBLE
100
AcDbLine
 10
8.907474201301119
 20
9.968327644694957
 30
0.0
 11
8.907474201301119
 21
9.417146542332752
 31
0.0
  0
CIRCLE
  5
129
330
1F
100
AcDbEntity
  8
MODELSKETCH_VISIBLE
100
AcDbCircle
 10
14.47727759819615
 20
9.968327644694954
 30
0.0
 40
0.078740157480315
  0
LINE
  5
12A
330
1F
100
AcDbEntity
  8
MODELSKETCH_VISIBLE
100
AcDbLine
 10
9.679127744608206
 20
8.865965439970546
 30
0.0
 11
10.23030884697041
 21
8.865965439970546
 31
0.0
  0
LINE
  5
12B
330
1F
100
AcDbEntity
  8
MODELSKETCH_VISIBLE
100
AcDbLine
 10
15.02845870055836
 20
11.07068984941936
 30
0.0
 11
15.57963980292056
 21
11.07068984941936
 31
0.0
  0
CIRCLE
  5
12C
330
1F
100
AcDbEntity
  8
MODELSKETCH_VISIBLE
100
AcDbCircle
 10
14.47727759819615
 20
9.417146542332748
 30
0.0
 40
0.078740157480315
  0
LINE
  5
12D
330
1F
100
AcDbEntity
  8
MODELSKETCH_VISIBLE
100
AcDbLine
 10
14.47727759819615
 20
9.968327644694954
 30
0.0
 11
14.47727759819615
 21
10.51950874705716
 31
0.0
  0
LINE
  5
12E
330
1F
100
AcDbEntity
  8
MODELSKETCH_CONSTRUCTION
100
AcDbLine
 10
11.5531434926397
 20
11.07068984941937
 30
0.0
 11
12.60326185016465
 21
11.07068984941937
 31
0.0
  0
CIRCLE
  5
12F
330
1F
100
AcDbEntity
  8
MODELSKETCH_VISIBLE
100
AcDbCircle
 10
12.10432459500191
 20
9.968327644694956
 30
0.0
 40
0.078740157480315
  0
LINE
  5
130
330
1F
100
AcDbEntity
  8
MODELSKETCH_VISIBLE
100
AcDbLine
 10
8.907474201301119
 20
10.51950874705716
 30
0.0
 11
8.907474201301119
 21
9.968327644694957
 31
0.0
  0
CIRCLE
  5
131
330
1F
100
AcDbEntity
  8
MODELSKETCH_VISIBLE
100
AcDbCircle
 10
8.907474201301119
 20
9.968327644694957
 30
0.0
 40
0.078740157480315
  0
LINE
  5
132
330
1F
100
AcDbEntity
  8
MODELSKETCH_VISIBLE
100
AcDbLine
 10
11.5531434926397
 20
8.865965439970546
 30
0.0
 11
11.5531434926397
 21
9.417146542332752
 31
0.0
  0
LINE
  5
133
330
1F
100
AcDbEntity
  8
MODELSKETCH_VISIBLE
100
AcDbLine
 10
8.907474201301119
 20
11.07068984941937
 30
0.0
 11
8.907474201301119
 21
10.51950874705716
 31
0.0
  0
CIRCLE
  5
134
330
1F
100
AcDbEntity
  8
MODELSKETCH_VISIBLE
100
AcDbCircle
 10
11.5531434926397
 20
11.07068984941937
 30
0.0
 40
0.078740157480315
  0
LINE
  5
135
330
1F
100
AcDbEntity
  8
MODELSKETCH_VISIBLE
100
AcDbLine
 10
11.5531434926397
 20
9.968327644694956
 30
0.0
 11
11.5531434926397
 21
10.51950874705716
 31
0.0
  0
LINE
  5
136
330
1F
100
AcDbEntity
  8
MODELSKETCH_CONSTRUCTION
100
AcDbLine
 10
12.57277831955484
 20
8.970453134369464
 30
0.0
 11
12.62183022849193
 21
8.865965439970546
 31
0.0
  0
LINE
  5
137
330
1F
100
AcDbEntity
  8
MODELSKETCH_VISIBLE
100
AcDbLine
 10
9.679127744608206
 20
9.968327644694956
 30
0.0
 11
10.23030884697041
 21
9.968327644694956
 31
0.0
  0
CIRCLE
  5
138
330
1F
100
AcDbEntity
  8
MODELSKETCH_VISIBLE
100
AcDbCircle
 10
6.043453180911635
 20
11.07068984941937
 30
0.0
 40
0.078740157480315
  0
CIRCLE
  5
139
330
1F
100
AcDbEntity
  8
MODELSKETCH_VISIBLE
100
AcDbCircle
 10
6.043453180911635
 20
8.865965439970545
 30
0.0
 40
0.078740157480315
  0
CIRCLE
  5
13A
330
1F
100
AcDbEntity
  8
MODELSKETCH_VISIBLE
100
AcDbCircle
 10
10.78148994933262
 20
8.865965439970546
 30
0.0
 40
0.078740157480315
  0
LINE
  5
13B
330
1F
100
AcDbEntity
  8
MODELSKETCH_VISIBLE
100
AcDbLine
 10
8.907474201301119
 20
11.07068984941937
 30
0.0
 11
8.43013736456954
 21
10.79509929823827
 31
0.0
  0
LINE
  5
13C
330
1F
100
AcDbEntity
  8
MODELSKETCH_VISIBLE
100
AcDbLine
 10
10.23030884697041
 20
11.07068984941937
 30
0.0
 11
10.78148994933261
 21
11.07068984941937
 31
0.0
  0
LINE
  5
13D
330
1F
100
AcDbEntity
  8
MODELSKETCH_VISIBLE
100
AcDbLine
 10
13.92609649583395
 20
11.07068984941937
 30
0.0
 11
13.37491539347174
 21
11.07068984941937
 31
0.0
  0
CIRCLE
  5
13E
330
1F
100
AcDbEntity
  8
MODELSKETCH_VISIBLE
100
AcDbCircle
 10
12.33855145727838
 20
9.46939038953221
 30
0.0
 40
0.078740157480315
  0
CIRCLE
  5
13F
330
1F
100
AcDbEntity
  8
MODELSKETCH_VISIBLE
100
AcDbCircle
 10
14.47727759819615
 20
8.865965439970546
 30
0.0
 40
0.078740157480315
  0
CIRCLE
  5
140
330
1F
100
AcDbEntity
  8
MODELSKETCH_VISIBLE
100
AcDbCircle
 10
7.475463691106377
 20
10.24391819587606
 30
0.0
 40
0.078740157480315
  0
LINE
  5
141
330
1F
100
AcDbEntity
  8
MODELSKETCH_VISIBLE
100
AcDbLine
 10
11.5531434926397
 20
10.51950874705716
 30
0.0
 11
11.5531434926397
 21
11.07068984941937
 31
0.0
  0
CIRCLE
  5
142
330
1F
100
AcDbEntity
  8
MODELSKETCH_VISIBLE
100
AcDbCircle
 10
15.02845870055836
 20
11.07068984941936
 30
0.0
 40
0.078740157480315
  0
CIRCLE
  5
143
330
1F
100
AcDbEntity
  8
MODELSKETCH_VISIBLE
100
AcDbCircle
 10
11.5531434926397
 20
10.51950874705716
 30
0.0
 40
0.078740157480315
  0
LINE
  5
144
330
1F
100
AcDbEntity
  8
MODELSKETCH_VISIBLE
100
AcDbLine
 10
6.043453180911635
 20
8.865965439970545
 30
0.0
 11
6.043453180911635
 21
9.417146542332752
 31
0.0
  0
LINE
  5
145
330
1F
100
AcDbEntity
  8
MODELSKETCH_VISIBLE
100
AcDbLine
 10
6.043453180911635
 20
10.51950874705716
 30
0.0
 11
6.043453180911635
 21
11.07068984941937
 31
0.0
  0
CIRCLE
  5
146
330
1F
100
AcDbEntity
  8
MODELSKETCH_VISIBLE
100
AcDbCircle
 10
10.23030884697041
 20
11.07068984941937
 30
0.0
 40
0.078740157480315
  0
LINE
  5
147
330
1F
100
AcDbEntity
  8
MODELSKETCH_VISIBLE
100
AcDbLine
 10
14.47727759819615
 20
10.51950874705716
 30
0.0
 11
14.47727759819615
 21
11.07068984941936
 31
0.0
  0
CIRCLE
  5
148
330
1F
100
AcDbEntity
  8
MODELSKETCH_VISIBLE
100
AcDbCircle
 10
9.679127744608206
 20
8.865965439970546
 30
0.0
 40
0.078740157480315
  0
CIRCLE
  5
149
330
1F
100
AcDbEntity
  8
MODELSKETCH_VISIBLE
100
AcDbCircle
 10
9.679127744608206
 20
11.07068984941937
 30
0.0
 40
0.078740157480315
  0
CIRCLE
  5
14A
330
1F
100
AcDbEntity
  8
MODELSKETCH_VISIBLE
100
AcDbCircle
 10
8.907474201301119
 20
10.51950874705716
 30
0.0
 40
0.078740157480315
  0
LINE
  5
14B
330
1F
100
AcDbEntity
  8
MODELSKETCH_VISIBLE
100
AcDbLine
 10
12.60326185016465
 20
10.20255450697142
 30
0.0
 11
12.10432459500191
 21
9.968327644694956
 31
0.0
  0
LINE
  5
14C
330
1F
100
AcDbEntity
  8
MODELSKETCH_VISIBLE
100
AcDbLine
 10
6.043453180911635
 20
9.417146542332752
 30
0.0
 11
6.043453180911635
 21
9.968327644694956
 31
0.0
  0
CIRCLE
  5
14D
330
1F
100
AcDbEntity
  8
MODELSKETCH_VISIBLE
100
AcDbCircle
 10
11.5531434926397
 20
9.968327644694956
 30
0.0
 40
0.078740157480315
  0
LINE
  5
14E
330
1F
100
AcDbEntity
  8
MODELSKETCH_VISIBLE
100
AcDbLine
 10
6.043453180911635
 20
9.968327644694956
 30
0.0
 11
6.043453180911635
 21
10.51950874705716
 31
0.0
  0
LINE
  5
14F
330
1F
100
AcDbEntity
  8
MODELSKETCH_VISIBLE
100
AcDbLine
 10
8.43013736456954
 20
10.79509929823826
 30
0.0
 11
7.952800527837958
 21
10.51950874705716
 31
0.0
  0
CIRCLE
  5
150
330
1F
100
AcDbEntity
  8
MODELSKETCH_VISIBLE
100
AcDbCircle
 10
15.57963980292056
 20
11.07068984941936
 30
0.0
 40
0.078740157480315
  0
LINE
  5
151
330
1F
100
AcDbEntity
  8
MODELSKETCH_VISIBLE
100
AcDbLine
 10
9.679127744608206
 20
8.865965439970546
 30
0.0
 11
9.679127744608206
 21
9.417146542332752
 31
0.0
  0
LINE
  5
152
330
1F
100
AcDbEntity
  8
MODELSKETCH_VISIBLE
100
AcDbLine
 10
9.679127744608206
 20
11.07068984941937
 30
0.0
 11
10.23030884697041
 21
11.07068984941937
 31
0.0
  0
CIRCLE
  5
153
330
1F
100
AcDbEntity
  8
MODELSKETCH_VISIBLE
100
AcDbCircle
 10
10.78148994933261
 20
11.07068984941937
 30
0.0
 40
0.078740157480315
  0
LINE
  5
154
330
1F
100
AcDbEntity
  8
MODELSKETCH_VISIBLE
100
AcDbLine
 10
10.23030884697041
 20
9.968327644694956
 30
0.0
 11
10.78148994933262
 21
9.968327644694956
 31
0.0
  0
CIRCLE
  5
155
330
1F
100
AcDbEntity
  8
MODELSKETCH_VISIBLE
100
AcDbCircle
 10
8.43013736456954
 20
10.79509929823826
 30
0.0
 40
0.078740157480315
  0
LINE
  5
156
330
1F
100
AcDbEntity
  8
MODELSKETCH_VISIBLE
100
AcDbLine
 10
9.679127744608206
 20
10.51950874705716
 30
0.0
 11
9.679127744608206
 21
11.07068984941937
 31
0.0
  0
LINE
  5
157
330
1F
100
AcDbEntity
  8
MODELSKETCH_VISIBLE
100
AcDbLine
 10
14.47727759819615
 20
11.07068984941936
 30
0.0
 11
13.92609649583395
 21
11.07068984941936
 31
0.0
  0
CIRCLE
  5
158
330
1F
100
AcDbEntity
  8
MODELSKETCH_VISIBLE
100
AcDbCircle
 10
7.952800527837958
 20
10.51950874705716
 30
0.0
 40
0.078740157480315
  0
LINE
  5
159
330
1F
100
AcDbEntity
  8
MODELSKETCH_VISIBLE
100
AcDbLine
 10
14.47727759819615
 20
11.07068984941936
 30
0.0
 11
15.02845870055836
 21
11.07068984941936
 31
0.0
  0
LINE
  5
15A
330
1F
100
AcDbEntity
  8
MODELSKETCH_VISIBLE
100
AcDbLine
 10
10.23030884697041
 20
8.865965439970546
 30
0.0
 11
10.78148994933262
 21
8.865965439970546
 31
0.0
  0
CIRCLE
  5
15B
330
1F
100
AcDbEntity
  8
MODELSKETCH_VISIBLE
100
AcDbCircle
 10
8.907474201301119
 20
8.865965439970546
 30
0.0
 40
0.078740157480315
  0
LINE
  5
15C
330
1F
100
AcDbEntity
  8
MODELSKETCH_VISIBLE
100
AcDbLine
 10
11.5531434926397
 20
9.417146542332752
 30
0.0
 11
11.5531434926397
 21
9.968327644694956
 31
0.0
  0
CIRCLE
  5
15D
330
1F
100
AcDbEntity
  8
MODELSKETCH_VISIBLE
100
AcDbCircle
 10
6.998126854374796
 20
10.51950874705716
 30
0.0
 40
0.078740157480315
  0
CIRCLE
  5
15E
330
1F
100
AcDbEntity
  8
MODELSKETCH_VISIBLE
100
AcDbCircle
 10
12.09402519962583
 20
10.96463520949734
 30
0.0
 40
0.078740157480315
  0
LINE
  5
15F
330
1F
100
AcDbEntity
  8
MODELSKETCH_VISIBLE
100
AcDbLine
 10
12.60326185016465
 20
10.75373560933363
 30
0.0
 11
12.60326185016465
 21
10.20255450697142
 31
0.0
  0
CIRCLE
  5
160
330
1F
100
AcDbEntity
  8
MODELSKETCH_VISIBLE
100
AcDbCircle
 10
14.47727759819615
 20
10.51950874705716
 30
0.0
 40
0.078740157480315
  0
LINE
  5
161
330
1F
100
AcDbEntity
  8
MODELSKETCH_VISIBLE
100
AcDbLine
 10
9.679127744608206
 20
9.417146542332752
 30
0.0
 11
9.679127744608206
 21
9.968327644694956
 31
0.0
  0
CIRCLE
  5
162
330
1F
100
AcDbEntity
  8
MODELSKETCH_VISIBLE
100
AcDbCircle
 10
6.520790017643216
 20
10.79509929823826
 30
0.0
 40
0.078740157480315
  0
CIRCLE
  5
163
330
1F
100
AcDbEntity
  8
MODELSKETCH_VISIBLE
100
AcDbCircle
 10
10.23030884697041
 20
8.865965439970546
 30
0.0
 40
0.078740157480315
  0
LINE
  5
164
330
1F
100
AcDbEntity
  8
MODELSKETCH_CONSTRUCTION
100
AcDbLine
 10
12.60326185016465
 20
10.14532843498046
 30
0.0
 11
12.60326185016465
 21
11.07068984941937
 31
0.0
  0
LINE
  5
165
330
1F
100
AcDbEntity
  8
MODELSKETCH_CONSTRUCTION
100
AcDbLine
 10
6.043453180911635
 20
8.865965439970546
 30
0.0
 11
14.47727759819615
 21
8.865965439970546
 31
0.0
  0
LINE
  5
166
330
1F
100
AcDbEntity
  8
MODELSKETCH_VISIBLE
100
AcDbLine
 10
12.09402519962583
 20
10.96463520949734
 30
0.0
 11
12.60326185016465
 21
10.75373560933363
 31
0.0
  0
CIRCLE
  5
167
330
1F
100
AcDbEntity
  8
MODELSKETCH_VISIBLE
100
AcDbCircle
 10
11.5531434926397
 20
8.865965439970546
 30
0.0
 40
0.078740157480315
  0
LINE
  5
168
330
1F
100
AcDbEntity
  8
MODELSKETCH_VISIBLE
100
AcDbLine
 10
6.998126854374796
 20
10.51950874705716
 30
0.0
 11
7.475463691106377
 21
10.24391819587606
 31
0.0
  0
CIRCLE
  5
169
330
1F
100
AcDbEntity
  8
MODELSKETCH_VISIBLE
100
AcDbCircle
 10
13.92609649583395
 20
11.07068984941936
 30
0.0
 40
0.078740157480315
  0
CIRCLE
  5
16A
330
1F
100
AcDbEntity
  8
MODELSKETCH_VISIBLE
100
AcDbCircle
 10
12.57277831955485
 20
8.970453134369464
 30
0.0
 40
0.078740157480315
  0
LINE
  5
16B
330
1F
100
AcDbEntity
  8
MODELSKETCH_VISIBLE
100
AcDbLine
 10
9.679127744608206
 20
9.968327644694956
 30
0.0
 11
9.679127744608206
 21
10.51950874705716
 31
0.0
  0
CIRCLE
  5
16C
330
1F
100
AcDbEntity
  8
MODELSKETCH_VISIBLE
100
AcDbCircle
 10
13.37023069199776
 20
11.0638557873537
 30
0.0
 40
0.078740157480315
  0
LINE
  5
16D
330
1F
100
AcDbEntity
  8
MODELSKETCH_VISIBLE
100
AcDbLine
 10
7.952800527837958
 20
10.51950874705716
 30
0.0
 11
7.475463691106377
 21
10.24391819587606
 31
0.0
  0
CIRCLE
  5
16E
330
1F
100
AcDbEntity
  8
MODELSKETCH_VISIBLE
100
AcDbCircle
 10
9.679127744608206
 20
10.51950874705716
 30
0.0
 40
0.078740157480315
  0
LINE
  5
16F
330
1F
100
AcDbEntity
  8
MODELSKETCH_VISIBLE
100
AcDbLine
 10
14.47727759819615
 20
8.865965439970546
 30
0.0
 11
14.47727759819615
 21
9.417146542332748
 31
0.0
  0
LINE
  5
170
330
1F
100
AcDbEntity
  8
MODELSKETCH_VISIBLE
100
AcDbLine
 10
11.5531434926397
 20
11.07068984941937
 30
0.0
 11
12.09402519962583
 21
10.96463520949734
 31
0.0
  0
CIRCLE
  5
171
330
1F
100
AcDbEntity
  8
MODELSKETCH_VISIBLE
100
AcDbCircle
 10
14.47727759819615
 20
11.07068984941936
 30
0.0
 40
0.078740157480315
  0
LINE
  5
172
330
1F
100
AcDbEntity
  8
MODELSKETCH_VISIBLE
100
AcDbLine
 10
6.520790017643216
 20
10.79509929823826
 30
0.0
 11
6.998126854374796
 21
10.51950874705716
 31
0.0
  0
CIRCLE
  5
173
330
1F
100
AcDbEntity
  8
MODELSKETCH_VISIBLE
100
AcDbCircle
 10
10.78148994933262
 20
9.968327644694956
 30
0.0
 40
0.078740157480315
  0
LINE
  5
174
330
1F
100
AcDbEntity
  8
MODELSKETCH_VISIBLE
100
AcDbLine
 10
14.47727759819615
 20
9.417146542332748
 30
0.0
 11
14.47727759819615
 21
9.968327644694954
 31
0.0
  0
CIRCLE
  5
175
330
1F
100
AcDbEntity
  8
MODELSKETCH_VISIBLE
100
AcDbCircle
 10
6.043453180911635
 20
10.51950874705716
 30
0.0
 40
0.078740157480315
  0
LINE
  5
176
330
1F
100
AcDbEntity
  8
MODELSKETCH_VISIBLE
100
AcDbLine
 10
12.33855145727838
 20
9.46939038953221
 30
0.0
 11
12.57277831955485
 21
8.970453134369464
 31
0.0
  0
CIRCLE
  5
177
330
1F
100
AcDbEntity
  8
MODELSKETCH_POINT
100
AcDbCircle
 10
6.043453180911635
 20
9.417146542332752
 30
0.0
 40
0.0196850393700787
  0
ARC
  5
17A
330
1F
100
AcDbEntity
  8
VISIBLE
100
AcDbCircle
 10
18.22512193141883
 20
10.51572304880878
 30
0.0
 40
0.21817585301836
100
AcDbArc
 50
207.9572681781029
 51
212.042731821897
  0
ARC
  5
17B
330
1F
100
AcDbEntity
  8
VISIBLE
100
AcDbCircle
 10
18.01559947886469
 20
10.40451834757625
 30
0.0
 40
0.0190290029616921
100
AcDbArc
 50
27.95726817810694
 51
113.3751309599845
  0
SPLINE
  5
17C
330
1F
100
AcDbEntity
  8
VISIBLE
100
AcDbSpline
210
0.0
220
0.0
230
1.0
 70
     8
 71
     3
 72
    44
 73
    40
 74
     0
 42
0.000000001
 43
0.0000000016551321
 40
0.0374573816692559
 40
0.0374573816692559
 40
0.0374573816692559
 40
0.0374573816692559
 40
0.1173270388283834
 40
0.1245633749097421
 40
0.133905442774593
 40
0.1449591259385425
 40
0.1574928242534562
 40
0.1713493489450592
 40
0.1864129793246032
 40
0.2025939139161443
 40
0.2198198341683084
 40
0.2380308751317533
 40
0.2571764150177155
 40
0.2772129162632475
 40
0.2981024128312286
 40
0.3198114144576315
 40
0.3423100907832789
 40
0.3655716496568643
 40
0.3895718539492971
 40
0.4142886395604835
 40
0.439701808899202
 40
0.465792781681809
 40
0.4925443899635601
 40
0.5199407077925865
 40
0.547966908311522
 40
0.5766091428695073
 40
0.6058544379685352
 40
0.6356906067974986
 40
0.6661061728017247
 40
0.6970903032611984
 40
0.7286327512528591
 40
0.7607238046834917
 40
0.7933542413228106
 40
0.8265152889579644
 40
0.860198589943057
 40
0.8943961695393762
 40
0.929100407540569
 40
0.9643040127571179
 40
0.9924917445822207
 40
0.9924917445822207
 40
0.9924917445822207
 40
0.9924917445822207
 10
18.00804973136025
 20
10.42198558165424
 30
0.0
 10
17.99690391578421
 20
10.41716809922088
 30
0.0
 10
17.98744869253749
 20
10.41308532703766
 30
0.0
 10
17.98719359947981
 20
10.41299461231257
 30
0.0
 10
17.98691568189754
 20
10.41288904192149
 30
0.0
 10
17.9865861282951
 20
10.41277424112683
 30
0.0
 10
17.98613930072457
 20
10.41262698026094
 30
0.0
 10
17.98559587789421
 20
10.41246045277081
 30
0.0
 10
17.98494793860231
 20
10.41227576365848
 30
0.0
 10
17.98419675364506
 20
10.41207787770652
 30
0.0
 10
17.98334092510066
 20
10.41187060934673
 30
0.0
 10
17.98238001333046
 20
10.4116581500411
 30
0.0
 10
17.98131345288265
 20
10.41144460713094
 30
0.0
 10
17.98014087379871
 20
10.4112341359423
 30
0.0
 10
17.97886200871854
 20
10.41103089708107
 30
0.0
 10
17.97747672042702
 20
10.4108390645926
 30
0.0
 10
17.97598499444043
 20
10.41066281939073
 30
0.0
 10
17.97438694148682
 20
10.41050634689093
 30
0.0
 10
17.97268279704142
 20
10.41037383342985
 30
0.0
 10
17.97087292158255
 20
10.41026946302037
 30
0.0
 10
17.96895780053212
 20
10.41019741400677
 30
0.0
 10
17.96693804417535
 20
10.41016185574632
 30
0.0
 10
17.96481438747786
 20
10.41016694528482
 30
0.0
 10
17.96258768982407
 20
10.41021682403781
 30
0.0
 10
17.96025893467046
 20
10.41031561447741
 30
0.0
 10
17.95782922911655
 20
10.4104674168256
 30
0.0
 10
17.95529980339124
 20
10.41067630576335
 30
0.0
 10
17.9526720102629
 20
10.41094632712852
 30
0.0
 10
17.94994732434333
 20
10.41128149471663
 30
0.0
 10
17.94712734140153
 20
10.41168578675556
 30
0.0
 10
17.94421377724449
 20
10.41216314371018
 30
0.0
 10
17.9412084678643
 20
10.4127174610771
 30
0.0
 10
17.93811336434502
 20
10.41335260146404
 30
0.0
 10
17.93493054743326
 20
10.41407233298179
 30
0.0
 10
17.93166216653902
 20
10.41488054949659
 30
0.0
 10
17.92831066707715
 20
10.41578041412818
 30
0.0
 10
17.92487791657447
 20
10.4167776138189
 30
0.0
 10
17.92161804335098
 20
10.4177904093308
 30
0.0
 10
17.91949405355897
 20
10.41850370926718
 30
0.0
 10
17.91854887216753
 20
10.41882333269368
 30
0.0
  0
ARC
  5
17D
330
1F
100
AcDbEntity
  8
VISIBLE
100
AcDbCircle
 10
18.22512193141883
 20
10.51572304880878
 30
0.0
 40
0.3215223097112862
100
AcDbArc
 50
192.4596186495994
 51
197.540381350439
  0
SPLINE
  5
17E
330
1F
100
AcDbEntity
  8
VISIBLE
100
AcDbSpline
210
0.0
220
0.0
230
1.0
 70
     8
 71
     3
 72
    44
 73
    40
 74
     0
 42
0.000000001
 43
0.0000000016579462
 40
0.0374573816692553
 40
0.0374573816692553
 40
0.0374573816692553
 40
0.0374573816692553
 40
0.1173270388283834
 40
0.1245633749097421
 40
0.133905442774593
 40
0.1449591259385425
 40
0.1574928242534562
 40
0.1713493489450592
 40
0.1864129793246032
 40
0.2025939139161443
 40
0.2198198341683084
 40
0.2380308751317533
 40
0.2571764150177155
 40
0.2772129162632475
 40
0.2981024128312286
 40
0.3198114144576315
 40
0.3423100907832789
 40
0.3655716496568643
 40
0.3895718539492971
 40
0.4142886395604835
 40
0.439701808899202
 40
0.465792781681809
 40
0.4925443899635601
 40
0.5199407077925865
 40
0.547966908311522
 40
0.5766091428695073
 40
0.6058544379685352
 40
0.6356906067974986
 40
0.6661061728017247
 40
0.6970903032611984
 40
0.7286327512528591
 40
0.7607238046834917
 40
0.7933542413228106
 40
0.8265152889579644
 40
0.860198589943057
 40
0.8943961695393762
 40
0.929100407540569
 40
0.9643040127571179
 40
0.992491744585682
 40
0.992491744585682
 40
0.992491744585682
 40
0.992491744585682
 10
17.99026315813544
 20
10.48836597662173
 30
0.0
 10
17.97820185748402
 20
10.48696513100329
 30
0.0
 10
17.9679720078623
 20
10.48577330380846
 30
0.0
 10
17.96770573343147
 20
10.48572431853605
 30
0.0
 10
17.96741226454953
 20
10.48567678638548
 30
0.0
 10
17.96706946236058
 20
10.48561142998881
 30
0.0
 10
17.96660886790045
 20
10.48551554785439
 30
0.0
 10
17.96605498617929
 20
10.48538805347609
 30
0.0
 10
17.96540150973622
 20
10.48522402929322
 30
0.0
 10
17.96465202150433
 20
10.48501981107604
 30
0.0
 10
17.96380721806371
 20
10.48477139646882
 30
0.0
 10
17.9628688144071
 20
10.48447493573967
 30
0.0
 10
17.96183837450954
 20
10.48412658910075
 30
0.0
 10
17.96071765564059
 20
10.48372257295492
 30
0.0
 10
17.95950850656253
 20
10.48325915043169
 30
0.0
 10
17.95821289546627
 20
10.48273263809422
 30
0.0
 10
17.95683290026546
 20
10.48213940792304
 30
0.0
 10
17.95537070956115
 20
10.48147589060605
 30
0.0
 10
17.95382862044918
 20
10.48073857840699
 30
0.0
 10
17.95220903711937
 20
10.47992402810356
 30
0.0
 10
17.95051446913157
 20
10.47902886385445
 30
0.0
 10
17.94874752968693
 20
10.47804978003293
 30
0.0
 10
17.94691093380724
 20
10.47698354401455
 30
0.0
 10
17.945007496449
 20
10.47582699892045
 30
0.0
 10
17.94304013054658
 20
10.47457706631331
 30
0.0
 10
17.94101184498727
 20
10.47323074884646
 30
0.0
 10
17.93892574252104
 20
10.47178513285715
 30
0.0
 10
17.9367850175986
 20
10.47023739093118
 30
0.0
 10
17.93459295416897
 20
10.46858478432557
 30
0.0
 10
17.93235292332259
 20
10.46682466567839
 30
0.0
 10
17.93006838122435
 20
10.4649544803505
 30
0.0
 10
17.92774286563834
 20
10.4629717727389
 30
0.0
 10
17.92537999755677
 20
10.4608741732692
 30
0.0
 10
17.92298346301447
 20
10.45865945903505
 30
0.0
 10
17.92055707038821
 20
10.45632533255435
 30
0.0
 10
17.91810451902926
 20
10.45387027719249
 30
0.0
 10
17.91563026973444
 20
10.45129030167634
 30
0.0
 10
17.91331353446565
 20
10.44878325842237
 30
0.0
 10
17.9118307553165
 20
10.44710352766084
 30
0.0
 10
17.9111720159335
 20
10.44635413495804
 30
0.0
  0
ARC
  5
17F
330
1F
100
AcDbEntity
  8
VISIBLE
100
AcDbCircle
 10
17.98806781422745
 20
10.50726791881934
 30
0.0
 40
0.0190290029616921
100
AcDbArc
 50
276.6248690400224
 51
2.042731821899078
  0
ARC
  5
180
330
1F
100
AcDbEntity
  8
VISIBLE
100
AcDbCircle
 10
18.22512193141882
 20
10.51572304880878
 30
0.0
 40
0.21817585301836
100
AcDbArc
 50
177.9572681781033
 51
182.0427318218968
  0
ARC
  5
181
330
1F
100
AcDbEntity
  8
VISIBLE
100
AcDbCircle
 10
17.98806781422746
 20
10.52417817879823
 30
0.0
 40
0.0190290029616921
100
AcDbArc
 50
357.9572681781005
 51
83.37513095998825
  0
SPLINE
  5
182
330
1F
100
AcDbEntity
  8
VISIBLE
100
AcDbSpline
210
0.0
220
0.0
230
1.0
 70
     8
 71
     3
 72
    44
 73
    40
 74
     0
 42
0.000000001
 43
0.0000000016640821
 40
0.0374573816692561
 40
0.0374573816692561
 40
0.0374573816692561
 40
0.0374573816692561
 40
0.1173270388283834
 40
0.1245633749097421
 40
0.133905442774593
 40
0.1449591259385425
 40
0.1574928242534562
 40
0.1713493489450592
 40
0.1864129793246032
 40
0.2025939139161443
 40
0.2198198341683084
 40
0.2380308751317533
 40
0.2571764150177155
 40
0.2772129162632475
 40
0.2981024128312286
 40
0.3198114144576315
 40
0.3423100907832789
 40
0.3655716496568643
 40
0.3895718539492971
 40
0.4142886395604835
 40
0.439701808899202
 40
0.465792781681809
 40
0.4925443899635601
 40
0.5199407077925865
 40
0.547966908311522
 40
0.5766091428695073
 40
0.6058544379685352
 40
0.6356906067974986
 40
0.6661061728017247
 40
0.6970903032611984
 40
0.7286327512528591
 40
0.7607238046834917
 40
0.7933542413228106
 40
0.8265152889579644
 40
0.860198589943057
 40
0.8943961695393762
 40
0.929100407540569
 40
0.9643040127571179
 40
0.9924917445822207
 40
0.9924917445822207
 40
0.9924917445822207
 40
0.9924917445822207
 10
17.99026315813544
 20
10.54308012099584
 30
0.0
 10
17.97820185748402
 20
10.54448096661428
 30
0.0
 10
17.9679720078623
 20
10.54567279380911
 30
0.0
 10
17.96770573343147
 20
10.54572177908152
 30
0.0
 10
17.96741226454953
 20
10.54576931123209
 30
0.0
 10
17.96706946236058
 20
10.54583466762876
 30
0.0
 10
17.96660886790045
 20
10.54593054976318
 30
0.0
 10
17.96605498617929
 20
10.54605804414148
 30
0.0
 10
17.96540150973622
 20
10.54622206832435
 30
0.0
 10
17.96465202150433
 20
10.54642628654152
 30
0.0
 10
17.96380721806371
 20
10.54667470114875
 30
0.0
 10
17.9628688144071
 20
10.5469711618779
 30
0.0
 10
17.96183837450954
 20
10.54731950851682
 30
0.0
 10
17.96071765564059
 20
10.54772352466265
 30
0.0
 10
17.95950850656253
 20
10.54818694718588
 30
0.0
 10
17.95821289546627
 20
10.54871345952335
 30
0.0
 10
17.95683290026546
 20
10.54930668969453
 30
0.0
 10
17.95537070956115
 20
10.54997020701152
 30
0.0
 10
17.95382862044918
 20
10.55070751921058
 30
0.0
 10
17.95220903711937
 20
10.551522069514
 30
0.0
 10
17.95051446913157
 20
10.55241723376312
 30
0.0
 10
17.94874752968693
 20
10.55339631758464
 30
0.0
 10
17.94691093380724
 20
10.55446255360302
 30
0.0
 10
17.945007496449
 20
10.55561909869711
 30
0.0
 10
17.94304013054658
 20
10.55686903130426
 30
0.0
 10
17.94101184498727
 20
10.5582153487711
 30
0.0
 10
17.93892574252104
 20
10.55966096476042
 30
0.0
 10
17.9367850175986
 20
10.56120870668639
 30
0.0
 10
17.93459295416897
 20
10.562861313292
 30
0.0
 10
17.93235292332259
 20
10.56462143193917
 30
0.0
 10
17.93006838122435
 20
10.56649161726707
 30
0.0
 10
17.92774286563834
 20
10.56847432487867
 30
0.0
 10
17.92537999755677
 20
10.57057192434837
 30
0.0
 10
17.92298346301447
 20
10.57278663858252
 30
0.0
 10
17.92055707038821
 20
10.57512076506322
 30
0.0
 10
17.91810451902926
 20
10.57757582042508
 30
0.0
 10
17.91563026973444
 20
10.58015579594122
 30
0.0
 10
17.91331353446573
 20
10.58266283919511
 30
0.0
 10
17.91183075531666
 20
10.58434256995655
 30
0.0
 10
17.91117201593374
 20
10.58509196265926
 30
0.0
  0
ARC
  5
183
330
1F
100
AcDbEntity
  8
VISIBLE
100
AcDbCircle
 10
18.22512193141883
 20
10.51572304880878
 30
0.0
 40
0.3215223097112862
100
AcDbArc
 50
162.4596186495994
 51
167.5403813504388
  0
SPLINE
  5
184
330
1F
100
AcDbEntity
  8
VISIBLE
100
AcDbSpline
210
0.0
220
0.0
230
1.0
 70
     8
 71
     3
 72
    44
 73
    40
 74
     0
 42
0.000000001
 43
0.0000000016677533
 40
0.0374573816692597
 40
0.0374573816692597
 40
0.0374573816692597
 40
0.0374573816692597
 40
0.1173270388283834
 40
0.1245633749097421
 40
0.133905442774593
 40
0.1449591259385425
 40
0.1574928242534562
 40
0.1713493489450592
 40
0.1864129793246032
 40
0.2025939139161443
 40
0.2198198341683084
 40
0.2380308751317533
 40
0.2571764150177155
 40
0.2772129162632475
 40
0.2981024128312286
 40
0.3198114144576315
 40
0.3423100907832789
 40
0.3655716496568643
 40
0.3895718539492971
 40
0.4142886395604835
 40
0.439701808899202
 40
0.465792781681809
 40
0.4925443899635601
 40
0.5199407077925865
 40
0.547966908311522
 40
0.5766091428695073
 40
0.6058544379685352
 40
0.6356906067974986
 40
0.6661061728017247
 40
0.6970903032611984
 40
0.7286327512528591
 40
0.7607238046834917
 40
0.7933542413228106
 40
0.8265152889579644
 40
0.860198589943057
 40
0.8943961695393762
 40
0.929100407540569
 40
0.9643040127571179
 40
0.992491744585682
 40
0.992491744585682
 40
0.992491744585682
 40
0.992491744585682
 10
18.00804973136024
 20
10.60946051596333
 30
0.0
 10
17.99690391578421
 20
10.61427799839669
 30
0.0
 10
17.98744869253749
 20
10.61836077057991
 30
0.0
 10
17.98719359947981
 20
10.618451485305
 30
0.0
 10
17.98691568189754
 20
10.61855705569608
 30
0.0
 10
17.9865861282951
 20
10.61867185649074
 30
0.0
 10
17.98613930072457
 20
10.61881911735663
 30
0.0
 10
17.98559587789421
 20
10.61898564484676
 30
0.0
 10
17.9849479386023
 20
10.61917033395909
 30
0.0
 10
17.98419675364506
 20
10.61936821991105
 30
0.0
 10
17.98334092510066
 20
10.61957548827084
 30
0.0
 10
17.98238001333046
 20
10.61978794757647
 30
0.0
 10
17.98131345288265
 20
10.62000149048663
 30
0.0
 10
17.98014087379871
 20
10.62021196167527
 30
0.0
 10
17.97886200871854
 20
10.6204152005365
 30
0.0
 10
17.97747672042702
 20
10.62060703302497
 30
0.0
 10
17.97598499444042
 20
10.62078327822684
 30
0.0
 10
17.97438694148682
 20
10.62093975072663
 30
0.0
 10
17.97268279704142
 20
10.62107226418771
 30
0.0
 10
17.97087292158255
 20
10.62117663459719
 30
0.0
 10
17.96895780053212
 20
10.6212486836108
 30
0.0
 10
17.96693804417534
 20
10.62128424187125
 30
0.0
 10
17.96481438747786
 20
10.62127915233275
 30
0.0
 10
17.96258768982407
 20
10.62122927357976
 30
0.0
 10
17.96025893467046
 20
10.62113048314016
 30
0.0
 10
17.95782922911655
 20
10.62097868079197
 30
0.0
 10
17.95529980339124
 20
10.62076979185422
 30
0.0
 10
17.9526720102629
 20
10.62049977048905
 30
0.0
 10
17.94994732434333
 20
10.62016460290094
 30
0.0
 10
17.94712734140152
 20
10.61976031086201
 30
0.0
 10
17.94421377724448
 20
10.61928295390738
 30
0.0
 10
17.9412084678643
 20
10.61872863654046
 30
0.0
 10
17.93811336434501
 20
10.61809349615353
 30
0.0
 10
17.93493054743326
 20
10.61737376463578
 30
0.0
 10
17.93166216653901
 20
10.61656554812098
 30
0.0
 10
17.92831066707715
 20
10.61566568348939
 30
0.0
 10
17.92487791657447
 20
10.61466848379867
 30
0.0
 10
17.92161804335087
 20
10.61365568828673
 30
0.0
 10
17.91949405355874
 20
10.61294238835031
 30
0.0
 10
17.91854887216719
 20
10.61262276492377
 30
0.0
  0
ARC
  5
185
330
1F
100
AcDbEntity
  8
VISIBLE
100
AcDbCircle
 10
18.01559947886468
 20
10.62692775004132
 30
0.0
 40
0.0190290029616921
100
AcDbArc
 50
246.6248690400155
 51
332.0427318219031
  0
ARC
  5
186
330
1F
100
AcDbEntity
  8
VISIBLE
100
AcDbCircle
 10
18.22512193141883
 20
10.51572304880879
 30
0.0
 40
0.21817585301836
100
AcDbArc
 50
147.9572681781029
 51
152.0427318218971
  0
ARC
  5
187
330
1F
100
AcDbEntity
  8
VISIBLE
100
AcDbCircle
 10
18.02405460885413
 20
10.64157246476763
 30
0.0
 40
0.0190290029616921
100
AcDbArc
 50
327.957268178105
 51
53.37513095999519
  0
SPLINE
  5
188
330
1F
100
AcDbEntity
  8
VISIBLE
100
AcDbSpline
210
0.0
220
0.0
230
1.0
 70
     8
 71
     3
 72
    44
 73
    40
 74
     0
 42
0.000000001
 43
0.0000000016769705
 40
0.0374573816692544
 40
0.0374573816692544
 40
0.0374573816692544
 40
0.0374573816692544
 40
0.1173270388283834
 40
0.1245633749097421
 40
0.133905442774593
 40
0.1449591259385425
 40
0.1574928242534562
 40
0.1713493489450592
 40
0.1864129793246032
 40
0.2025939139161443
 40
0.2198198341683084
 40
0.2380308751317533
 40
0.2571764150177155
 40
0.2772129162632475
 40
0.2981024128312286
 40
0.3198114144576315
 40
0.3423100907832789
 40
0.3655716496568643
 40
0.3895718539492971
 40
0.4142886395604835
 40
0.439701808899202
 40
0.465792781681809
 40
0.4925443899635601
 40
0.5199407077925865
 40
0.547966908311522
 40
0.5766091428695073
 40
0.6058544379685352
 40
0.6356906067974986
 40
0.6661061728017247
 40
0.6970903032611984
 40
0.7286327512528591
 40
0.7607238046834917
 40
0.7933542413228106
 40
0.8265152889579644
 40
0.860198589943057
 40
0.8943961695393762
 40
0.929100407540569
 40
0.9643040127571179
 40
0.9924917445822207
 40
0.9924917445822207
 40
0.9924917445822207
 40
0.9924917445822207
 10
18.0354068035473
 20
10.65684435493763
 30
0.0
 10
18.0256618335897
 20
10.66408817315569
 30
0.0
 10
18.01739843753781
 20
10.6702352505942
 30
0.0
 10
18.01719232975254
 20
10.67041081029993
 30
0.0
 10
18.01696194432084
 20
10.6705987087908
 30
0.0
 10
18.01669774711507
 20
10.67082671018509
 30
0.0
 10
18.01634680167897
 20
10.67114004377933
 30
0.0
 10
18.01593087322691
 20
10.67152739801035
 30
0.0
 10
18.01544695811787
 20
10.67199618534109
 30
0.0
 10
18.0148999913778
 20
10.67254778762102
 30
0.0
 10
18.01429257744063
 20
10.67318532270186
 30
0.0
 10
18.01362812639957
 20
10.67391126705283
 30
0.0
 10
18.01290991259068
 20
10.67472816404024
 30
0.0
 10
18.01214134965258
 20
10.67563841172055
 30
0.0
 10
18.01132590709563
 20
10.67664432193737
 30
0.0
 10
18.01046713114158
 20
10.67774810054516
 30
0.0
 10
18.00956863532618
 20
10.6789518505441
 30
0.0
 10
18.00863409968956
 20
10.68025756874862
 30
0.0
 10
18.00766726744322
 20
10.68166714439952
 30
0.0
 10
18.00667194228777
 20
10.68318235731985
 30
0.0
 10
18.00565198548645
 20
10.68480487629403
 30
0.0
 10
18.00461131295121
 20
10.68653625747823
 30
0.0
 10
18.00355389227209
 20
10.68837794289642
 30
0.0
 10
18.0024837397124
 20
10.69033125900765
 30
0.0
 10
18.00140491716594
 20
10.69239741534967
 30
0.0
 10
18.00032152907887
 20
10.69457750325716
 30
0.0
 10
17.99923771934287
 20
10.69687249466114
 30
0.0
 10
17.99815766814051
 20
10.69928324094876
 30
0.0
 10
17.99708558882655
 20
10.70181047196649
 30
0.0
 10
17.99602572453191
 20
10.70445479485181
 30
0.0
 10
17.99498234570277
 20
10.70721669390467
 30
0.0
 10
17.99395974393418
 20
10.7100965268576
 30
0.0
 10
17.9929622398846
 20
10.71309453532611
 30
0.0
 10
17.991994137207
 20
10.71621080138616
 30
0.0
 10
17.99105988279345
 20
10.71944541052722
 30
0.0
 10
17.99016343869344
 20
10.72279782651776
 30
0.0
 10
17.98931066370691
 20
10.7262692755033
 30
0.0
 10
17.98855783373731
 20
10.7295988062839
 30
0.0
 10
17.98811357470673
 20
10.73179488536935
 30
0.0
 10
17.98791778601801
 20
10.73277324817878
 30
0.0
  0
ARC
  5
189
330
1F
100
AcDbEntity
  8
VISIBLE
100
AcDbCircle
 10
18.22512193141883
 20
10.51572304880878
 30
0.0
 40
0.3215223097112862
100
AcDbArc
 50
132.4596186495994
 51
137.5403813504387
  0
ARC
  5
18A
330
1F
100
AcDbEntity
  8
VISIBLE
100
AcDbCircle
 10
18.09927251545998
 20
10.71679037137349
 30
0.0
 40
0.0190290029616921
100
AcDbArc
 50
216.6248690400272
 51
302.042731821904
  0
ARC
  5
18B
330
1F
100
AcDbEntity
  8
VISIBLE
100
AcDbCircle
 10
18.22512193141883
 20
10.51572304880879
 30
0.0
 40
0.21817585301836
100
AcDbArc
 50
117.9572681781018
 51
122.042731821896
  0
ARC
  5
18C
330
1F
100
AcDbEntity
  8
VISIBLE
100
AcDbCircle
 10
18.1139172301863
 20
10.72524550136293
 30
0.0
 40
0.0190290029616921
100
AcDbArc
 50
297.9572681781161
 51
23.37513095998727
  0
SPLINE
  5
18D
330
1F
100
AcDbEntity
  8
VISIBLE
100
AcDbSpline
210
0.0
220
0.0
230
1.0
 70
     8
 71
     3
 72
    44
 73
    40
 74
     0
 42
0.000000001
 43
0.0000000016900527
 40
0.0374573816692564
 40
0.0374573816692564
 40
0.0374573816692564
 40
0.0374573816692564
 40
0.1173270388283834
 40
0.1245633749097421
 40
0.133905442774593
 40
0.1449591259385425
 40
0.1574928242534562
 40
0.1713493489450592
 40
0.1864129793246032
 40
0.2025939139161443
 40
0.2198198341683084
 40
0.2380308751317533
 40
0.2571764150177155
 40
0.2772129162632475
 40
0.2981024128312286
 40
0.3198114144576315
 40
0.3423100907832789
 40
0.3655716496568643
 40
0.3895718539492971
 40
0.4142886395604835
 40
0.439701808899202
 40
0.465792781681809
 40
0.4925443899635601
 40
0.5199407077925865
 40
0.547966908311522
 40
0.5766091428695073
 40
0.6058544379685352
 40
0.6356906067974986
 40
0.6661061728017247
 40
0.6970903032611984
 40
0.7286327512528591
 40
0.7607238046834917
 40
0.7933542413228106
 40
0.8265152889579644
 40
0.860198589943057
 40
0.8943961695393762
 40
0.929100407540569
 40
0.9643040127571179
 40
0.9924917445822207
 40
0.9924917445822207
 40
0.9924917445822207
 40
0.9924917445822207
 10
18.13138446426429
 20
10.73279524886738
 30
0.0
 10
18.12656698183093
 20
10.74394106444341
 30
0.0
 10
18.12248420964772
 20
10.75339628769013
 30
0.0
 10
18.12239349492262
 20
10.75365138074781
 30
0.0
 10
18.12228792453154
 20
10.75392929833008
 30
0.0
 10
18.12217312373688
 20
10.75425885193252
 30
0.0
 10
18.12202586287099
 20
10.75470567950304
 30
0.0
 10
18.12185933538086
 20
10.7552491023334
 30
0.0
 10
18.12167464626853
 20
10.75589704162531
 30
0.0
 10
18.12147676031657
 20
10.75664822658256
 30
0.0
 10
18.12126949195678
 20
10.75750405512695
 30
0.0
 10
18.12105703265115
 20
10.75846496689716
 30
0.0
 10
18.120843489741
 20
10.75953152734497
 30
0.0
 10
18.12063301855235
 20
10.76070410642891
 30
0.0
 10
18.12042977969112
 20
10.76198297150908
 30
0.0
 10
18.12023794720265
 20
10.7633682598006
 30
0.0
 10
18.12006170200078
 20
10.76485998578719
 30
0.0
 10
18.11990522950099
 20
10.7664580387408
 30
0.0
 10
18.11977271603991
 20
10.7681621831862
 30
0.0
 10
18.11966834563043
 20
10.76997205864507
 30
0.0
 10
18.11959629661682
 20
10.7718871796955
 30
0.0
 10
18.11956073835637
 20
10.77390693605227
 30
0.0
 10
18.11956582789487
 20
10.77603059274976
 30
0.0
 10
18.11961570664786
 20
10.77825729040355
 30
0.0
 10
18.11971449708746
 20
10.78058604555716
 30
0.0
 10
18.11986629943565
 20
10.78301575111107
 30
0.0
 10
18.1200751883734
 20
10.78554517683638
 30
0.0
 10
18.12034520973857
 20
10.78817296996472
 30
0.0
 10
18.12068037732668
 20
10.79089765588428
 30
0.0
 10
18.12108466936562
 20
10.7937176388261
 30
0.0
 10
18.12156202632023
 20
10.79663120298314
 30
0.0
 10
18.12211634368716
 20
10.79963651236332
 30
0.0
 10
18.12275148407409
 20
10.8027316158826
 30
0.0
 10
18.12347121559184
 20
10.80591443279436
 30
0.0
 10
18.12427943210664
 20
10.8091828136886
 30
0.0
 10
18.12517929673823
 20
10.81253431315047
 30
0.0
 10
18.12617649642895
 20
10.81596706365315
 30
0.0
 10
18.12718929194085
 20
10.81922693687664
 30
0.0
 10
18.12790259187724
 20
10.82135092666865
 30
0.0
 10
18.12822221530374
 20
10.82229610806009
 30
0.0
  0
ARC
  5
18E
330
1F
100
AcDbEntity
  8
VISIBLE
100
AcDbCircle
 10
18.22512193141883
 20
10.51572304880878
 30
0.0
 40
0.3215223097112862
100
AcDbArc
 50
102.4596186495988
 51
107.5403813504389
  0
ARC
  5
18F
330
1F
100
AcDbEntity
  8
VISIBLE
100
AcDbCircle
 10
18.21666680142939
 20
10.75277716600017
 30
0.0
 40
0.0190290029616921
100
AcDbArc
 50
186.6248690400224
 51
272.0427318218991
  0
ARC
  5
190
330
1F
100
AcDbEntity
  8
VISIBLE
100
AcDbCircle
 10
18.22512193141883
 20
10.5157230488088
 30
0.0
 40
0.21817585301836
100
AcDbArc
 50
87.95726817810231
 51
92.04273182189583
  0
ARC
  5
191
330
1F
100
AcDbEntity
  8
VISIBLE
100
AcDbCircle
 10
18.23357706140828
 20
10.75277716600016
 30
0.0
 40
0.0190290029616921
100
AcDbArc
 50
267.9572681781009
 51
353.3751309599882
  0
ARC
  5
192
330
1F
100
AcDbEntity
  8
VISIBLE
100
AcDbCircle
 10
18.22512193141883
 20
10.51572304880878
 30
0.0
 40
0.3215223097112862
100
AcDbArc
 50
72.4596186495989
 51
77.54038135043886
  0
SPLINE
  5
193
330
1F
100
AcDbEntity
  8
VISIBLE
100
AcDbSpline
210
0.0
220
0.0
230
1.0
 70
     8
 71
     3
 72
    44
 73
    40
 74
     0
 42
0.000000001
 43
0.0000000017053631
 40
0.0374573816692545
 40
0.0374573816692545
 40
0.0374573816692545
 40
0.0374573816692545
 40
0.1173270388283834
 40
0.1245633749097421
 40
0.133905442774593
 40
0.1449591259385425
 40
0.1574928242534562
 40
0.1713493489450592
 40
0.1864129793246032
 40
0.2025939139161443
 40
0.2198198341683084
 40
0.2380308751317533
 40
0.2571764150177155
 40
0.2772129162632475
 40
0.2981024128312286
 40
0.3198114144576315
 40
0.3423100907832789
 40
0.3655716496568643
 40
0.3895718539492971
 40
0.4142886395604835
 40
0.439701808899202
 40
0.465792781681809
 40
0.4925443899635601
 40
0.5199407077925865
 40
0.547966908311522
 40
0.5766091428695073
 40
0.6058544379685352
 40
0.6356906067974986
 40
0.6661061728017247
 40
0.6970903032611984
 40
0.7286327512528591
 40
0.7607238046834917
 40
0.7933542413228106
 40
0.8265152889579644
 40
0.860198589943057
 40
0.8943961695393762
 40
0.929100407540569
 40
0.9643040127571179
 40
0.992491744585682
 40
0.992491744585682
 40
0.992491744585682
 40
0.992491744585682
 10
18.31885939857338
 20
10.73279524886738
 30
0.0
 10
18.32367688100674
 20
10.74394106444341
 30
0.0
 10
18.32775965318996
 20
10.75339628769013
 30
0.0
 10
18.32785036791505
 20
10.75365138074781
 30
0.0
 10
18.32795593830613
 20
10.75392929833008
 30
0.0
 10
18.3280707391008
 20
10.75425885193252
 30
0.0
 10
18.32821799996668
 20
10.75470567950304
 30
0.0
 10
18.32838452745681
 20
10.7552491023334
 30
0.0
 10
18.32856921656914
 20
10.75589704162531
 30
0.0
 10
18.32876710252111
 20
10.75664822658256
 30
0.0
 10
18.32897437088089
 20
10.75750405512696
 30
0.0
 10
18.32918683018652
 20
10.75846496689716
 30
0.0
 10
18.32940037309668
 20
10.75953152734497
 30
0.0
 10
18.32961084428532
 20
10.76070410642891
 30
0.0
 10
18.32981408314655
 20
10.76198297150908
 30
0.0
 10
18.33000591563502
 20
10.7633682598006
 30
0.0
 10
18.33018216083689
 20
10.76485998578719
 30
0.0
 10
18.33033863333669
 20
10.7664580387408
 30
0.0
 10
18.33047114679776
 20
10.7681621831862
 30
0.0
 10
18.33057551720724
 20
10.76997205864507
 30
0.0
 10
18.33064756622085
 20
10.7718871796955
 30
0.0
 10
18.3306831244813
 20
10.77390693605227
 30
0.0
 10
18.3306780349428
 20
10.77603059274976
 30
0.0
 10
18.33062815618981
 20
10.77825729040355
 30
0.0
 10
18.33052936575021
 20
10.78058604555716
 30
0.0
 10
18.33037756340202
 20
10.78301575111107
 30
0.0
 10
18.33016867446427
 20
10.78554517683638
 30
0.0
 10
18.3298986530991
 20
10.78817296996472
 30
0.0
 10
18.329563485511
 20
10.79089765588428
 30
0.0
 10
18.32915919347206
 20
10.7937176388261
 30
0.0
 10
18.32868183651743
 20
10.79663120298314
 30
0.0
 10
18.32812751915051
 20
10.79963651236332
 30
0.0
 10
18.32749237876358
 20
10.8027316158826
 30
0.0
 10
18.32677264724583
 20
10.80591443279436
 30
0.0
 10
18.32596443073103
 20
10.8091828136886
 30
0.0
 10
18.32506456609944
 20
10.81253431315047
 30
0.0
 10
18.32406736640872
 20
10.81596706365315
 30
0.0
 10
18.32305457089679
 20
10.81922693687675
 30
0.0
 10
18.32234127096036
 20
10.82135092666888
 30
0.0
 10
18.32202164753382
 20
10.82229610806043
 30
0.0
  0
ARC
  5
194
330
1F
100
AcDbEntity
  8
VISIBLE
100
AcDbCircle
 10
18.22512193141884
 20
10.51572304880879
 30
0.0
 40
0.21817585301836
100
AcDbArc
 50
57.95726817810318
 51
62.0427318218963
  0
ARC
  5
195
330
1F
100
AcDbEntity
  8
VISIBLE
100
AcDbCircle
 10
18.35097134737769
 20
10.71679037137349
 30
0.0
 40
0.0190290029616921
100
AcDbArc
 50
237.9572681780988
 51
323.3751309599877
  0
SPLINE
  5
196
330
1F
100
AcDbEntity
  8
VISIBLE
100
AcDbSpline
210
0.0
220
0.0
230
1.0
 70
     8
 71
     3
 72
    44
 73
    40
 74
     0
 42
0.000000001
 43
0.0000000017095977
 40
0.0374573816692554
 40
0.0374573816692554
 40
0.0374573816692554
 40
0.0374573816692554
 40
0.1173270388283834
 40
0.1245633749097421
 40
0.133905442774593
 40
0.1449591259385425
 40
0.1574928242534562
 40
0.1713493489450592
 40
0.1864129793246032
 40
0.2025939139161443
 40
0.2198198341683084
 40
0.2380308751317533
 40
0.2571764150177155
 40
0.2772129162632475
 40
0.2981024128312286
 40
0.3198114144576315
 40
0.3423100907832789
 40
0.3655716496568643
 40
0.3895718539492971
 40
0.4142886395604835
 40
0.439701808899202
 40
0.465792781681809
 40
0.4925443899635601
 40
0.5199407077925865
 40
0.547966908311522
 40
0.5766091428695073
 40
0.6058544379685352
 40
0.6356906067974986
 40
0.6661061728017247
 40
0.6970903032611984
 40
0.7286327512528591
 40
0.7607238046834917
 40
0.7933542413228106
 40
0.8265152889579644
 40
0.860198589943057
 40
0.8943961695393762
 40
0.929100407540569
 40
0.9643040127571179
 40
0.9924917445822207
 40
0.9924917445822207
 40
0.9924917445822207
 40
0.9924917445822207
 10
18.36624323754769
 20
10.70543817668032
 30
0.0
 10
18.37348705576574
 20
10.71518314663792
 30
0.0
 10
18.37963413320425
 20
10.72344654268981
 30
0.0
 10
18.37980969290999
 20
10.72365265047508
 30
0.0
 10
18.37999759140085
 20
10.72388303590677
 30
0.0
 10
18.38022559279514
 20
10.72414723311255
 30
0.0
 10
18.38053892638938
 20
10.72449817854865
 30
0.0
 10
18.3809262806204
 20
10.72491410700071
 30
0.0
 10
18.38139506795114
 20
10.72539802210975
 30
0.0
 10
18.38194667023107
 20
10.72594498884982
 30
0.0
 10
18.38258420531191
 20
10.72655240278699
 30
0.0
 10
18.38331014966288
 20
10.72721685382804
 30
0.0
 10
18.38412704665029
 20
10.72793506763694
 30
0.0
 10
18.3850372943306
 20
10.72870363057504
 30
0.0
 10
18.38604320454743
 20
10.72951907313199
 30
0.0
 10
18.38714698315521
 20
10.73037784908604
 30
0.0
 10
18.38835073315416
 20
10.73127634490145
 30
0.0
 10
18.38965645135867
 20
10.73221088053806
 30
0.0
 10
18.39106602700956
 20
10.7331777127844
 30
0.0
 10
18.3925812399299
 20
10.73417303793985
 30
0.0
 10
18.39420375890408
 20
10.73519299474117
 30
0.0
 10
18.39593514008828
 20
10.73623366727642
 30
0.0
 10
18.39777682550647
 20
10.73729108795552
 30
0.0
 10
18.3997301416177
 20
10.73836124051522
 30
0.0
 10
18.40179629795972
 20
10.73944006306168
 30
0.0
 10
18.40397638586722
 20
10.74052345114875
 30
0.0
 10
18.40627137727119
 20
10.74160726088474
 30
0.0
 10
18.40868212355881
 20
10.74268731208711
 30
0.0
 10
18.41120935457654
 20
10.74375939140107
 30
0.0
 10
18.41385367746186
 20
10.74481925569571
 30
0.0
 10
18.41661557651472
 20
10.74586263452485
 30
0.0
 10
18.41949540946765
 20
10.74688523629343
 30
0.0
 10
18.42249341793616
 20
10.74788274034302
 30
0.0
 10
18.42560968399621
 20
10.74885084302062
 30
0.0
 10
18.42884429313727
 20
10.74978509743417
 30
0.0
 10
18.43219670912782
 20
10.75068154153418
 30
0.0
 10
18.43566815811334
 20
10.75153431652071
 30
0.0
 10
18.43899768889396
 20
10.75228714649031
 30
0.0
 10
18.44119376797941
 20
10.75273140552089
 30
0.0
 10
18.44217213078883
 20
10.75292719420961
 30
0.0
  0
ARC
  5
197
330
1F
100
AcDbEntity
  8
VISIBLE
100
AcDbCircle
 10
18.22512193141883
 20
10.51572304880878
 30
0.0
 40
0.3215223097112862
100
AcDbArc
 50
42.45961864959919
 51
47.54038135043867
  0
ARC
  5
198
330
1F
100
AcDbEntity
  8
VISIBLE
100
AcDbCircle
 10
18.22512193141885
 20
10.51572304880879
 30
0.0
 40
0.21817585301836
100
AcDbArc
 50
27.95726817810287
 51
32.04273182189668
  0
ARC
  5
199
330
1F
100
AcDbEntity
  8
VISIBLE
100
AcDbCircle
 10
18.43464438397299
 20
10.62692775004131
 30
0.0
 40
0.0190290029616921
100
AcDbArc
 50
207.9572681781117
 51
293.3751309599845
  0
SPLINE
  5
19A
330
1F
100
AcDbEntity
  8
VISIBLE
100
AcDbSpline
210
0.0
220
0.0
230
1.0
 70
     8
 71
     3
 72
    44
 73
    40
 74
     0
 42
0.000000001
 43
0.0000000017083314
 40
0.0374573816692539
 40
0.0374573816692539
 40
0.0374573816692539
 40
0.0374573816692539
 40
0.1173270388283834
 40
0.1245633749097421
 40
0.133905442774593
 40
0.1449591259385425
 40
0.1574928242534562
 40
0.1713493489450592
 40
0.1864129793246032
 40
0.2025939139161443
 40
0.2198198341683084
 40
0.2380308751317533
 40
0.2571764150177155
 40
0.2772129162632475
 40
0.2981024128312286
 40
0.3198114144576315
 40
0.3423100907832789
 40
0.3655716496568643
 40
0.3895718539492971
 40
0.4142886395604835
 40
0.439701808899202
 40
0.465792781681809
 40
0.4925443899635601
 40
0.5199407077925865
 40
0.547966908311522
 40
0.5766091428695073
 40
0.6058544379685352
 40
0.6356906067974986
 40
0.6661061728017247
 40
0.6970903032611984
 40
0.7286327512528591
 40
0.7607238046834917
 40
0.7933542413228106
 40
0.8265152889579644
 40
0.860198589943057
 40
0.8943961695393762
 40
0.929100407540569
 40
0.9643040127571179
 40
0.9924917445822207
 40
0.9924917445822207
 40
0.9924917445822207
 40
0.9924917445822207
 10
18.44219413147743
 20
10.60946051596332
 30
0.0
 10
18.45333994705346
 20
10.61427799839669
 30
0.0
 10
18.46279517030018
 20
10.6183607705799
 30
0.0
 10
18.46305026335786
 20
10.618451485305
 30
0.0
 10
18.46332818094013
 20
10.61855705569608
 30
0.0
 10
18.46365773454257
 20
10.61867185649074
 30
0.0
 10
18.46410456211309
 20
10.61881911735663
 30
0.0
 10
18.46464798494346
 20
10.61898564484676
 30
0.0
 10
18.46529592423536
 20
10.61917033395909
 30
0.0
 10
18.46604710919261
 20
10.61936821991105
 30
0.0
 10
18.46690293773701
 20
10.61957548827084
 30
0.0
 10
18.46786384950721
 20
10.61978794757647
 30
0.0
 10
18.46893040995503
 20
10.62000149048662
 30
0.0
 10
18.47010298903896
 20
10.62021196167527
 30
0.0
 10
18.47138185411913
 20
10.6204152005365
 30
0.0
 10
18.47276714241065
 20
10.62060703302497
 30
0.0
 10
18.47425886839724
 20
10.62078327822684
 30
0.0
 10
18.47585692135085
 20
10.62093975072663
 30
0.0
 10
18.47756106579625
 20
10.62107226418771
 30
0.0
 10
18.47937094125512
 20
10.62117663459719
 30
0.0
 10
18.48128606230555
 20
10.6212486836108
 30
0.0
 10
18.48330581866232
 20
10.62128424187125
 30
0.0
 10
18.48542947535981
 20
10.62127915233275
 30
0.0
 10
18.4876561730136
 20
10.62122927357975
 30
0.0
 10
18.48998492816721
 20
10.62113048314016
 30
0.0
 10
18.49241463372113
 20
10.62097868079197
 30
0.0
 10
18.49494405944643
 20
10.62076979185422
 30
0.0
 10
18.49757185257477
 20
10.62049977048905
 30
0.0
 10
18.50029653849434
 20
10.62016460290094
 30
0.0
 10
18.50311652143615
 20
10.619760310862
 30
0.0
 10
18.50603008559319
 20
10.61928295390738
 30
0.0
 10
18.50903539497337
 20
10.61872863654046
 30
0.0
 10
18.51213049849265
 20
10.61809349615353
 30
0.0
 10
18.51531331540441
 20
10.61737376463578
 30
0.0
 10
18.51858169629865
 20
10.61656554812098
 30
0.0
 10
18.52193319576052
 20
10.61566568348939
 30
0.0
 10
18.5253659462632
 20
10.61466848379867
 30
0.0
 10
18.52862581948669
 20
10.61365568828677
 30
0.0
 10
18.5307498092787
 20
10.61294238835038
 30
0.0
 10
18.53169499067014
 20
10.61262276492388
 30
0.0
  0
ARC
  5
19B
330
1F
100
AcDbEntity
  8
VISIBLE
100
AcDbCircle
 10
18.22512193141883
 20
10.51572304880878
 30
0.0
 40
0.3215223097112862
100
AcDbArc
 50
12.45961864959933
 51
17.54038135043886
  0
SPLINE
  5
19C
330
1F
100
AcDbEntity
  8
VISIBLE
100
AcDbSpline
210
0.0
220
0.0
230
1.0
 70
     8
 71
     3
 72
    44
 73
    40
 74
     0
 42
0.000000001
 43
0.0000000017066605
 40
0.0374573816692541
 40
0.0374573816692541
 40
0.0374573816692541
 40
0.0374573816692541
 40
0.1173270388283834
 40
0.1245633749097421
 40
0.133905442774593
 40
0.1449591259385425
 40
0.1574928242534562
 40
0.1713493489450592
 40
0.1864129793246032
 40
0.2025939139161443
 40
0.2198198341683084
 40
0.2380308751317533
 40
0.2571764150177155
 40
0.2772129162632475
 40
0.2981024128312286
 40
0.3198114144576315
 40
0.3423100907832789
 40
0.3655716496568643
 40
0.3895718539492971
 40
0.4142886395604835
 40
0.439701808899202
 40
0.465792781681809
 40
0.4925443899635601
 40
0.5199407077925865
 40
0.547966908311522
 40
0.5766091428695073
 40
0.6058544379685352
 40
0.6356906067974986
 40
0.6661061728017247
 40
0.6970903032611984
 40
0.7286327512528591
 40
0.7607238046834917
 40
0.7933542413228106
 40
0.8265152889579644
 40
0.860198589943057
 40
0.8943961695393762
 40
0.929100407540569
 40
0.9643040127571179
 40
0.992491744585682
 40
0.992491744585682
 40
0.992491744585682
 40
0.992491744585682
 10
18.45998070470223
 20
10.54308012099584
 30
0.0
 10
18.47204200535365
 20
10.54448096661428
 30
0.0
 10
18.48227185497537
 20
10.54567279380911
 30
0.0
 10
18.4825381294062
 20
10.54572177908152
 30
0.0
 10
18.48283159828814
 20
10.54576931123209
 30
0.0
 10
18.4831744004771
 20
10.54583466762876
 30
0.0
 10
18.48363499493722
 20
10.54593054976318
 30
0.0
 10
18.48418887665838
 20
10.54605804414148
 30
0.0
 10
18.48484235310145
 20
10.54622206832435
 30
0.0
 10
18.48559184133334
 20
10.54642628654152
 30
0.0
 10
18.48643664477397
 20
10.54667470114875
 30
0.0
 10
18.48737504843057
 20
10.5469711618779
 30
0.0
 10
18.48840548832813
 20
10.54731950851681
 30
0.0
 10
18.48952620719708
 20
10.54772352466265
 30
0.0
 10
18.49073535627514
 20
10.54818694718588
 30
0.0
 10
18.4920309673714
 20
10.54871345952335
 30
0.0
 10
18.49341096257221
 20
10.54930668969453
 30
0.0
 10
18.49487315327652
 20
10.54997020701152
 30
0.0
 10
18.49641524238849
 20
10.55070751921058
 30
0.0
 10
18.49803482571831
 20
10.551522069514
 30
0.0
 10
18.4997293937061
 20
10.55241723376312
 30
0.0
 10
18.50149633315075
 20
10.55339631758464
 30
0.0
 10
18.50333292903044
 20
10.55446255360302
 30
0.0
 10
18.50523636638867
 20
10.55561909869711
 30
0.0
 10
18.50720373229109
 20
10.55686903130426
 30
0.0
 10
18.5092320178504
 20
10.5582153487711
 30
0.0
 10
18.51131812031663
 20
10.55966096476042
 30
0.0
 10
18.51345884523907
 20
10.56120870668639
 30
0.0
 10
18.5156509086687
 20
10.562861313292
 30
0.0
 10
18.51789093951508
 20
10.56462143193917
 30
0.0
 10
18.52017548161332
 20
10.56649161726707
 30
0.0
 10
18.52250099719933
 20
10.56847432487867
 30
0.0
 10
18.52486386528091
 20
10.57057192434837
 30
0.0
 10
18.52726039982321
 20
10.57278663858252
 30
0.0
 10
18.52968679244947
 20
10.57512076506321
 30
0.0
 10
18.53213934380842
 20
10.57757582042508
 30
0.0
 10
18.53461359310323
 20
10.58015579594122
 30
0.0
 10
18.53693032837202
 20
10.5826628391952
 30
0.0
 10
18.53841310752117
 20
10.58434256995673
 30
0.0
 10
18.53907184690417
 20
10.58509196265953
 30
0.0
  0
ARC
  5
19D
330
1F
100
AcDbEntity
  8
VISIBLE
100
AcDbCircle
 10
18.22512193141885
 20
10.51572304880878
 30
0.0
 40
0.21817585301836
100
AcDbArc
 50
357.9572681781033
 51
2.042731821896742
  0
ARC
  5
19E
330
1F
100
AcDbEntity
  8
VISIBLE
100
AcDbCircle
 10
18.46217604861022
 20
10.50726791881934
 30
0.0
 40
0.0190290029616921
100
AcDbArc
 50
177.9572681781013
 51
263.3751309599776
  0
SPLINE
  5
19F
330
1F
100
AcDbEntity
  8
VISIBLE
100
AcDbSpline
210
0.0
220
0.0
230
1.0
 70
     8
 71
     3
 72
    44
 73
    40
 74
     0
 42
0.000000001
 43
0.0000000017006783
 40
0.0374573816692572
 40
0.0374573816692572
 40
0.0374573816692572
 40
0.0374573816692572
 40
0.1173270388283834
 40
0.1245633749097421
 40
0.133905442774593
 40
0.1449591259385425
 40
0.1574928242534562
 40
0.1713493489450592
 40
0.1864129793246032
 40
0.2025939139161443
 40
0.2198198341683084
 40
0.2380308751317533
 40
0.2571764150177155
 40
0.2772129162632475
 40
0.2981024128312286
 40
0.3198114144576315
 40
0.3423100907832789
 40
0.3655716496568643
 40
0.3895718539492971
 40
0.4142886395604835
 40
0.439701808899202
 40
0.465792781681809
 40
0.4925443899635601
 40
0.5199407077925865
 40
0.547966908311522
 40
0.5766091428695073
 40
0.6058544379685352
 40
0.6356906067974986
 40
0.6661061728017247
 40
0.6970903032611984
 40
0.7286327512528591
 40
0.7607238046834917
 40
0.7933542413228106
 40
0.8265152889579644
 40
0.860198589943057
 40
0.8943961695393762
 40
0.929100407540569
 40
0.9643040127571179
 40
0.9924917445822207
 40
0.9924917445822207
 40
0.9924917445822207
 40
0.9924917445822207
 10
18.45998070470223
 20
10.48836597662173
 30
0.0
 10
18.47204200535365
 20
10.48696513100329
 30
0.0
 10
18.48227185497537
 20
10.48577330380846
 30
0.0
 10
18.4825381294062
 20
10.48572431853605
 30
0.0
 10
18.48283159828814
 20
10.48567678638548
 30
0.0
 10
18.4831744004771
 20
10.48561142998881
 30
0.0
 10
18.48363499493722
 20
10.48551554785439
 30
0.0
 10
18.48418887665838
 20
10.48538805347609
 30
0.0
 10
18.48484235310145
 20
10.48522402929322
 30
0.0
 10
18.48559184133334
 20
10.48501981107604
 30
0.0
 10
18.48643664477397
 20
10.48477139646882
 30
0.0
 10
18.48737504843057
 20
10.48447493573967
 30
0.0
 10
18.48840548832813
 20
10.48412658910075
 30
0.0
 10
18.48952620719708
 20
10.48372257295492
 30
0.0
 10
18.49073535627514
 20
10.48325915043169
 30
0.0
 10
18.4920309673714
 20
10.48273263809422
 30
0.0
 10
18.49341096257221
 20
10.48213940792304
 30
0.0
 10
18.49487315327652
 20
10.48147589060605
 30
0.0
 10
18.49641524238849
 20
10.48073857840699
 30
0.0
 10
18.49803482571831
 20
10.47992402810356
 30
0.0
 10
18.4997293937061
 20
10.47902886385445
 30
0.0
 10
18.50149633315075
 20
10.47804978003293
 30
0.0
 10
18.50333292903044
 20
10.47698354401455
 30
0.0
 10
18.50523636638867
 20
10.47582699892045
 30
0.0
 10
18.50720373229109
 20
10.47457706631331
 30
0.0
 10
18.5092320178504
 20
10.47323074884646
 30
0.0
 10
18.51131812031663
 20
10.47178513285715
 30
0.0
 10
18.51345884523907
 20
10.47023739093118
 30
0.0
 10
18.5156509086687
 20
10.46858478432557
 30
0.0
 10
18.51789093951508
 20
10.46682466567839
 30
0.0
 10
18.52017548161332
 20
10.4649544803505
 30
0.0
 10
18.52250099719933
 20
10.4629717727389
 30
0.0
 10
18.52486386528091
 20
10.4608741732692
 30
0.0
 10
18.52726039982321
 20
10.45865945903505
 30
0.0
 10
18.52968679244947
 20
10.45632533255435
 30
0.0
 10
18.53213934380842
 20
10.45387027719249
 30
0.0
 10
18.53461359310323
 20
10.45129030167634
 30
0.0
 10
18.53693032837194
 20
10.44878325842245
 30
0.0
 10
18.538413107521
 20
10.44710352766102
 30
0.0
 10
18.53907184690392
 20
10.44635413495831
 30
0.0
  0
ARC
  5
1A0
330
1F
100
AcDbEntity
  8
VISIBLE
100
AcDbCircle
 10
18.22512193141883
 20
10.51572304880878
 30
0.0
 40
0.3215223097112862
100
AcDbArc
 50
342.4596186495998
 51
347.5403813504389
  0
SPLINE
  5
1A1
330
1F
100
AcDbEntity
  8
VISIBLE
100
AcDbSpline
210
0.0
220
0.0
230
1.0
 70
     8
 71
     3
 72
    44
 73
    40
 74
     0
 42
0.000000001
 43
0.0000000016960121
 40
0.0374573816692548
 40
0.0374573816692548
 40
0.0374573816692548
 40
0.0374573816692548
 40
0.1173270388283834
 40
0.1245633749097421
 40
0.133905442774593
 40
0.1449591259385425
 40
0.1574928242534562
 40
0.1713493489450592
 40
0.1864129793246032
 40
0.2025939139161443
 40
0.2198198341683084
 40
0.2380308751317533
 40
0.2571764150177155
 40
0.2772129162632475
 40
0.2981024128312286
 40
0.3198114144576315
 40
0.3423100907832789
 40
0.3655716496568643
 40
0.3895718539492971
 40
0.4142886395604835
 40
0.439701808899202
 40
0.465792781681809
 40
0.4925443899635601
 40
0.5199407077925865
 40
0.547966908311522
 40
0.5766091428695073
 40
0.6058544379685352
 40
0.6356906067974986
 40
0.6661061728017247
 40
0.6970903032611984
 40
0.7286327512528591
 40
0.7607238046834917
 40
0.7933542413228106
 40
0.8265152889579644
 40
0.860198589943057
 40
0.8943961695393762
 40
0.929100407540569
 40
0.9643040127571179
 40
0.992491744585682
 40
0.992491744585682
 40
0.992491744585682
 40
0.992491744585682
 10
18.44219413147743
 20
10.42198558165424
 30
0.0
 10
18.45333994705346
 20
10.41716809922088
 30
0.0
 10
18.46279517030018
 20
10.41308532703766
 30
0.0
 10
18.46305026335786
 20
10.41299461231257
 30
0.0
 10
18.46332818094014
 20
10.41288904192149
 30
0.0
 10
18.46365773454257
 20
10.41277424112683
 30
0.0
 10
18.46410456211309
 20
10.41262698026094
 30
0.0
 10
18.46464798494346
 20
10.41246045277081
 30
0.0
 10
18.46529592423536
 20
10.41227576365848
 30
0.0
 10
18.46604710919261
 20
10.41207787770652
 30
0.0
 10
18.46690293773701
 20
10.41187060934673
 30
0.0
 10
18.46786384950721
 20
10.4116581500411
 30
0.0
 10
18.46893040995503
 20
10.41144460713094
 30
0.0
 10
18.47010298903896
 20
10.4112341359423
 30
0.0
 10
18.47138185411913
 20
10.41103089708107
 30
0.0
 10
18.47276714241065
 20
10.4108390645926
 30
0.0
 10
18.47425886839724
 20
10.41066281939073
 30
0.0
 10
18.47585692135085
 20
10.41050634689093
 30
0.0
 10
18.47756106579625
 20
10.41037383342986
 30
0.0
 10
18.47937094125513
 20
10.41026946302038
 30
0.0
 10
18.48128606230555
 20
10.41019741400677
 30
0.0
 10
18.48330581866232
 20
10.41016185574632
 30
0.0
 10
18.48542947535981
 20
10.41016694528482
 30
0.0
 10
18.4876561730136
 20
10.41021682403781
 30
0.0
 10
18.48998492816721
 20
10.41031561447741
 30
0.0
 10
18.49241463372113
 20
10.4104674168256
 30
0.0
 10
18.49494405944643
 20
10.41067630576335
 30
0.0
 10
18.49757185257477
 20
10.41094632712852
 30
0.0
 10
18.50029653849434
 20
10.41128149471663
 30
0.0
 10
18.50311652143615
 20
10.41168578675556
 30
0.0
 10
18.50603008559319
 20
10.41216314371018
 30
0.0
 10
18.50903539497337
 20
10.41271746107711
 30
0.0
 10
18.51213049849265
 20
10.41335260146404
 30
0.0
 10
18.51531331540441
 20
10.41407233298179
 30
0.0
 10
18.51858169629865
 20
10.41488054949659
 30
0.0
 10
18.52193319576052
 20
10.41578041412818
 30
0.0
 10
18.5253659462632
 20
10.4167776138189
 30
0.0
 10
18.52862581948681
 20
10.41779040933083
 30
0.0
 10
18.53074980927893
 20
10.41850370926726
 30
0.0
 10
18.53169499067049
 20
10.4188233326938
 30
0.0
  0
ARC
  5
1A2
330
1F
100
AcDbEntity
  8
VISIBLE
100
AcDbCircle
 10
18.43464438397299
 20
10.40451834757625
 30
0.0
 40
0.0190290029616921
100
AcDbArc
 50
66.62486904001551
 51
152.0427318218931
  0
ARC
  5
1A3
330
1F
100
AcDbEntity
  8
VISIBLE
100
AcDbCircle
 10
18.22512193141885
 20
10.51572304880878
 30
0.0
 40
0.21817585301836
100
AcDbArc
 50
327.9572681781029
 51
332.0427318218976
  0
ARC
  5
1A4
330
1F
100
AcDbEntity
  8
VISIBLE
100
AcDbCircle
 10
18.42618925398354
 20
10.38987363284993
 30
0.0
 40
0.0190290029616921
100
AcDbArc
 50
147.9572681781107
 51
233.3751309599866
  0
SPLINE
  5
1A5
330
1F
100
AcDbEntity
  8
VISIBLE
100
AcDbSpline
210
0.0
220
0.0
230
1.0
 70
     8
 71
     3
 72
    44
 73
    40
 74
     0
 42
0.000000001
 43
0.0000000016876432
 40
0.037457381669256
 40
0.037457381669256
 40
0.037457381669256
 40
0.037457381669256
 40
0.1173270388283834
 40
0.1245633749097421
 40
0.133905442774593
 40
0.1449591259385425
 40
0.1574928242534562
 40
0.1713493489450592
 40
0.1864129793246032
 40
0.2025939139161443
 40
0.2198198341683084
 40
0.2380308751317533
 40
0.2571764150177155
 40
0.2772129162632475
 40
0.2981024128312286
 40
0.3198114144576315
 40
0.3423100907832789
 40
0.3655716496568643
 40
0.3895718539492971
 40
0.4142886395604835
 40
0.439701808899202
 40
0.465792781681809
 40
0.4925443899635601
 40
0.5199407077925865
 40
0.547966908311522
 40
0.5766091428695073
 40
0.6058544379685352
 40
0.6356906067974986
 40
0.6661061728017247
 40
0.6970903032611984
 40
0.7286327512528591
 40
0.7607238046834917
 40
0.7933542413228106
 40
0.8265152889579644
 40
0.860198589943057
 40
0.8943961695393762
 40
0.929100407540569
 40
0.9643040127571179
 40
0.9924917445822207
 40
0.9924917445822207
 40
0.9924917445822207
 40
0.9924917445822207
 10
18.41483705929038
 20
10.37460174267994
 30
0.0
 10
18.42458202924796
 20
10.36735792446188
 30
0.0
 10
18.43284542529986
 20
10.36121084702337
 30
0.0
 10
18.43305153308513
 20
10.36103528731764
 30
0.0
 10
18.43328191851683
 20
10.36084738882677
 30
0.0
 10
18.4335461157226
 20
10.36061938743248
 30
0.0
 10
18.4338970611587
 20
10.36030605383824
 30
0.0
 10
18.43431298961076
 20
10.35991869960722
 30
0.0
 10
18.4347969047198
 20
10.35944991227648
 30
0.0
 10
18.43534387145987
 20
10.35889830999655
 30
0.0
 10
18.43595128539705
 20
10.35826077491571
 30
0.0
 10
18.43661573643809
 20
10.35753483056473
 30
0.0
 10
18.43733395024699
 20
10.35671793357733
 30
0.0
 10
18.43810251318509
 20
10.35580768589702
 30
0.0
 10
18.43891795574204
 20
10.35480177568019
 30
0.0
 10
18.43977673169609
 20
10.35369799707241
 30
0.0
 10
18.4406752275115
 20
10.35249424707347
 30
0.0
 10
18.44160976314812
 20
10.35118852886895
 30
0.0
 10
18.44257659539445
 20
10.34977895321805
 30
0.0
 10
18.4435719205499
 20
10.34826374029772
 30
0.0
 10
18.44459187735121
 20
10.34664122132354
 30
0.0
 10
18.44563254988647
 20
10.34490984013934
 30
0.0
 10
18.44668997056558
 20
10.34306815472115
 30
0.0
 10
18.44776012312527
 20
10.34111483860992
 30
0.0
 10
18.44883894567173
 20
10.3390486822679
 30
0.0
 10
18.44992233375881
 20
10.3368685943604
 30
0.0
 10
18.45100614349479
 20
10.33457360295643
 30
0.0
 10
18.45208619469716
 20
10.33216285666881
 30
0.0
 10
18.45315827401112
 20
10.32963562565108
 30
0.0
 10
18.45421813830576
 20
10.32699130276576
 30
0.0
 10
18.45526151713491
 20
10.3242294037129
 30
0.0
 10
18.45628411890348
 20
10.32134957075997
 30
0.0
 10
18.45728162295307
 20
10.31835156229146
 30
0.0
 10
18.45824972563067
 20
10.31523529623141
 30
0.0
 10
18.45918398004422
 20
10.31200068709035
 30
0.0
 10
18.46008042414423
 20
10.30864827109981
 30
0.0
 10
18.46093319913076
 20
10.30517682211427
 30
0.0
 10
18.46168602910036
 20
10.30184729133367
 30
0.0
 10
18.46213028813094
 20
10.29965121224821
 30
0.0
 10
18.46232607681966
 20
10.29867284943879
 30
0.0
  0
ARC
  5
1A6
330
1F
100
AcDbEntity
  8
VISIBLE
100
AcDbCircle
 10
18.22512193141883
 20
10.51572304880878
 30
0.0
 40
0.3215223097112862
100
AcDbArc
 50
312.4596186496003
 51
317.5403813504395
  0
SPLINE
  5
1A7
330
1F
100
AcDbEntity
  8
VISIBLE
100
AcDbSpline
210
0.0
220
0.0
230
1.0
 70
     8
 71
     3
 72
    44
 73
    40
 74
     0
 42
0.000000001
 43
0.0000000016830729
 40
0.0374573816692572
 40
0.0374573816692572
 40
0.0374573816692572
 40
0.0374573816692572
 40
0.1173270388283834
 40
0.1245633749097421
 40
0.133905442774593
 40
0.1449591259385425
 40
0.1574928242534562
 40
0.1713493489450592
 40
0.1864129793246032
 40
0.2025939139161443
 40
0.2198198341683084
 40
0.2380308751317533
 40
0.2571764150177155
 40
0.2772129162632475
 40
0.2981024128312286
 40
0.3198114144576315
 40
0.3423100907832789
 40
0.3655716496568643
 40
0.3895718539492971
 40
0.4142886395604835
 40
0.439701808899202
 40
0.465792781681809
 40
0.4925443899635601
 40
0.5199407077925865
 40
0.547966908311522
 40
0.5766091428695073
 40
0.6058544379685352
 40
0.6356906067974986
 40
0.6661061728017247
 40
0.6970903032611984
 40
0.7286327512528591
 40
0.7607238046834917
 40
0.7933542413228106
 40
0.8265152889579644
 40
0.860198589943057
 40
0.8943961695393762
 40
0.929100407540569
 40
0.9643040127571179
 40
0.992491744585682
 40
0.992491744585682
 40
0.992491744585682
 40
0.992491744585682
 10
18.36624323754769
 20
10.32600792093724
 30
0.0
 10
18.37348705576574
 20
10.31626295097965
 30
0.0
 10
18.37963413320425
 20
10.30799955492776
 30
0.0
 10
18.37980969290999
 20
10.30779344714249
 30
0.0
 10
18.37999759140085
 20
10.30756306171079
 30
0.0
 10
18.38022559279514
 20
10.30729886450502
 30
0.0
 10
18.38053892638938
 20
10.30694791906892
 30
0.0
 10
18.3809262806204
 20
10.30653199061686
 30
0.0
 10
18.38139506795114
 20
10.30604807550782
 30
0.0
 10
18.38194667023107
 20
10.30550110876775
 30
0.0
 10
18.38258420531191
 20
10.30489369483058
 30
0.0
 10
18.38331014966288
 20
10.30422924378952
 30
0.0
 10
18.38412704665029
 20
10.30351102998063
 30
0.0
 10
18.3850372943306
 20
10.30274246704253
 30
0.0
 10
18.38604320454743
 20
10.30192702448558
 30
0.0
 10
18.38714698315521
 20
10.30106824853153
 30
0.0
 10
18.38835073315416
 20
10.30016975271612
 30
0.0
 10
18.38965645135867
 20
10.2992352170795
 30
0.0
 10
18.39106602700956
 20
10.29826838483317
 30
0.0
 10
18.3925812399299
 20
10.29727305967772
 30
0.0
 10
18.39420375890408
 20
10.2962531028764
 30
0.0
 10
18.39593514008828
 20
10.29521243034115
 30
0.0
 10
18.39777682550647
 20
10.29415500966205
 30
0.0
 10
18.3997301416177
 20
10.29308485710235
 30
0.0
 10
18.40179629795972
 20
10.29200603455589
 30
0.0
 10
18.40397638586722
 20
10.29092264646881
 30
0.0
 10
18.40627137727119
 20
10.28983883673282
 30
0.0
 10
18.40868212355881
 20
10.28875878553046
 30
0.0
 10
18.41120935457654
 20
10.2876867062165
 30
0.0
 10
18.41385367746186
 20
10.28662684192186
 30
0.0
 10
18.41661557651472
 20
10.28558346309272
 30
0.0
 10
18.41949540946765
 20
10.28456086132414
 30
0.0
 10
18.42249341793616
 20
10.28356335727455
 30
0.0
 10
18.42560968399621
 20
10.28259525459695
 30
0.0
 10
18.42884429313727
 20
10.2816610001834
 30
0.0
 10
18.43219670912782
 20
10.28076455608339
 30
0.0
 10
18.43566815811334
 20
10.27991178109686
 30
0.0
 10
18.43899768889407
 20
10.27915895112723
 30
0.0
 10
18.44119376797965
 20
10.27871469209663
 30
0.0
 10
18.44217213078919
 20
10.27851890340789
 30
0.0
  0
ARC
  5
1A8
330
1F
100
AcDbEntity
  8
VISIBLE
100
AcDbCircle
 10
18.22512193141884
 20
10.51572304880877
 30
0.0
 40
0.21817585301836
100
AcDbArc
 50
297.9572681781037
 51
302.0427318218979
  0
ARC
  5
1A9
330
1F
100
AcDbEntity
  8
VISIBLE
100
AcDbCircle
 10
18.33632663265136
 20
10.30620059625463
 30
0.0
 40
0.0190290029616921
100
AcDbArc
 50
117.9572681780947
 51
203.3751309599915
  0
SPLINE
  5
1AA
330
1F
100
AcDbEntity
  8
VISIBLE
100
AcDbSpline
210
0.0
220
0.0
230
1.0
 70
     8
 71
     3
 72
    44
 73
    40
 74
     0
 42
0.000000001
 43
0.0000000016726221
 40
0.0374573816692561
 40
0.0374573816692561
 40
0.0374573816692561
 40
0.0374573816692561
 40
0.1173270388283834
 40
0.1245633749097421
 40
0.133905442774593
 40
0.1449591259385425
 40
0.1574928242534562
 40
0.1713493489450592
 40
0.1864129793246032
 40
0.2025939139161443
 40
0.2198198341683084
 40
0.2380308751317533
 40
0.2571764150177155
 40
0.2772129162632475
 40
0.2981024128312286
 40
0.3198114144576315
 40
0.3423100907832789
 40
0.3655716496568643
 40
0.3895718539492971
 40
0.4142886395604835
 40
0.439701808899202
 40
0.465792781681809
 40
0.4925443899635601
 40
0.5199407077925865
 40
0.547966908311522
 40
0.5766091428695073
 40
0.6058544379685352
 40
0.6356906067974986
 40
0.6661061728017247
 40
0.6970903032611984
 40
0.7286327512528591
 40
0.7607238046834917
 40
0.7933542413228106
 40
0.8265152889579644
 40
0.860198589943057
 40
0.8943961695393762
 40
0.929100407540569
 40
0.9643040127571179
 40
0.9924917445822207
 40
0.9924917445822207
 40
0.9924917445822207
 40
0.9924917445822207
 10
18.31885939857338
 20
10.29865084875019
 30
0.0
 10
18.32367688100674
 20
10.28750503317416
 30
0.0
 10
18.32775965318996
 20
10.27804980992743
 30
0.0
 10
18.32785036791505
 20
10.27779471686975
 30
0.0
 10
18.32795593830613
 20
10.27751679928748
 30
0.0
 10
18.3280707391008
 20
10.27718724568505
 30
0.0
 10
18.32821799996668
 20
10.27674041811452
 30
0.0
 10
18.32838452745681
 20
10.27619699528416
 30
0.0
 10
18.32856921656914
 20
10.27554905599225
 30
0.0
 10
18.32876710252111
 20
10.27479787103501
 30
0.0
 10
18.32897437088089
 20
10.27394204249061
 30
0.0
 10
18.32918683018652
 20
10.27298113072041
 30
0.0
 10
18.32940037309668
 20
10.27191457027259
 30
0.0
 10
18.32961084428532
 20
10.27074199118866
 30
0.0
 10
18.32981408314655
 20
10.26946312610849
 30
0.0
 10
18.33000591563502
 20
10.26807783781697
 30
0.0
 10
18.33018216083689
 20
10.26658611183037
 30
0.0
 10
18.33033863333669
 20
10.26498805887677
 30
0.0
 10
18.33047114679776
 20
10.26328391443137
 30
0.0
 10
18.33057551720724
 20
10.2614740389725
 30
0.0
 10
18.33064756622085
 20
10.25955891792207
 30
0.0
 10
18.3306831244813
 20
10.25753916156529
 30
0.0
 10
18.3306780349428
 20
10.25541550486781
 30
0.0
 10
18.33062815618981
 20
10.25318880721402
 30
0.0
 10
18.33052936575021
 20
10.25086005206041
 30
0.0
 10
18.33037756340202
 20
10.2484303465065
 30
0.0
 10
18.33016867446427
 20
10.24590092078119
 30
0.0
 10
18.3298986530991
 20
10.24327312765285
 30
0.0
 10
18.329563485511
 20
10.24054844173328
 30
0.0
 10
18.32915919347206
 20
10.23772845879147
 30
0.0
 10
18.32868183651743
 20
10.23481489463443
 30
0.0
 10
18.32812751915051
 20
10.23180958525425
 30
0.0
 10
18.32749237876358
 20
10.22871448173496
 30
0.0
 10
18.32677264724583
 20
10.22553166482321
 30
0.0
 10
18.32596443073103
 20
10.22226328392897
 30
0.0
 10
18.32506456609944
 20
10.2189117844671
 30
0.0
 10
18.32406736640872
 20
10.21547903396442
 30
0.0
 10
18.32305457089682
 20
10.21221916074093
 30
0.0
 10
18.32234127096044
 20
10.21009517094892
 30
0.0
 10
18.32202164753394
 20
10.20914998955748
 30
0.0
  0
ARC
  5
1AB
330
1F
100
AcDbEntity
  8
VISIBLE
100
AcDbCircle
 10
18.22512193141883
 20
10.51572304880878
 30
0.0
 40
0.3215223097112862
100
AcDbArc
 50
282.4596186496
 51
287.5403813504395
  0
ARC
  5
1AC
330
1F
100
AcDbEntity
  8
VISIBLE
100
AcDbCircle
 10
18.22512193141883
 20
10.51572304880877
 30
0.0
 40
0.21817585301836
100
AcDbArc
 50
267.9572681781042
 51
272.0427318218977
  0
ARC
  5
1AD
330
1F
100
AcDbEntity
  8
VISIBLE
100
AcDbCircle
 10
18.21666680142939
 20
10.2786689316174
 30
0.0
 40
0.0190290029616921
100
AcDbArc
 50
87.95726817810092
 51
173.3751309599883
  0
SPLINE
  5
1AE
330
1F
100
AcDbEntity
  8
VISIBLE
100
AcDbSpline
210
0.0
220
0.0
230
1.0
 70
     8
 71
     3
 72
    44
 73
    40
 74
     0
 42
0.000000001
 43
0.0000000016610976
 40
0.0374573816692555
 40
0.0374573816692555
 40
0.0374573816692555
 40
0.0374573816692555
 40
0.1173270388283834
 40
0.1245633749097421
 40
0.133905442774593
 40
0.1449591259385425
 40
0.1574928242534562
 40
0.1713493489450592
 40
0.1864129793246032
 40
0.2025939139161443
 40
0.2198198341683084
 40
0.2380308751317533
 40
0.2571764150177155
 40
0.2772129162632475
 40
0.2981024128312286
 40
0.3198114144576315
 40
0.3423100907832789
 40
0.3655716496568643
 40
0.3895718539492971
 40
0.4142886395604835
 40
0.439701808899202
 40
0.465792781681809
 40
0.4925443899635601
 40
0.5199407077925865
 40
0.547966908311522
 40
0.5766091428695073
 40
0.6058544379685352
 40
0.6356906067974986
 40
0.6661061728017247
 40
0.6970903032611984
 40
0.7286327512528591
 40
0.7607238046834917
 40
0.7933542413228106
 40
0.8265152889579644
 40
0.860198589943057
 40
0.8943961695393762
 40
0.929100407540569
 40
0.9643040127571179
 40
0.9924917445822207
 40
0.9924917445822207
 40
0.9924917445822207
 40
0.9924917445822207
 10
18.19776485923178
 20
10.28086427552539
 30
0.0
 10
18.19636401361334
 20
10.26880297487397
 30
0.0
 10
18.19517218641851
 20
10.25857312525225
 30
0.0
 10
18.1951232011461
 20
10.25830685082142
 30
0.0
 10
18.19507566899553
 20
10.25801338193948
 30
0.0
 10
18.19501031259886
 20
10.25767057975053
 30
0.0
 10
18.19491443046444
 20
10.2572099852904
 30
0.0
 10
18.19478693608614
 20
10.25665610356924
 30
0.0
 10
18.19462291190327
 20
10.25600262712618
 30
0.0
 10
18.1944186936861
 20
10.25525313889428
 30
0.0
 10
18.19417027907887
 20
10.25440833545365
 30
0.0
 10
18.19387381834972
 20
10.25346993179705
 30
0.0
 10
18.19352547171081
 20
10.25243949189949
 30
0.0
 10
18.19312145556497
 20
10.25131877303054
 30
0.0
 10
18.19265803304175
 20
10.25010962395248
 30
0.0
 10
18.19213152070427
 20
10.24881401285622
 30
0.0
 10
18.19153829053309
 20
10.24743401765541
 30
0.0
 10
18.1908747732161
 20
10.2459718269511
 30
0.0
 10
18.19013746101704
 20
10.24442973783913
 30
0.0
 10
18.18932291071361
 20
10.24281015450931
 30
0.0
 10
18.18842774646451
 20
10.24111558652152
 30
0.0
 10
18.18744866264298
 20
10.23934864707687
 30
0.0
 10
18.1863824266246
 20
10.23751205119718
 30
0.0
 10
18.18522588153051
 20
10.23560861383895
 30
0.0
 10
18.18397594892335
 20
10.23364124793653
 30
0.0
 10
18.18262963145651
 20
10.23161296237722
 30
0.0
 10
18.1811840154672
 20
10.22952685991099
 30
0.0
 10
18.17963627354123
 20
10.22738613498855
 30
0.0
 10
18.17798366693562
 20
10.22519407155892
 30
0.0
 10
18.17622354828845
 20
10.22295404071254
 30
0.0
 10
18.17435336296055
 20
10.2206694986143
 30
0.0
 10
18.17237065534895
 20
10.21834398302829
 30
0.0
 10
18.17027305587925
 20
10.21598111494671
 30
0.0
 10
18.1680583416451
 20
10.21358458040442
 30
0.0
 10
18.1657242151644
 20
10.21115818777815
 30
0.0
 10
18.16326915980254
 20
10.2087056364192
 30
0.0
 10
18.1606891842864
 20
10.20623138712439
 30
0.0
 10
18.1581821410325
 20
10.20391465185568
 30
0.0
 10
18.15650241027107
 20
10.20243187270662
 30
0.0
 10
18.15575301756836
 20
10.20177313332369
 30
0.0
  0
ARC
  5
1AF
330
1F
100
AcDbEntity
  8
VISIBLE
100
AcDbCircle
 10
18.22512193141883
 20
10.51572304880878
 30
0.0
 40
0.3215223097112862
100
AcDbArc
 50
252.4596186496002
 51
257.5403813504388
  0
SPLINE
  5
1B0
330
1F
100
AcDbEntity
  8
VISIBLE
100
AcDbSpline
210
0.0
220
0.0
230
1.0
 70
     8
 71
     3
 72
    44
 73
    40
 74
     0
 42
0.000000001
 43
0.0000000016570091
 40
0.0374573816692579
 40
0.0374573816692579
 40
0.0374573816692579
 40
0.0374573816692579
 40
0.1173270388283834
 40
0.1245633749097421
 40
0.133905442774593
 40
0.1449591259385425
 40
0.1574928242534562
 40
0.1713493489450592
 40
0.1864129793246032
 40
0.2025939139161443
 40
0.2198198341683084
 40
0.2380308751317533
 40
0.2571764150177155
 40
0.2772129162632475
 40
0.2981024128312286
 40
0.3198114144576315
 40
0.3423100907832789
 40
0.3655716496568643
 40
0.3895718539492971
 40
0.4142886395604835
 40
0.439701808899202
 40
0.465792781681809
 40
0.4925443899635601
 40
0.5199407077925865
 40
0.547966908311522
 40
0.5766091428695073
 40
0.6058544379685352
 40
0.6356906067974986
 40
0.6661061728017247
 40
0.6970903032611984
 40
0.7286327512528591
 40
0.7607238046834917
 40
0.7933542413228106
 40
0.8265152889579644
 40
0.860198589943057
 40
0.8943961695393762
 40
0.929100407540569
 40
0.9643040127571179
 40
0.992491744585682
 40
0.992491744585682
 40
0.992491744585682
 40
0.992491744585682
 10
18.13138446426429
 20
10.29865084875019
 30
0.0
 10
18.12656698183093
 20
10.28750503317416
 30
0.0
 10
18.12248420964772
 20
10.27804980992744
 30
0.0
 10
18.12239349492262
 20
10.27779471686975
 30
0.0
 10
18.12228792453154
 20
10.27751679928748
 30
0.0
 10
18.12217312373688
 20
10.27718724568505
 30
0.0
 10
18.12202586287099
 20
10.27674041811452
 30
0.0
 10
18.12185933538086
 20
10.27619699528416
 30
0.0
 10
18.12167464626853
 20
10.27554905599225
 30
0.0
 10
18.12147676031657
 20
10.27479787103501
 30
0.0
 10
18.12126949195678
 20
10.27394204249061
 30
0.0
 10
18.12105703265115
 20
10.27298113072041
 30
0.0
 10
18.120843489741
 20
10.27191457027259
 30
0.0
 10
18.12063301855235
 20
10.27074199118866
 30
0.0
 10
18.12042977969112
 20
10.26946312610849
 30
0.0
 10
18.12023794720265
 20
10.26807783781696
 30
0.0
 10
18.12006170200078
 20
10.26658611183037
 30
0.0
 10
18.11990522950099
 20
10.26498805887677
 30
0.0
 10
18.11977271603991
 20
10.26328391443137
 30
0.0
 10
18.11966834563043
 20
10.2614740389725
 30
0.0
 10
18.11959629661682
 20
10.25955891792207
 30
0.0
 10
18.11956073835637
 20
10.25753916156529
 30
0.0
 10
18.11956582789487
 20
10.25541550486781
 30
0.0
 10
18.11961570664786
 20
10.25318880721402
 30
0.0
 10
18.11971449708746
 20
10.25086005206041
 30
0.0
 10
18.11986629943565
 20
10.2484303465065
 30
0.0
 10
18.1200751883734
 20
10.24590092078119
 30
0.0
 10
18.12034520973857
 20
10.24327312765285
 30
0.0
 10
18.12068037732668
 20
10.24054844173328
 30
0.0
 10
18.12108466936562
 20
10.23772845879147
 30
0.0
 10
18.12156202632024
 20
10.23481489463443
 30
0.0
 10
18.12211634368716
 20
10.23180958525425
 30
0.0
 10
18.12275148407409
 20
10.22871448173496
 30
0.0
 10
18.12347121559184
 20
10.22553166482321
 30
0.0
 10
18.12427943210664
 20
10.22226328392896
 30
0.0
 10
18.12517929673823
 20
10.2189117844671
 30
0.0
 10
18.12617649642895
 20
10.21547903396442
 30
0.0
 10
18.12718929194089
 20
10.21221916074081
 30
0.0
 10
18.12790259187732
 20
10.21009517094869
 30
0.0
 10
18.12822221530385
 20
10.20914998955713
 30
0.0
  0
ARC
  5
1B1
330
1F
100
AcDbEntity
  8
VISIBLE
100
AcDbCircle
 10
18.1139172301863
 20
10.30620059625463
 30
0.0
 40
0.0190290029616921
100
AcDbArc
 50
336.6248690400176
 51
62.0427318218839
  0
ARC
  5
1B2
330
1F
100
AcDbEntity
  8
VISIBLE
100
AcDbCircle
 10
18.22512193141883
 20
10.51572304880877
 30
0.0
 40
0.21817585301836
100
AcDbArc
 50
237.9572681781032
 51
242.0427318218973
  0
ARC
  5
1B3
330
1F
100
AcDbEntity
  8
VISIBLE
100
AcDbCircle
 10
18.09927251545999
 20
10.31465572624408
 30
0.0
 40
0.0190290029616921
100
AcDbArc
 50
57.95726817810505
 51
143.3751309599834
  0
SPLINE
  5
1B4
330
1F
100
AcDbEntity
  8
VISIBLE
100
AcDbSpline
210
0.0
220
0.0
230
1.0
 70
     8
 71
     3
 72
    44
 73
    40
 74
     0
 42
0.000000001
 43
0.0000000016550163
 40
0.037457381669257
 40
0.037457381669257
 40
0.037457381669257
 40
0.037457381669257
 40
0.1173270388283834
 40
0.1245633749097421
 40
0.133905442774593
 40
0.1449591259385425
 40
0.1574928242534562
 40
0.1713493489450592
 40
0.1864129793246032
 40
0.2025939139161443
 40
0.2198198341683084
 40
0.2380308751317533
 40
0.2571764150177155
 40
0.2772129162632475
 40
0.2981024128312286
 40
0.3198114144576315
 40
0.3423100907832789
 40
0.3655716496568643
 40
0.3895718539492971
 40
0.4142886395604835
 40
0.439701808899202
 40
0.465792781681809
 40
0.4925443899635601
 40
0.5199407077925865
 40
0.547966908311522
 40
0.5766091428695073
 40
0.6058544379685352
 40
0.6356906067974986
 40
0.6661061728017247
 40
0.6970903032611984
 40
0.7286327512528591
 40
0.7607238046834917
 40
0.7933542413228106
 40
0.8265152889579644
 40
0.860198589943057
 40
0.8943961695393762
 40
0.929100407540569
 40
0.9643040127571179
 40
0.9924917445822207
 40
0.9924917445822207
 40
0.9924917445822207
 40
0.9924917445822207
 10
18.08400062528999
 20
10.32600792093724
 30
0.0
 10
18.07675680707193
 20
10.31626295097965
 30
0.0
 10
18.07060972963342
 20
10.30799955492776
 30
0.0
 10
18.07043416992769
 20
10.30779344714249
 30
0.0
 10
18.07024627143682
 20
10.30756306171079
 30
0.0
 10
18.07001827004254
 20
10.30729886450502
 30
0.0
 10
18.0697049364483
 20
10.30694791906892
 30
0.0
 10
18.06931758221727
 20
10.30653199061686
 30
0.0
 10
18.06884879488653
 20
10.30604807550782
 30
0.0
 10
18.0682971926066
 20
10.30550110876775
 30
0.0
 10
18.06765965752576
 20
10.30489369483058
 30
0.0
 10
18.06693371317479
 20
10.30422924378952
 30
0.0
 10
18.06611681618738
 20
10.30351102998063
 30
0.0
 10
18.06520656850707
 20
10.30274246704253
 30
0.0
 10
18.06420065829025
 20
10.30192702448558
 30
0.0
 10
18.06309687968245
 20
10.30106824853153
 30
0.0
 10
18.06189312968352
 20
10.30016975271612
 30
0.0
 10
18.06058741147901
 20
10.29923521707951
 30
0.0
 10
18.05917783582811
 20
10.29826838483317
 30
0.0
 10
18.05766262290778
 20
10.29727305967772
 30
0.0
 10
18.05604010393359
 20
10.2962531028764
 30
0.0
 10
18.05430872274939
 20
10.29521243034115
 30
0.0
 10
18.0524670373312
 20
10.29415500966204
 30
0.0
 10
18.05051372121997
 20
10.29308485710235
 30
0.0
 10
18.04844756487795
 20
10.29200603455589
 30
0.0
 10
18.04626747697046
 20
10.29092264646881
 30
0.0
 10
18.04397248556648
 20
10.28983883673282
 30
0.0
 10
18.04156173927886
 20
10.28875878553046
 30
0.0
 10
18.03903450826113
 20
10.2876867062165
 30
0.0
 10
18.03639018537582
 20
10.28662684192186
 30
0.0
 10
18.03362828632295
 20
10.28558346309271
 30
0.0
 10
18.03074845337002
 20
10.28456086132413
 30
0.0
 10
18.02775044490151
 20
10.28356335727455
 30
0.0
 10
18.02463417884146
 20
10.28259525459695
 30
0.0
 10
18.0213995697004
 20
10.2816610001834
 30
0.0
 10
18.01804715370986
 20
10.28076455608339
 30
0.0
 10
18.01457570472433
 20
10.27991178109686
 30
0.0
 10
18.01124617394372
 20
10.27915895112726
 30
0.0
 10
18.00905009485827
 20
10.27871469209668
 30
0.0
 10
18.00807173204885
 20
10.27851890340796
 30
0.0
  0
ARC
  5
1B5
330
1F
100
AcDbEntity
  8
VISIBLE
100
AcDbCircle
 10
18.22512193141883
 20
10.51572304880878
 30
0.0
 40
0.3215223097112862
100
AcDbArc
 50
222.4596186496005
 51
227.5403813504398
  0
SPLINE
  5
1B6
330
1F
100
AcDbEntity
  8
VISIBLE
100
AcDbSpline
210
0.0
220
0.0
230
1.0
 70
     8
 71
     3
 72
    44
 73
    40
 74
     0
 42
0.000000001
 43
0.0000000016542761
 40
0.0374573816692548
 40
0.0374573816692548
 40
0.0374573816692548
 40
0.0374573816692548
 40
0.1173270388283834
 40
0.1245633749097421
 40
0.133905442774593
 40
0.1449591259385425
 40
0.1574928242534562
 40
0.1713493489450592
 40
0.1864129793246032
 40
0.2025939139161443
 40
0.2198198341683084
 40
0.2380308751317533
 40
0.2571764150177155
 40
0.2772129162632475
 40
0.2981024128312286
 40
0.3198114144576315
 40
0.3423100907832789
 40
0.3655716496568643
 40
0.3895718539492971
 40
0.4142886395604835
 40
0.439701808899202
 40
0.465792781681809
 40
0.4925443899635601
 40
0.5199407077925865
 40
0.547966908311522
 40
0.5766091428695073
 40
0.6058544379685352
 40
0.6356906067974986
 40
0.6661061728017247
 40
0.6970903032611984
 40
0.7286327512528591
 40
0.7607238046834917
 40
0.7933542413228106
 40
0.8265152889579644
 40
0.860198589943057
 40
0.8943961695393762
 40
0.929100407540569
 40
0.9643040127571179
 40
0.992491744585682
 40
0.992491744585682
 40
0.992491744585682
 40
0.992491744585682
 10
18.0354068035473
 20
10.37460174267993
 30
0.0
 10
18.02566183358971
 20
10.36735792446188
 30
0.0
 10
18.01739843753781
 20
10.36121084702337
 30
0.0
 10
18.01719232975254
 20
10.36103528731764
 30
0.0
 10
18.01696194432085
 20
10.36084738882677
 30
0.0
 10
18.01669774711507
 20
10.36061938743248
 30
0.0
 10
18.01634680167897
 20
10.36030605383824
 30
0.0
 10
18.01593087322691
 20
10.35991869960722
 30
0.0
 10
18.01544695811787
 20
10.35944991227648
 30
0.0
 10
18.0148999913778
 20
10.35889830999655
 30
0.0
 10
18.01429257744063
 20
10.35826077491571
 30
0.0
 10
18.01362812639957
 20
10.35753483056473
 30
0.0
 10
18.01290991259068
 20
10.35671793357733
 30
0.0
 10
18.01214134965258
 20
10.35580768589702
 30
0.0
 10
18.01132590709563
 20
10.35480177568019
 30
0.0
 10
18.01046713114158
 20
10.35369799707241
 30
0.0
 10
18.00956863532618
 20
10.35249424707347
 30
0.0
 10
18.00863409968956
 20
10.35118852886895
 30
0.0
 10
18.00766726744322
 20
10.34977895321805
 30
0.0
 10
18.00667194228777
 20
10.34826374029772
 30
0.0
 10
18.00565198548645
 20
10.34664122132353
 30
0.0
 10
18.00461131295121
 20
10.34490984013934
 30
0.0
 10
18.00355389227209
 20
10.34306815472115
 30
0.0
 10
18.0024837397124
 20
10.34111483860992
 30
0.0
 10
18.00140491716594
 20
10.3390486822679
 30
0.0
 10
18.00032152907887
 20
10.3368685943604
 30
0.0
 10
17.99923771934288
 20
10.33457360295643
 30
0.0
 10
17.99815766814051
 20
10.33216285666881
 30
0.0
 10
17.99708558882655
 20
10.32963562565108
 30
0.0
 10
17.99602572453191
 20
10.32699130276576
 30
0.0
 10
17.99498234570277
 20
10.3242294037129
 30
0.0
 10
17.99395974393419
 20
10.32134957075997
 30
0.0
 10
17.9929622398846
 20
10.31835156229146
 30
0.0
 10
17.991994137207
 20
10.31523529623141
 30
0.0
 10
17.99105988279345
 20
10.31200068709035
 30
0.0
 10
17.99016343869344
 20
10.30864827109981
 30
0.0
 10
17.98931066370691
 20
10.30517682211427
 30
0.0
 10
17.98855783373728
 20
10.30184729133355
 30
0.0
 10
17.98811357470669
 20
10.29965121224797
 30
0.0
 10
17.98791778601794
 20
10.29867284943843
 30
0.0
  0
ARC
  5
1B7
330
1F
100
AcDbEntity
  8
VISIBLE
100
AcDbCircle
 10
18.02405460885413
 20
10.38987363284993
 30
0.0
 40
0.0190290029616921
100
AcDbArc
 50
306.6248690400198
 51
32.04273182190516
  0
ARC
  5
1B8
330
1F
100
AcDbEntity
  8
VISIBLE
100
AcDbCircle
 10
18.35097134737769
 20
10.31465572624408
 30
0.0
 40
0.0190290029616921
100
AcDbArc
 50
36.6248690400166
 51
122.0427318218949
  0
ARC
  5
1B9
330
1F
100
AcDbEntity
  8
VISIBLE
100
AcDbCircle
 10
18.46217604861022
 20
10.52417817879823
 30
0.0
 40
0.0190290029616921
100
AcDbArc
 50
96.62486904002238
 51
182.0427318218995
  0
SPLINE
  5
1BA
330
1F
100
AcDbEntity
  8
VISIBLE
100
AcDbSpline
210
0.0
220
0.0
230
1.0
 70
     8
 71
     3
 72
    44
 73
    40
 74
     0
 42
0.000000001
 43
0.0000000016956125
 40
0.0374573816692548
 40
0.0374573816692548
 40
0.0374573816692548
 40
0.0374573816692548
 40
0.1173270388283834
 40
0.1245633749097421
 40
0.133905442774593
 40
0.1449591259385425
 40
0.1574928242534562
 40
0.1713493489450592
 40
0.1864129793246032
 40
0.2025939139161443
 40
0.2198198341683084
 40
0.2380308751317533
 40
0.2571764150177155
 40
0.2772129162632475
 40
0.2981024128312286
 40
0.3198114144576315
 40
0.3423100907832789
 40
0.3655716496568643
 40
0.3895718539492971
 40
0.4142886395604835
 40
0.439701808899202
 40
0.465792781681809
 40
0.4925443899635601
 40
0.5199407077925865
 40
0.547966908311522
 40
0.5766091428695073
 40
0.6058544379685352
 40
0.6356906067974986
 40
0.6661061728017247
 40
0.6970903032611984
 40
0.7286327512528591
 40
0.7607238046834917
 40
0.7933542413228106
 40
0.8265152889579644
 40
0.860198589943057
 40
0.8943961695393762
 40
0.929100407540569
 40
0.9643040127571179
 40
0.992491744585682
 40
0.992491744585682
 40
0.992491744585682
 40
0.992491744585682
 10
18.19776485923178
 20
10.75058182209218
 30
0.0
 10
18.19636401361334
 20
10.7626431227436
 30
0.0
 10
18.19517218641851
 20
10.77287297236532
 30
0.0
 10
18.1951232011461
 20
10.77313924679615
 30
0.0
 10
18.19507566899553
 20
10.77343271567809
 30
0.0
 10
18.19501031259886
 20
10.77377551786704
 30
0.0
 10
18.19491443046444
 20
10.77423611232717
 30
0.0
 10
18.19478693608614
 20
10.77478999404832
 30
0.0
 10
18.19462291190327
 20
10.77544347049139
 30
0.0
 10
18.1944186936861
 20
10.77619295872329
 30
0.0
 10
18.19417027907888
 20
10.77703776216391
 30
0.0
 10
18.19387381834972
 20
10.77797616582052
 30
0.0
 10
18.19352547171081
 20
10.77900660571808
 30
0.0
 10
18.19312145556497
 20
10.78012732458703
 30
0.0
 10
18.19265803304175
 20
10.78133647366509
 30
0.0
 10
18.19213152070427
 20
10.78263208476135
 30
0.0
 10
18.19153829053309
 20
10.78401207996216
 30
0.0
 10
18.1908747732161
 20
10.78547427066647
 30
0.0
 10
18.19013746101704
 20
10.78701635977844
 30
0.0
 10
18.18932291071361
 20
10.78863594310825
 30
0.0
 10
18.18842774646451
 20
10.79033051109605
 30
0.0
 10
18.18744866264298
 20
10.79209745054069
 30
0.0
 10
18.1863824266246
 20
10.79393404642038
 30
0.0
 10
18.18522588153051
 20
10.79583748377862
 30
0.0
 10
18.18397594892335
 20
10.79780484968104
 30
0.0
 10
18.18262963145651
 20
10.79983313524035
 30
0.0
 10
18.1811840154672
 20
10.80191923770658
 30
0.0
 10
18.17963627354123
 20
10.80405996262902
 30
0.0
 10
18.17798366693562
 20
10.80625202605865
 30
0.0
 10
18.17622354828845
 20
10.80849205690503
 30
0.0
 10
18.17435336296055
 20
10.81077659900327
 30
0.0
 10
18.17237065534895
 20
10.81310211458928
 30
0.0
 10
18.17027305587925
 20
10.81546498267085
 30
0.0
 10
18.1680583416451
 20
10.81786151721315
 30
0.0
 10
18.1657242151644
 20
10.82028790983941
 30
0.0
 10
18.16326915980254
 20
10.82274046119836
 30
0.0
 10
18.1606891842864
 20
10.82521471049318
 30
0.0
 10
18.15818214103242
 20
10.82753144576197
 30
0.0
 10
18.15650241027089
 20
10.82901422491112
 30
0.0
 10
18.15575301756809
 20
10.82967296429412
 30
0.0
  0
SPLINE
  5
1BB
330
1F
100
AcDbEntity
  8
VISIBLE
100
AcDbSpline
210
0.0
220
0.0
230
1.0
 70
     8
 71
     3
 72
    44
 73
    40
 74
     0
 42
0.000000001
 43
0.0000000017030447
 40
0.0374573816692558
 40
0.0374573816692558
 40
0.0374573816692558
 40
0.0374573816692558
 40
0.1173270388283834
 40
0.1245633749097421
 40
0.133905442774593
 40
0.1449591259385425
 40
0.1574928242534562
 40
0.1713493489450592
 40
0.1864129793246032
 40
0.2025939139161443
 40
0.2198198341683084
 40
0.2380308751317533
 40
0.2571764150177155
 40
0.2772129162632475
 40
0.2981024128312286
 40
0.3198114144576315
 40
0.3423100907832789
 40
0.3655716496568643
 40
0.3895718539492971
 40
0.4142886395604835
 40
0.439701808899202
 40
0.465792781681809
 40
0.4925443899635601
 40
0.5199407077925865
 40
0.547966908311522
 40
0.5766091428695073
 40
0.6058544379685352
 40
0.6356906067974986
 40
0.6661061728017247
 40
0.6970903032611984
 40
0.7286327512528591
 40
0.7607238046834917
 40
0.7933542413228106
 40
0.8265152889579644
 40
0.860198589943057
 40
0.8943961695393762
 40
0.929100407540569
 40
0.9643040127571179
 40
0.9924917445822207
 40
0.9924917445822207
 40
0.9924917445822207
 40
0.9924917445822207
 10
18.25247900360589
 20
10.75058182209218
 30
0.0
 10
18.25387984922433
 20
10.7626431227436
 30
0.0
 10
18.25507167641916
 20
10.77287297236532
 30
0.0
 10
18.25512066169157
 20
10.77313924679615
 30
0.0
 10
18.25516819384215
 20
10.77343271567809
 30
0.0
 10
18.25523355023881
 20
10.77377551786704
 30
0.0
 10
18.25532943237323
 20
10.77423611232717
 30
0.0
 10
18.25545692675153
 20
10.77478999404832
 30
0.0
 10
18.2556209509344
 20
10.77544347049139
 30
0.0
 10
18.25582516915158
 20
10.77619295872329
 30
0.0
 10
18.2560735837588
 20
10.77703776216391
 30
0.0
 10
18.25637004448795
 20
10.77797616582052
 30
0.0
 10
18.25671839112687
 20
10.77900660571808
 30
0.0
 10
18.2571224072727
 20
10.78012732458703
 30
0.0
 10
18.25758582979593
 20
10.78133647366509
 30
0.0
 10
18.2581123421334
 20
10.78263208476135
 30
0.0
 10
18.25870557230459
 20
10.78401207996216
 30
0.0
 10
18.25936908962157
 20
10.78547427066647
 30
0.0
 10
18.26010640182064
 20
10.78701635977844
 30
0.0
 10
18.26092095212406
 20
10.78863594310825
 30
0.0
 10
18.26181611637317
 20
10.79033051109605
 30
0.0
 10
18.2627952001947
 20
10.79209745054069
 30
0.0
 10
18.26386143621307
 20
10.79393404642038
 30
0.0
 10
18.26501798130717
 20
10.79583748377862
 30
0.0
 10
18.26626791391432
 20
10.79780484968104
 30
0.0
 10
18.26761423138116
 20
10.79983313524035
 30
0.0
 10
18.26905984737047
 20
10.80191923770658
 30
0.0
 10
18.27060758929644
 20
10.80405996262902
 30
0.0
 10
18.27226019590205
 20
10.80625202605865
 30
0.0
 10
18.27402031454923
 20
10.80849205690503
 30
0.0
 10
18.27589049987712
 20
10.81077659900327
 30
0.0
 10
18.27787320748872
 20
10.81310211458928
 30
0.0
 10
18.27997080695842
 20
10.81546498267085
 30
0.0
 10
18.28218552119257
 20
10.81786151721315
 30
0.0
 10
18.28451964767327
 20
10.82028790983941
 30
0.0
 10
18.28697470303513
 20
10.82274046119836
 30
0.0
 10
18.28955467855128
 20
10.82521471049318
 30
0.0
 10
18.29206172180517
 20
10.82753144576189
 30
0.0
 10
18.2937414525666
 20
10.82901422491095
 30
0.0
 10
18.29449084526931
 20
10.82967296429388
 30
0.0
  0
ARC
  5
1BC
330
1F
100
AcDbEntity
  8
VISIBLE
100
AcDbCircle
 10
18.42618925398354
 20
10.64157246476763
 30
0.0
 40
0.0190290029616921
100
AcDbArc
 50
126.6248690400166
 51
212.0427318218893
  0
ARC
  5
1BD
330
1F
100
AcDbEntity
  8
VISIBLE
100
AcDbCircle
 10
18.23357706140828
 20
10.2786689316174
 30
0.0
 40
0.0190290029616921
100
AcDbArc
 50
6.62486904002238
 51
92.04273182189908
  0
SPLINE
  5
1BE
330
1F
100
AcDbEntity
  8
VISIBLE
100
AcDbSpline
210
0.0
220
0.0
230
1.0
 70
     8
 71
     3
 72
    44
 73
    40
 74
     0
 42
0.000000001
 43
0.0000000016819836
 40
0.0374573816692555
 40
0.0374573816692555
 40
0.0374573816692555
 40
0.0374573816692555
 40
0.1173270388283834
 40
0.1245633749097421
 40
0.133905442774593
 40
0.1449591259385425
 40
0.1574928242534562
 40
0.1713493489450592
 40
0.1864129793246032
 40
0.2025939139161443
 40
0.2198198341683084
 40
0.2380308751317533
 40
0.2571764150177155
 40
0.2772129162632475
 40
0.2981024128312286
 40
0.3198114144576315
 40
0.3423100907832789
 40
0.3655716496568643
 40
0.3895718539492971
 40
0.4142886395604835
 40
0.439701808899202
 40
0.465792781681809
 40
0.4925443899635601
 40
0.5199407077925865
 40
0.547966908311522
 40
0.5766091428695073
 40
0.6058544379685352
 40
0.6356906067974986
 40
0.6661061728017247
 40
0.6970903032611984
 40
0.7286327512528591
 40
0.7607238046834917
 40
0.7933542413228106
 40
0.8265152889579644
 40
0.860198589943057
 40
0.8943961695393762
 40
0.929100407540569
 40
0.9643040127571179
 40
0.992491744585682
 40
0.992491744585682
 40
0.992491744585682
 40
0.992491744585682
 10
18.08400062528999
 20
10.70543817668032
 30
0.0
 10
18.07675680707193
 20
10.71518314663792
 30
0.0
 10
18.07060972963342
 20
10.72344654268981
 30
0.0
 10
18.07043416992769
 20
10.72365265047508
 30
0.0
 10
18.07024627143682
 20
10.72388303590677
 30
0.0
 10
18.07001827004254
 20
10.72414723311254
 30
0.0
 10
18.06970493644829
 20
10.72449817854864
 30
0.0
 10
18.06931758221727
 20
10.72491410700071
 30
0.0
 10
18.06884879488653
 20
10.72539802210975
 30
0.0
 10
18.0682971926066
 20
10.72594498884982
 30
0.0
 10
18.06765965752576
 20
10.72655240278699
 30
0.0
 10
18.06693371317478
 20
10.72721685382804
 30
0.0
 10
18.06611681618738
 20
10.72793506763694
 30
0.0
 10
18.06520656850707
 20
10.72870363057504
 30
0.0
 10
18.06420065829025
 20
10.72951907313199
 30
0.0
 10
18.06309687968245
 20
10.73037784908604
 30
0.0
 10
18.06189312968352
 20
10.73127634490144
 30
0.0
 10
18.06058741147901
 20
10.73221088053806
 30
0.0
 10
18.0591778358281
 20
10.7331777127844
 30
0.0
 10
18.05766262290778
 20
10.73417303793985
 30
0.0
 10
18.05604010393359
 20
10.73519299474117
 30
0.0
 10
18.05430872274939
 20
10.73623366727642
 30
0.0
 10
18.0524670373312
 20
10.73729108795552
 30
0.0
 10
18.05051372121997
 20
10.73836124051522
 30
0.0
 10
18.04844756487795
 20
10.73944006306168
 30
0.0
 10
18.04626747697046
 20
10.74052345114875
 30
0.0
 10
18.04397248556648
 20
10.74160726088474
 30
0.0
 10
18.04156173927886
 20
10.74268731208711
 30
0.0
 10
18.03903450826113
 20
10.74375939140107
 30
0.0
 10
18.03639018537582
 20
10.74481925569571
 30
0.0
 10
18.03362828632295
 20
10.74586263452485
 30
0.0
 10
18.03074845337002
 20
10.74688523629343
 30
0.0
 10
18.02775044490151
 20
10.74788274034302
 30
0.0
 10
18.02463417884146
 20
10.74885084302062
 30
0.0
 10
18.0213995697004
 20
10.74978509743417
 30
0.0
 10
18.01804715370986
 20
10.75068154153418
 30
0.0
 10
18.01457570472433
 20
10.75153431652071
 30
0.0
 10
18.0112461739436
 20
10.75228714649033
 30
0.0
 10
18.00905009485803
 20
10.75273140552093
 30
0.0
 10
18.00807173204849
 20
10.75292719420968
 30
0.0
  0
SPLINE
  5
1BF
330
1F
100
AcDbEntity
  8
VISIBLE
100
AcDbSpline
210
0.0
220
0.0
230
1.0
 70
     8
 71
     3
 72
    44
 73
    40
 74
     0
 42
0.000000001
 43
0.0000000017098948
 40
0.0374573816692563
 40
0.0374573816692563
 40
0.0374573816692563
 40
0.0374573816692563
 40
0.1173270388283834
 40
0.1245633749097421
 40
0.133905442774593
 40
0.1449591259385425
 40
0.1574928242534562
 40
0.1713493489450592
 40
0.1864129793246032
 40
0.2025939139161443
 40
0.2198198341683084
 40
0.2380308751317533
 40
0.2571764150177155
 40
0.2772129162632475
 40
0.2981024128312286
 40
0.3198114144576315
 40
0.3423100907832789
 40
0.3655716496568643
 40
0.3895718539492971
 40
0.4142886395604835
 40
0.439701808899202
 40
0.465792781681809
 40
0.4925443899635601
 40
0.5199407077925865
 40
0.547966908311522
 40
0.5766091428695073
 40
0.6058544379685352
 40
0.6356906067974986
 40
0.6661061728017247
 40
0.6970903032611984
 40
0.7286327512528591
 40
0.7607238046834917
 40
0.7933542413228106
 40
0.8265152889579644
 40
0.860198589943057
 40
0.8943961695393762
 40
0.929100407540569
 40
0.9643040127571179
 40
0.992491744585682
 40
0.992491744585682
 40
0.992491744585682
 40
0.992491744585682
 10
18.41483705929038
 20
10.65684435493763
 30
0.0
 10
18.42458202924796
 20
10.66408817315569
 30
0.0
 10
18.43284542529986
 20
10.6702352505942
 30
0.0
 10
18.43305153308513
 20
10.67041081029993
 30
0.0
 10
18.43328191851683
 20
10.6705987087908
 30
0.0
 10
18.4335461157226
 20
10.67082671018509
 30
0.0
 10
18.4338970611587
 20
10.67114004377933
 30
0.0
 10
18.43431298961076
 20
10.67152739801035
 30
0.0
 10
18.4347969047198
 20
10.67199618534109
 30
0.0
 10
18.43534387145987
 20
10.67254778762102
 30
0.0
 10
18.43595128539705
 20
10.67318532270186
 30
0.0
 10
18.43661573643809
 20
10.67391126705283
 30
0.0
 10
18.43733395024699
 20
10.67472816404024
 30
0.0
 10
18.43810251318509
 20
10.67563841172055
 30
0.0
 10
18.43891795574204
 20
10.67664432193737
 30
0.0
 10
18.43977673169609
 20
10.67774810054516
 30
0.0
 10
18.4406752275115
 20
10.6789518505441
 30
0.0
 10
18.44160976314812
 20
10.68025756874862
 30
0.0
 10
18.44257659539445
 20
10.68166714439952
 30
0.0
 10
18.4435719205499
 20
10.68318235731984
 30
0.0
 10
18.44459187735121
 20
10.68480487629403
 30
0.0
 10
18.44563254988647
 20
10.68653625747823
 30
0.0
 10
18.44668997056558
 20
10.68837794289642
 30
0.0
 10
18.44776012312527
 20
10.69033125900765
 30
0.0
 10
18.44883894567173
 20
10.69239741534967
 30
0.0
 10
18.44992233375881
 20
10.69457750325716
 30
0.0
 10
18.45100614349479
 20
10.69687249466114
 30
0.0
 10
18.45208619469716
 20
10.69928324094876
 30
0.0
 10
18.45315827401112
 20
10.70181047196649
 30
0.0
 10
18.45421813830576
 20
10.70445479485181
 30
0.0
 10
18.45526151713491
 20
10.70721669390467
 30
0.0
 10
18.45628411890348
 20
10.7100965268576
 30
0.0
 10
18.45728162295307
 20
10.71309453532611
 30
0.0
 10
18.45824972563067
 20
10.71621080138616
 30
0.0
 10
18.45918398004422
 20
10.71944541052722
 30
0.0
 10
18.46008042414423
 20
10.72279782651776
 30
0.0
 10
18.46093319913076
 20
10.72626927550329
 30
0.0
 10
18.46168602910038
 20
10.72959880628402
 30
0.0
 10
18.46213028813099
 20
10.73179488536959
 30
0.0
 10
18.46232607681974
 20
10.73277324817913
 30
0.0
  0
SPLINE
  5
1C0
330
1F
100
AcDbEntity
  8
VISIBLE
100
AcDbSpline
210
0.0
220
0.0
230
1.0
 70
     8
 71
     3
 72
    44
 73
    40
 74
     0
 42
0.000000001
 43
0.0000000016686835
 40
0.0374573816692546
 40
0.0374573816692546
 40
0.0374573816692546
 40
0.0374573816692546
 40
0.1173270388283834
 40
0.1245633749097421
 40
0.133905442774593
 40
0.1449591259385425
 40
0.1574928242534562
 40
0.1713493489450592
 40
0.1864129793246032
 40
0.2025939139161443
 40
0.2198198341683084
 40
0.2380308751317533
 40
0.2571764150177155
 40
0.2772129162632475
 40
0.2981024128312286
 40
0.3198114144576315
 40
0.3423100907832789
 40
0.3655716496568643
 40
0.3895718539492971
 40
0.4142886395604835
 40
0.439701808899202
 40
0.465792781681809
 40
0.4925443899635601
 40
0.5199407077925865
 40
0.547966908311522
 40
0.5766091428695073
 40
0.6058544379685352
 40
0.6356906067974986
 40
0.6661061728017247
 40
0.6970903032611984
 40
0.7286327512528591
 40
0.7607238046834917
 40
0.7933542413228106
 40
0.8265152889579644
 40
0.860198589943057
 40
0.8943961695393762
 40
0.929100407540569
 40
0.9643040127571179
 40
0.992491744585682
 40
0.992491744585682
 40
0.992491744585682
 40
0.992491744585682
 10
18.25247900360589
 20
10.28086427552539
 30
0.0
 10
18.25387984922433
 20
10.26880297487397
 30
0.0
 10
18.25507167641916
 20
10.25857312525225
 30
0.0
 10
18.25512066169157
 20
10.25830685082142
 30
0.0
 10
18.25516819384215
 20
10.25801338193948
 30
0.0
 10
18.25523355023881
 20
10.25767057975053
 30
0.0
 10
18.25532943237323
 20
10.2572099852904
 30
0.0
 10
18.25545692675153
 20
10.25665610356924
 30
0.0
 10
18.2556209509344
 20
10.25600262712618
 30
0.0
 10
18.25582516915157
 20
10.25525313889428
 30
0.0
 10
18.2560735837588
 20
10.25440833545365
 30
0.0
 10
18.25637004448795
 20
10.25346993179705
 30
0.0
 10
18.25671839112687
 20
10.25243949189949
 30
0.0
 10
18.2571224072727
 20
10.25131877303054
 30
0.0
 10
18.25758582979593
 20
10.25010962395248
 30
0.0
 10
18.2581123421334
 20
10.24881401285622
 30
0.0
 10
18.25870557230459
 20
10.24743401765541
 30
0.0
 10
18.25936908962157
 20
10.2459718269511
 30
0.0
 10
18.26010640182064
 20
10.24442973783913
 30
0.0
 10
18.26092095212405
 20
10.24281015450931
 30
0.0
 10
18.26181611637317
 20
10.24111558652152
 30
0.0
 10
18.26279520019469
 20
10.23934864707687
 30
0.0
 10
18.26386143621307
 20
10.23751205119718
 30
0.0
 10
18.26501798130717
 20
10.23560861383895
 30
0.0
 10
18.26626791391431
 20
10.23364124793653
 30
0.0
 10
18.26761423138115
 20
10.23161296237722
 30
0.0
 10
18.26905984737047
 20
10.22952685991099
 30
0.0
 10
18.27060758929644
 20
10.22738613498855
 30
0.0
 10
18.27226019590205
 20
10.22519407155892
 30
0.0
 10
18.27402031454923
 20
10.22295404071254
 30
0.0
 10
18.27589049987712
 20
10.2206694986143
 30
0.0
 10
18.27787320748872
 20
10.21834398302829
 30
0.0
 10
18.27997080695842
 20
10.21598111494671
 30
0.0
 10
18.28218552119257
 20
10.21358458040442
 30
0.0
 10
18.28451964767327
 20
10.21115818777815
 30
0.0
 10
18.28697470303513
 20
10.2087056364192
 30
0.0
 10
18.28955467855128
 20
10.20623138712439
 30
0.0
 10
18.29206172180525
 20
10.2039146518556
 30
0.0
 10
18.29374145256678
 20
10.20243187270645
 30
0.0
 10
18.29449084526959
 20
10.20177313332345
 30
0.0
  0
ARC
  5
1C1
330
1F
100
AcDbEntity
  8
VISIBLE
100
AcDbCircle
 10
18.33632663265137
 20
10.72524550136294
 30
0.0
 40
0.0190290029616921
100
AcDbArc
 50
156.6248690400225
 51
242.0427318218933
  0
CIRCLE
  5
1C2
330
1F
100
AcDbEntity
  8
VISIBLE
100
AcDbCircle
 10
18.22512193141883
 20
10.51572304880878
 30
0.0
 40
0.078740157480315
  0
MTEXT
  5
1C3
102
{ACAD_XDICTIONARY
360
1C4
102
}
330
1F
100
AcDbEntity
  8
ANNOTATION_TEXT
 62
     7
 60
     1
100
AcDbMText
 10
10.82677165354331
 20
-3.051979599601971
 30
0.0
 40
0.12
 41
0.0
 71
     2
 72
     1
  1

  7
ONSHAPE-STANDARD-VIEW-LABE
1001
ACAD
1000
ACAD_MTEXT_DEFINED_HEIGHT_BEGIN
1070
    46
1040
0.12
1000
ACAD_MTEXT_DEFINED_HEIGHT_END
  0
MTEXT
  5
1CA
102
{ACAD_XDICTIONARY
360
1CB
102
}
330
1F
100
AcDbEntity
  8
ANNOTATION_TEXT
 62
     7
 60
     1
100
AcDbMText
 10
10.8115464919161
 20
8.24254193564175
 30
0.0
 40
0.12
 41
0.0
 71
     2
 72
     1
  1

  7
ONSHAPE-STANDARD-VIEW-LABE
1001
ACAD
1000
ACAD_MTEXT_DEFINED_HEIGHT_BEGIN
1070
    46
1040
0.12
1000
ACAD_MTEXT_DEFINED_HEIGHT_END
  0
LINE
  5
1CD
102
{ACAD_REACTORS
102
}
102
{ACAD_XDICTIONARY
360
1CE
102
}
330
1F
100
AcDbEntity
  8
SKETCHED_GEOMETRY
100
AcDbLine
 10
4.920960357795988
 20
11.77179992795709
 30
0.0
 11
11.44272821774534
 21
11.77179992795709
 31
0.0
  0
LINE
  5
1D7
330
1F
100
AcDbEntity
  8
CENTERMARKS
  6
CONTINUOUS
100
AcDbLine
 10
18.19756287630072
 20
10.51572304880878
 30
0.0
 11
18.25268098653694
 21
10.51572304880878
 31
0.0
  0
LINE
  5
1D8
330
1F
100
AcDbEntity
  8
CENTERMARKS
  6
CONTINUOUS
100
AcDbLine
 10
18.22512193141883
 20
10.48816399369067
 30
0.0
 11
18.22512193141883
 21
10.5432821039269
 31
0.0
  0
LINE
  5
1D9
330
1F
100
AcDbEntity
  8
CENTERMARKS
  6
CENTER
100
AcDbLine
 10
18.17000382118261
 20
10.51572304880878
 30
0.0
 11
18.0912636637023
 21
10.51572304880878
 31
0.0
  0
LINE
  5
1DA
330
1F
100
AcDbEntity
  8
CENTERMARKS
  6
CENTER
100
AcDbLine
 10
18.28024004165506
 20
10.51572304880878
 30
0.0
 11
18.35898019913537
 21
10.51572304880878
 31
0.0
  0
LINE
  5
1DB
330
1F
100
AcDbEntity
  8
CENTERMARKS
  6
CENTER
100
AcDbLine
 10
18.22512193141883
 20
10.57084115904501
 30
0.0
 11
18.22512193141883
 21
10.64958131652532
 31
0.0
  0
LINE
  5
1DC
330
1F
100
AcDbEntity
  8
CENTERMARKS
  6
CENTER
100
AcDbLine
 10
18.22512193141883
 20
10.46060493857256
 30
0.0
 11
18.22512193141883
 21
10.38186478109225
 31
0.0
  0
MTEXT
  5
1DD
102
{ACAD_XDICTIONARY
360
1DE
102
}
330
1F
100
AcDbEntity
  8
ANNOTATION_TEXT
 62
     7
 60
     1
100
AcDbMText
 10
18.22512193141883
 20
10.11037814177487
 30
0.0
 40
0.12
 41
0.0
 71
     2
 72
     1
  1

  7
ONSHAPE-STANDARD-VIEW-LABE
1001
ACAD
1000
ACAD_MTEXT_DEFINED_HEIGHT_BEGIN
1070
    46
1040
0.12
1000
ACAD_MTEXT_DEFINED_HEIGHT_END
  0
ENDSEC
  0
SECTION
  2
OBJECTS
  0
DICTIONARY
  5
C
330
0
100
AcDbDictionary
  3
ACAD_GROUP
350
D
  3
ACAD_LAYOUT
350
1A
  3
ACAD_MATERIAL
350
43
  3
ACAD_MLEADERSTYLE
350
6B
  3
ACAD_MLINESTYLE
350
17
  3
ACAD_PLOTSETTINGS
350
19
  3
ACAD_SCALELIST
350
47
  3
ACAD_VISUALSTYLE
350
2A
  3
ACDBHEADERROUNDTRIPXREC
350
246
  3
ACDBVARIABLEDICTIONARY
350
6E
  3
DWGPROPS
350
26D
  3
ONSHAPE_DATA
350
1E4
  0
DICTIONARY
  5
26E
330
8
100
AcDbDictionary
280
     1
  3
ACAD_XREC_ROUNDTRIP
360
26F
  0
DICTIONARY
  5
1C4
330
1C3
100
AcDbDictionary
280
     1
  3
ONSHAPE_VIEW_ID
360
1C5
  0
DICTIONARY
  5
1CB
330
1CA
100
AcDbDictionary
280
     1
  3
ONSHAPE_VIEW_ID
360
1CC
  0
DICTIONARY
  5
1CE
330
1CD
100
AcDbDictionary
280
     1
  0
DICTIONARY
  5
1DE
330
1DD
100
AcDbDictionary
280
     1
  3
ONSHAPE_VIEW_ID
360
1DF
  0
DICTIONARY
  5
D
102
{ACAD_REACTORS
330
C
102
}
330
C
100
AcDbDictionary
  0
DICTIONARY
  5
1A
102
{ACAD_REACTORS
330
C
102
}
330
C
100
AcDbDictionary
  0
DICTIONARY
  5
43
102
{ACAD_REACTORS
330
C
102
}
330
C
100
AcDbDictionary
  3
BYBLOCK
350
45
  3
BYLAYER
350
44
  3
GLOBAL
350
46
  0
DICTIONARY
  5
6B
102
{ACAD_REACTORS
330
C
102
}
330
C
100
AcDbDictionary
  3
STANDARD
350
6C
  0
DICTIONARY
  5
17
102
{ACAD_REACTORS
330
C
102
}
330
C
100
AcDbDictionary
  3
STANDARD
350
18
  0
DICTIONARY
  5
19
102
{ACAD_REACTORS
330
C
102
}
330
C
100
AcDbDictionary
  0
DICTIONARY
  5
47
102
{ACAD_REACTORS
330
C
102
}
330
C
100
AcDbDictionary
  3
A0
350
48
  3
A1
350
49
  3
A2
350
4A
  3
A3
350
4B
  3
A4
350
4C
  3
A5
350
4D
  3
A6
350
4E
  3
A7
350
4F
  3
A8
350
50
  3
A9
350
51
  3
B0
350
52
  3
B1
350
53
  3
B2
350
54
  3
B3
350
55
  3
B4
350
56
  3
B5
350
57
  3
B6
350
58
  3
B7
350
59
  3
B8
350
5A
  3
B9
350
5B
  3
C0
350
5C
  3
C1
350
5D
  3
C2
350
5E
  3
C3
350
5F
  3
C4
350
60
  3
C5
350
61
  3
C6
350
62
  3
C7
350
63
  3
C8
350
64
  3
C9
350
65
  3
D0
350
66
  3
D1
350
67
  3
D2
350
68
  0
DICTIONARY
  5
2A
102
{ACAD_REACTORS
330
C
102
}
330
C
100
AcDbDictionary
  3
2DWIREFRAME
350
2F
  3
BASIC
350
32
  3
BRIGHTEN
350
36
  3
COLORCHANGE
350
3A
  3
CONCEPTUAL
350
34
  3
DIM
350
35
  3
EDGECOLOROFF
350
3D
  3
FACEPATTERN
350
39
  3
FLAT
350
2B
  3
FLATWITHEDGES
350
2C
  3
GOURAUD
350
2D
  3
GOURAUDWITHEDGES
350
2E
  3
HIDDEN
350
31
  3
JITTEROFF
350
3B
  3
LINEPATTERN
350
38
  3
OVERHANGOFF
350
3C
  3
REALISTIC
350
33
  3
SHADED
350
42
  3
SHADED_WITH_EDGES
350
41
  3
SHADES_OF_GRAY
350
3E
  3
SKETCHY
350
3F
  3
THICKEN
350
37
  3
WIREFRAME
350
30
  3
X-RAY
350
40
  0
DICTIONARY
  5
246
102
{ACAD_REACTORS
330
C
102
}
330
C
100
AcDbDictionary
  3
CEPSNID
350
250
  3
CEPSNTYPE
350
24F
  3
DIMSTYLEDATA
350
266
  3
FINGERPRINTGUID
350
251
  3
HYPERLINKBASE
350
249
  3
INSUNITS
350
24E
  3
LAYOUTDICT
350
24B
  3
LWETCUNION
350
24D
  3
PLOTSETDICT
350
24C
  3
PSVPSCALE
350
253
  3
PUCSBASE
350
256
  3
PUCSORGBACK
350
25C
  3
PUCSORGBOTTOM
350
258
  3
PUCSORGFRONT
350
25B
  3
PUCSORGLEFT
350
259
  3
PUCSORGRIGHT
350
25A
  3
PUCSORGTOP
350
257
  3
PUCSORTHOREF
350
254
  3
PUCSORTHOVIEW
350
255
  3
STYLESHEET
350
24A
  3
TSTACKALIGN
350
247
  3
TSTACKSIZE
350
248
  3
UCSBASE
350
25F
  3
UCSORGBACK
350
265
  3
UCSORGBOTTOM
350
261
  3
UCSORGFRONT
350
264
  3
UCSORGLEFT
350
262
  3
UCSORGRIGHT
350
263
  3
UCSORGTOP
350
260
  3
UCSORTHOREF
350
25D
  3
UCSORTHOVIEW
350
25E
  3
VERSIONGUID
350
252
  0
DICTIONARY
  5
6E
102
{ACAD_REACTORS
330
C
102
}
330
C
100
AcDbDictionary
  3
CANNOSCALE
350
270
  3
CMLEADERSTYLE
350
268
  3
CTABLESTYLE
350
267
  3
DIMASSOC
350
26B
  3
HIDETEXT
350
26C
  3
MSLTSCALE
350
271
  3
OLEFRAME
350
6F
  0
XRECORD
  5
26D
102
{ACAD_REACTORS
330
C
102
}
330
C
100
AcDbXrecord
  1
DWGPROPS COOKIE
  2

  3

  4

  6

  7

  8
nobody
  9

300
=
301
=
302
=
303
=
304
=
305
=
306
=
307
=
308
=
309
=
 40
0.0
 41
2461222.769660035
 42
2461222.769660521
  1

 90
        0
  0
DICTIONARY
  5
1E4
102
{ACAD_REACTORS
330
C
102
}
330
C
100
AcDbDictionary
280
     1
  3
DIM_UNITS
360
1E5
  3
ONSHAPE_ANG_TOL_PRECISION
360
1E8
  3
ONSHAPE_BREAK_DIMENSION_DEFAULT
360
1EE
  3
ONSHAPE_DIMENSION_FIT_STANDARD
360
1EF
  3
ONSHAPE_DIMENSION_TEXT_HOR
360
1ED
  3
ONSHAPE_FITCLASS_TOL_PRECISION
360
1E9
  3
ONSHAPE_JOGDIMENSION_LOCK_
360
1EB
  3
ONSHAPE_SHOWDIMENSIONSLINE
360
1EC
  3
ONSHAPE_UNDERLINEOVERRIDEN
360
1EA
  3
ONSHAPE_VSHARP_EXTENSION
360
1E7
  3
ONSHAPE_WELD_STANDARD
360
1E6
  0
XRECORD
  5
26F
102
{ACAD_REACTORS
330
26E
102
}
330
26E
100
AcDbXrecord
102
VTR_0.000_0.000_1.000_1.000_VISUALSTYLE
340
2F
102
VTR_0.000_0.000_1.000_1.000_GRIDDISPLAY
 70
     3
102
VTR_0.000_0.000_1.000_1.000_GRIDMAJOR
 70
     5
102
VTR_0.000_0.000_1.000_1.000_DEFAULTLIGHTING
280
     1
102
VTR_0.000_0.000_1.000_1.000_DEFAULTLIGHTINGTYPE
 70
     1
102
VTR_0.000_0.000_1.000_1.000_BRIGHTNESS
141
0.0
102
VTR_0.000_0.000_1.000_1.000_CONTRAST
142
0.0
  0
XRECORD
  5
1C5
102
{ACAD_REACTORS
330
1C4
102
}
330
1C4
100
AcDbXrecord
330
0
  0
XRECORD
  5
1CC
102
{ACAD_REACTORS
330
1CB
102
}
330
1CB
100
AcDbXrecord
330
0
  0
XRECORD
  5
1DF
102
{ACAD_REACTORS
330
1DE
102
}
330
1DE
100
AcDbXrecord
330
0
  0
MATERIAL
  5
45
102
{ACAD_REACTORS
330
43
102
}
102
{ACAD_XDICTIONARY
360
274
102
}
330
43
100
AcDbMaterial
  1
BYBLOCK
  0
MATERIAL
  5
44
102
{ACAD_REACTORS
330
43
102
}
102
{ACAD_XDICTIONARY
360
272
102
}
330
43
100
AcDbMaterial
  1
BYLAYER
  0
MATERIAL
  5
46
102
{ACAD_REACTORS
330
43
102
}
102
{ACAD_XDICTIONARY
360
276
102
}
330
43
100
AcDbMaterial
  1
GLOBAL
  0
ACAD_PROXY_OBJECT
  5
6C
102
{ACAD_REACTORS
330
6B
102
}
330
6B
100
AcDbProxyObject
 90
      499
 91
      505
 93
      610
310
40901902A4063FBFFFFFE056BD1B81E855B9FC0AD7A3703D0AD73F4214DD185B99185C9900AD7A3703D0AC73F90140501A02B5E8DC0F42B1CFC02B5E8DC0F42B1CFE5764000000000000300FC0
340
14
340
0
340
11
340
0
 94
        0
1001
ACAD_MLEADERVER
1070
     2
  0
MLINESTYLE
  5
18
102
{ACAD_REACTORS
330
17
102
}
330
17
100
AcDbMlineStyle
  2
Standard
 70
     0
  3

 62
   256
 51
90.0
 52
90.0
 71
     2
 49
0.5
 62
   256
  6
BYLAYER
 49
-0.5
 62
   256
  6
BYLAYER
  0
ACAD_PROXY_OBJECT
  5
48
102
{ACAD_REACTORS
330
47
102
}
330
47
100
AcDbProxyObject
 90
      499
 91
      503
 93
       41
310
903313A31580
  0
ACAD_PROXY_OBJECT
  5
49
102
{ACAD_REACTORS
330
47
102
}
330
47
100
AcDbProxyObject
 90
      499
 91
      503
 93
      105
310
903313A324000000000000004000
  0
ACAD_PROXY_OBJECT
  5
4A
102
{ACAD_REACTORS
330
47
102
}
330
47
100
AcDbProxyObject
 90
      499
 91
      503
 93
      105
310
903313A344000000000000104000
  0
ACAD_PROXY_OBJECT
  5
4B
102
{ACAD_REACTORS
330
47
102
}
330
47
100
AcDbProxyObject
 90
      499
 91
      503
 93
      105
310
903313A354000000000000144000
  0
ACAD_PROXY_OBJECT
  5
4C
102
{ACAD_REACTORS
330
47
102
}
330
47
100
AcDbProxyObject
 90
      499
 91
      503
 93
      105
310
903313A384000000000000204000
  0
ACAD_PROXY_OBJECT
  5
4D
102
{ACAD_REACTORS
330
47
102
}
330
47
100
AcDbProxyObject
 90
      499
 91
      503
 93
      113
310
904313A31304000000000000244000
  0
ACAD_PROXY_OBJECT
  5
4E
102
{ACAD_REACTORS
330
47
102
}
330
47
100
AcDbProxyObject
 90
      499
 91
      503
 93
      113
310
904313A31364000000000000304000
  0
ACAD_PROXY_OBJECT
  5
4F
102
{ACAD_REACTORS
330
47
102
}
330
47
100
AcDbProxyObject
 90
      499
 91
      503
 93
      113
310
904313A32304000000000000344000
  0
ACAD_PROXY_OBJECT
  5
50
102
{ACAD_REACTORS
330
47
102
}
330
47
100
AcDbProxyObject
 90
      499
 91
      503
 93
      113
310
904313A333040000000000003E4000
  0
ACAD_PROXY_OBJECT
  5
51
102
{ACAD_REACTORS
330
47
102
}
330
47
100
AcDbProxyObject
 90
      499
 91
      503
 93
      113
310
904313A34304000000000000444000
  0
ACAD_PROXY_OBJECT
  5
52
102
{ACAD_REACTORS
330
47
102
}
330
47
100
AcDbProxyObject
 90
      499
 91
      503
 93
      113
310
904313A35304000000000000494000
  0
ACAD_PROXY_OBJECT
  5
53
102
{ACAD_REACTORS
330
47
102
}
330
47
100
AcDbProxyObject
 90
      499
 91
      503
 93
      121
310
905313A3130304000000000000594000
  0
ACAD_PROXY_OBJECT
  5
54
102
{ACAD_REACTORS
330
47
102
}
330
47
100
AcDbProxyObject
 90
      499
 91
      503
 93
      105
310
903323A310000000000000010100
  0
ACAD_PROXY_OBJECT
  5
55
102
{ACAD_REACTORS
330
47
102
}
330
47
100
AcDbProxyObject
 90
      499
 91
      503
 93
      105
310
903343A310000000000000410100
  0
ACAD_PROXY_OBJECT
  5
56
102
{ACAD_REACTORS
330
47
102
}
330
47
100
AcDbProxyObject
 90
      499
 91
      503
 93
      105
310
903383A310000000000000810100
  0
ACAD_PROXY_OBJECT
  5
57
102
{ACAD_REACTORS
330
47
102
}
330
47
100
AcDbProxyObject
 90
      499
 91
      503
 93
      113
310
90431303A310000000000000910100
  0
ACAD_PROXY_OBJECT
  5
58
102
{ACAD_REACTORS
330
47
102
}
330
47
100
AcDbProxyObject
 90
      499
 91
      503
 93
      121
310
9053130303A310000000000001650100
  0
ACAD_PROXY_OBJECT
  5
59
102
{ACAD_REACTORS
330
47
102
}
330
47
100
AcDbProxyObject
 90
      499
 91
      503
 93
      257
310
90E312F31323822203D2031272D3022000000000000200FC000000000000284000
  0
ACAD_PROXY_OBJECT
  5
5A
102
{ACAD_REACTORS
330
47
102
}
330
47
100
AcDbProxyObject
 90
      499
 91
      503
 93
      249
310
90D312F363422203D2031272D3022000000000000240FC000000000000284000
  0
ACAD_PROXY_OBJECT
  5
5B
102
{ACAD_REACTORS
330
47
102
}
330
47
100
AcDbProxyObject
 90
      499
 91
      503
 93
      249
310
90D312F333222203D2031272D3022000000000000280FC000000000000284000
  0
ACAD_PROXY_OBJECT
  5
5C
102
{ACAD_REACTORS
330
47
102
}
330
47
100
AcDbProxyObject
 90
      499
 91
      503
 93
      249
310
90D312F313622203D2031272D30220000000000002C0FC000000000000284000
  0
ACAD_PROXY_OBJECT
  5
5D
102
{ACAD_REACTORS
330
47
102
}
330
47
100
AcDbProxyObject
 90
      499
 91
      503
 93
      249
310
90D332F333222203D2031272D30220000000000002E0FC000000000000284000
  0
ACAD_PROXY_OBJECT
  5
5E
102
{ACAD_REACTORS
330
47
102
}
330
47
100
AcDbProxyObject
 90
      499
 91
      503
 93
      241
310
90C312F3822203D2031272D3022000000000000300FC000000000000284000
  0
ACAD_PROXY_OBJECT
  5
5F
102
{ACAD_REACTORS
330
47
102
}
330
47
100
AcDbProxyObject
 90
      499
 91
      503
 93
      249
310
90D332F313622203D2031272D3022000000000000320FC000000000000284000
  0
ACAD_PROXY_OBJECT
  5
60
102
{ACAD_REACTORS
330
47
102
}
330
47
100
AcDbProxyObject
 90
      499
 91
      503
 93
      241
310
90C312F3422203D2031272D3022000000000000340FC000000000000284000
  0
ACAD_PROXY_OBJECT
  5
61
102
{ACAD_REACTORS
330
47
102
}
330
47
100
AcDbProxyObject
 90
      499
 91
      503
 93
      241
310
90C332F3822203D2031272D3022000000000000360FC000000000000284000
  0
ACAD_PROXY_OBJECT
  5
62
102
{ACAD_REACTORS
330
47
102
}
330
47
100
AcDbProxyObject
 90
      499
 91
      503
 93
      241
310
90C312F3222203D2031272D3022000000000000380FC000000000000284000
  0
ACAD_PROXY_OBJECT
  5
63
102
{ACAD_REACTORS
330
47
102
}
330
47
100
AcDbProxyObject
 90
      499
 91
      503
 93
      241
310
90C332F3422203D2031272D30220000000000003A0FC000000000000284000
  0
ACAD_PROXY_OBJECT
  5
64
102
{ACAD_REACTORS
330
47
102
}
330
47
100
AcDbProxyObject
 90
      499
 91
      503
 93
      161
310
90A3122203D2031272D30224000000000000284000
  0
ACAD_PROXY_OBJECT
  5
65
102
{ACAD_REACTORS
330
47
102
}
330
47
100
AcDbProxyObject
 90
      499
 91
      503
 93
      257
310
90E312D312F3222203D2031272D30220000000000003E0FC000000000000284000
  0
ACAD_PROXY_OBJECT
  5
66
102
{ACAD_REACTORS
330
47
102
}
330
47
100
AcDbProxyObject
 90
      499
 91
      503
 93
      225
310
90A3322203D2031272D302200000000000002100000000000000284000
  0
ACAD_PROXY_OBJECT
  5
67
102
{ACAD_REACTORS
330
47
102
}
330
47
100
AcDbProxyObject
 90
      499
 91
      503
 93
      225
310
90A3622203D2031272D302200000000000006100000000000000284000
  0
ACAD_PROXY_OBJECT
  5
68
102
{ACAD_REACTORS
330
47
102
}
330
47
100
AcDbProxyObject
 90
      499
 91
      503
 93
      249
310
90D31272D3022203D2031272D30220000000000000A100000000000000284000
  0
ACAD_PROXY_OBJECT
  5
2F
102
{ACAD_REACTORS
330
2A
102
}
330
2A
100
AcDbProxyObject
 90
      499
 91
      501
 93
      436
310
42CC9915DA5C99599C985B595049028333333333333E33F0000000000000F90107901411070040501600405405064090741402480A0340
1001
ACAD
1000
AcDbSavedByObjectVersion
1070
     0
  0
ACAD_PROXY_OBJECT
  5
32
102
{ACAD_REACTORS
330
2A
102
}
330
2A
100
AcDbProxyObject
 90
      499
 91
      501
 93
      388
310
4150985CDA58D07406404333333333333E33F0000000000000F90107A41107004050150841D405064090741402480A0350
1001
ACAD
1000
AcDbSavedByObjectVersion
1070
     0
  0
ACAD_PROXY_OBJECT
  5
36
102
{ACAD_REACTORS
330
2A
102
}
330
2A
100
AcDbProxyObject
 90
      499
 91
      501
 93
      428
310
42109C9A59DA1D195B90C409028333333333333E33F0000000000000F9010790141107004050150841D405064090741402480A029950
1001
ACAD
1000
AcDbSavedByObjectVersion
1070
     0
  0
ACAD_PROXY_OBJECT
  5
3A
102
{ACAD_REACTORS
330
2A
102
}
330
2A
100
AcDbProxyObject
 90
      499
 91
      501
 93
      452
310
42D0DBDB1BDC90DA185B99D95104090240C333333333333E33F0000000000000F90108901411070040501508421405064090741402480A0350
1001
ACAD
1000
AcDbSavedByObjectVersion
1070
     0
  0
ACAD_PROXY_OBJECT
  5
34
102
{ACAD_REACTORS
330
2A
102
}
330
2A
100
AcDbProxyObject
 90
      499
 91
      501
 93
      500
310
4290DBDB98D95C1D1D585B10940D028333333333333E33F0000000000000F90107902409070040501000000000018199010841D405064090740C02480A0340
1001
ACAD
1000
AcDbSavedByObjectVersion
1070
     0
  0
ACAD_PROXY_OBJECT
  5
35
102
{ACAD_REACTORS
330
2A
102
}
330
2A
100
AcDbProxyObject
 90
      499
 91
      501
 93
      412
310
40D11A5B50B409028333333333333E33F0000000000000F9010790141107004050150841D405064090741402480A02677FFFFFD0
1001
ACAD
1000
AcDbSavedByObjectVersion
1070
     0
  0
ACAD_PROXY_OBJECT
  5
3D
102
{ACAD_REACTORS
330
2A
102
}
330
2A
100
AcDbProxyObject
 90
      499
 91
      501
 93
      452
310
43115919D950DBDB1BDC93D999916409028333333333333E33F0000000000000F9010790141107004050150841D405064090741402480A0350
1001
ACAD
1000
AcDbSavedByObjectVersion
1070
     0
  0
ACAD_PROXY_OBJECT
  5
39
102
{ACAD_REACTORS
330
2A
102
}
330
2A
100
AcDbProxyObject
 90
      499
 91
      501
 93
      444
310
42D19858D95C185D1D195C9B90F409028333333333333E33F0000000000000F9010790141107004050150841D405064090741402480A0350
1001
ACAD
1000
AcDbSavedByObjectVersion
1070
     0
  0
ACAD_PROXY_OBJECT
  5
2B
102
{ACAD_REACTORS
330
2A
102
}
330
2A
100
AcDbProxyObject
 90
      499
 91
      501
 93
      380
310
41119B185D240901404333333333333E33F0000000000000F9010740A907004050150841D405064090741402480A1B50
1001
ACAD
1000
AcDbSavedByObjectVersion
1070
     0
  0
ACAD_PROXY_OBJECT
  5
2C
102
{ACAD_REACTORS
330
2A
102
}
330
2A
100
AcDbProxyObject
 90
      499
 91
      501
 93
      468
310
43519B185D15DA5D1A115919D95CD0140901404333333333333E33F0000000000000F90107409019070040501600405405064090741402480A1B50
1001
ACAD
1000
AcDbSavedByObjectVersion
1070
     0
  0
ACAD_PROXY_OBJECT
  5
2D
102
{ACAD_REACTORS
330
2A
102
}
330
2A
100
AcDbProxyObject
 90
      499
 91
      501
 93
      404
310
41D1DBDD5C985D5910240902404333333333333E33F0000000000000F9010740A9070040501641D405064090741402480A1B50
1001
ACAD
1000
AcDbSavedByObjectVersion
1070
     0
  0
ACAD_PROXY_OBJECT
  5
2E
102
{ACAD_REACTORS
330
2A
102
}
330
2A
100
AcDbProxyObject
 90
      499
 91
      501
 93
      492
310
4411DBDD5C985D5915DA5D1A115919D95CD0340902404333333333333E33F0000000000000F90107409019070040501600405405064090741402480A1B50
1001
ACAD
1000
AcDbSavedByObjectVersion
1070
     0
  0
ACAD_PROXY_OBJECT
  5
31
102
{ACAD_REACTORS
330
2A
102
}
330
2A
100
AcDbProxyObject
 90
      499
 91
      501
 93
      476
310
41921A5919195B90640502408333333333333E33F0000000000000F901079024090700405020000000000001110200405405064090740C02480A0340
1001
ACAD
1000
AcDbSavedByObjectVersion
1070
     0
  0
ACAD_PROXY_OBJECT
  5
3B
102
{ACAD_REACTORS
330
2A
102
}
330
2A
100
AcDbProxyObject
 90
      499
 91
      501
 93
      428
310
42529A5D1D195C93D999914409028333333333333E33F0000000000000F9010790141107004050150A41D405064090741402480A0350
1001
ACAD
1000
AcDbSavedByObjectVersion
1070
     0
  0
ACAD_PROXY_OBJECT
  5
38
102
{ACAD_REACTORS
330
2A
102
}
330
2A
100
AcDbProxyObject
 90
      499
 91
      501
 93
      444
310
42D31A5B995C185D1D195C9B90E409028333333333333E33F0000000000000F9010790141107004050750841D405064090741402483A0350
1001
ACAD
1000
AcDbSavedByObjectVersion
1070
     0
  0
ACAD_PROXY_OBJECT
  5
3C
102
{ACAD_REACTORS
330
2A
102
}
330
2A
100
AcDbProxyObject
 90
      499
 91
      501
 93
      444
310
42D3DD995C9A185B99D3D999915409028333333333333E33F0000000000000F9010790141107004050150941D405064090741402480A0350
1001
ACAD
1000
AcDbSavedByObjectVersion
1070
     0
  0
ACAD_PROXY_OBJECT
  5
33
102
{ACAD_REACTORS
330
2A
102
}
330
2A
100
AcDbProxyObject
 90
      499
 91
      501
 93
      428
310
425499585B1A5CDD1A58D08409038333333333333E33F0000000000000F9010740A907004050150800405405064090740C02480A1B40
1001
ACAD
1000
AcDbSavedByObjectVersion
1070
     0
  0
ACAD_PROXY_OBJECT
  5
42
102
{ACAD_REACTORS
330
2A
102
}
330
2A
100
AcDbProxyObject
 90
      499
 91
      501
 93
      420
310
4194DA1859195911B40902404333333333333E33F0000000000000F9010740A41107004050150800405405064090840C02480A0B40
1001
ACAD
1000
AcDbSavedByObjectVersion
1070
     0
  0
ACAD_PROXY_OBJECT
  5
41
102
{ACAD_REACTORS
330
2A
102
}
330
2A
100
AcDbProxyObject
 90
      499
 91
      501
 93
      516
310
4454DA18591959081DDA5D1A08195919D95CD1A40902404333333333333E33F0000000000000F901074090142907004050250800405405064090740C02480A0B40
1001
ACAD
1000
AcDbSavedByObjectVersion
1070
     0
  0
ACAD_PROXY_OBJECT
  5
3E
102
{ACAD_REACTORS
330
2A
102
}
330
2A
100
AcDbProxyObject
 90
      499
 91
      501
 93
      532
310
4394DA1859195CC81BD98811DC985E5174090240C333333333333E33F0000000000000F901079024090741D01000000000000111010841D405064090740C02480A0340
1001
ACAD
1000
AcDbSavedByObjectVersion
1070
     0
  0
ACAD_PROXY_OBJECT
  5
3F
102
{ACAD_REACTORS
330
2A
102
}
330
2A
100
AcDbProxyObject
 90
      499
 91
      501
 93
      476
310
41D4DAD95D18DA1E51840502408333333333333E33F0000000000000F901079024090741D01000000000000111010B41D405064090741802480A0340
1001
ACAD
1000
AcDbSavedByObjectVersion
1070
     0
  0
ACAD_PROXY_OBJECT
  5
37
102
{ACAD_REACTORS
330
2A
102
}
330
2A
100
AcDbProxyObject
 90
      499
 91
      501
 93
      412
310
41D51A1A58DAD95B90D409028333333333333E33F0000000000000F9010790141107004050150C41D405064090741402480A0350
1001
ACAD
1000
AcDbSavedByObjectVersion
1070
     0
  0
ACAD_PROXY_OBJECT
  5
30
102
{ACAD_REACTORS
330
2A
102
}
330
2A
100
AcDbProxyObject
 90
      499
 91
      501
 93
      420
310
4255DA5C99599C985B595059028333333333333E33F0000000000000F90107901411070040501600405405064090740C02480A0340
1001
ACAD
1000
AcDbSavedByObjectVersion
1070
     0
  0
ACAD_PROXY_OBJECT
  5
40
102
{ACAD_REACTORS
330
2A
102
}
330
2A
100
AcDbProxyObject
 90
      499
 91
      501
 93
      404
310
41560B54985E51940902404000000000000E03F0000000000000F9010740501907004050150841D405064090740C02480A1B40
1001
ACAD
1000
AcDbSavedByObjectVersion
1070
     0
  0
XRECORD
  5
250
102
{ACAD_REACTORS
330
246
102
}
330
246
100
AcDbXrecord
340
0
  0
XRECORD
  5
24F
102
{ACAD_REACTORS
330
246
102
}
330
246
100
AcDbXrecord
 90
        0
  0
XRECORD
  5
266
102
{ACAD_REACTORS
330
246
102
}
330
246
100
AcDbXrecord
1000
DSTYLE
1002
{
1070
   179
 70
     1
1070
   170
 70
     1
1070
   285
 70
     7
1070
   176
 70
     7
1070
   177
 70
     7
1070
   178
 70
     7
1070
   271
 70
     3
1070
    44
 40
0.08
1070
   371
 70
    13
1070
   372
 70
    13
1070
   272
 70
     3
1070
   340
340
73
1070
   140
 40
0.12
1070
   284
 70
     7
1070
   288
 70
     1
1070
    78
 70
     7
1070
    90
 70
     1
1002
}
  0
XRECORD
  5
251
102
{ACAD_REACTORS
330
246
102
}
330
246
100
AcDbXrecord
  1
{e5363779-7679-7464-b176-307032f1e5b6}
  0
XRECORD
  5
249
102
{ACAD_REACTORS
330
246
102
}
330
246
100
AcDbXrecord
  1

  0
XRECORD
  5
24E
102
{ACAD_REACTORS
330
246
102
}
330
246
100
AcDbXrecord
 90
        1
  0
XRECORD
  5
24B
102
{ACAD_REACTORS
330
246
102
}
330
246
100
AcDbXrecord
340
1A
  0
XRECORD
  5
24D
102
{ACAD_REACTORS
330
246
102
}
330
246
100
AcDbXrecord
 90
    10269
  0
XRECORD
  5
24C
102
{ACAD_REACTORS
330
246
102
}
330
246
100
AcDbXrecord
340
19
  0
XRECORD
  5
253
102
{ACAD_REACTORS
330
246
102
}
330
246
100
AcDbXrecord
 40
0.0
  0
XRECORD
  5
256
102
{ACAD_REACTORS
330
246
102
}
330
246
100
AcDbXrecord
340
0
  0
XRECORD
  5
25C
102
{ACAD_REACTORS
330
246
102
}
330
246
100
AcDbXrecord
 10
0.0
 20
0.0
 30
0.0
  0
XRECORD
  5
258
102
{ACAD_REACTORS
330
246
102
}
330
246
100
AcDbXrecord
 10
0.0
 20
0.0
 30
0.0
  0
XRECORD
  5
25B
102
{ACAD_REACTORS
330
246
102
}
330
246
100
AcDbXrecord
 10
0.0
 20
0.0
 30
0.0
  0
XRECORD
  5
259
102
{ACAD_REACTORS
330
246
102
}
330
246
100
AcDbXrecord
 10
0.0
 20
0.0
 30
0.0
  0
XRECORD
  5
25A
102
{ACAD_REACTORS
330
246
102
}
330
246
100
AcDbXrecord
 10
0.0
 20
0.0
 30
0.0
  0
XRECORD
  5
257
102
{ACAD_REACTORS
330
246
102
}
330
246
100
AcDbXrecord
 10
0.0
 20
0.0
 30
0.0
  0
XRECORD
  5
254
102
{ACAD_REACTORS
330
246
102
}
330
246
100
AcDbXrecord
340
0
  0
XRECORD
  5
255
102
{ACAD_REACTORS
330
246
102
}
330
246
100
AcDbXrecord
 70
     0
  0
XRECORD
  5
24A
102
{ACAD_REACTORS
330
246
102
}
330
246
100
AcDbXrecord
  1

  0
XRECORD
  5
247
102
{ACAD_REACTORS
330
246
102
}
330
246
100
AcDbXrecord
 90
        1
  0
XRECORD
  5
248
102
{ACAD_REACTORS
330
246
102
}
330
246
100
AcDbXrecord
 90
       70
  0
XRECORD
  5
25F
102
{ACAD_REACTORS
330
246
102
}
330
246
100
AcDbXrecord
340
0
  0
XRECORD
  5
265
102
{ACAD_REACTORS
330
246
102
}
330
246
100
AcDbXrecord
 10
0.0
 20
0.0
 30
0.0
  0
XRECORD
  5
261
102
{ACAD_REACTORS
330
246
102
}
330
246
100
AcDbXrecord
 10
0.0
 20
0.0
 30
0.0
  0
XRECORD
  5
264
102
{ACAD_REACTORS
330
246
102
}
330
246
100
AcDbXrecord
 10
0.0
 20
0.0
 30
0.0
  0
XRECORD
  5
262
102
{ACAD_REACTORS
330
246
102
}
330
246
100
AcDbXrecord
 10
0.0
 20
0.0
 30
0.0
  0
XRECORD
  5
263
102
{ACAD_REACTORS
330
246
102
}
330
246
100
AcDbXrecord
 10
0.0
 20
0.0
 30
0.0
  0
XRECORD
  5
260
102
{ACAD_REACTORS
330
246
102
}
330
246
100
AcDbXrecord
 10
0.0
 20
0.0
 30
0.0
  0
XRECORD
  5
25D
102
{ACAD_REACTORS
330
246
102
}
330
246
100
AcDbXrecord
340
0
  0
XRECORD
  5
25E
102
{ACAD_REACTORS
330
246
102
}
330
246
100
AcDbXrecord
 70
     0
  0
XRECORD
  5
252
102
{ACAD_REACTORS
330
246
102
}
330
246
100
AcDbXrecord
  1
{FAEB1C32-E019-11D5-929B-00C0DF256EC4}
  0
DICTIONARYVAR
  5
270
102
{ACAD_REACTORS
330
6E
102
}
330
6E
100
DictionaryVariables
280
     0
  1
1:1
  0
DICTIONARYVAR
  5
268
102
{ACAD_REACTORS
330
6E
102
}
330
6E
100
DictionaryVariables
280
     0
  1
Standard
  0
DICTIONARYVAR
  5
267
102
{ACAD_REACTORS
330
6E
102
}
330
6E
100
DictionaryVariables
280
     0
  1
Onshape-Standard
  0
DICTIONARYVAR
  5
26B
102
{ACAD_REACTORS
330
6E
102
}
330
6E
100
DictionaryVariables
280
     0
  1
2
  0
DICTIONARYVAR
  5
26C
102
{ACAD_REACTORS
330
6E
102
}
330
6E
100
DictionaryVariables
280
     0
  1
1
  0
DICTIONARYVAR
  5
271
102
{ACAD_REACTORS
330
6E
102
}
330
6E
100
DictionaryVariables
280
     0
  1
1
  0
DICTIONARYVAR
  5
6F
102
{ACAD_REACTORS
330
6E
102
}
330
6E
100
DictionaryVariables
280
     0
  1
0
  0
XRECORD
  5
1E5
102
{ACAD_REACTORS
330
1E4
102
}
330
1E4
100
AcDbXrecord
 70
     1
  0
XRECORD
  5
1E8
102
{ACAD_REACTORS
330
1E4
102
}
330
1E4
100
AcDbXrecord
 90
        0
  0
ACAD_PROXY_OBJECT
  5
1EE
102
{ACAD_REACTORS
330
1E4
102
}
330
1E4
100
AcDbProxyObject
 90
      499
 91
      509
 93
       34
310
40C8804040
  0
XRECORD
  5
1EF
102
{ACAD_REACTORS
330
1E4
102
}
330
1E4
100
AcDbXrecord
300
ANSI
  0
XRECORD
  5
1ED
102
{ACAD_REACTORS
330
1E4
102
}
330
1E4
100
AcDbXrecord
 90
        5
  0
XRECORD
  5
1E9
102
{ACAD_REACTORS
330
1E4
102
}
330
1E4
100
AcDbXrecord
 90
        4
  0
XRECORD
  5
1EB
102
{ACAD_REACTORS
330
1E4
102
}
330
1E4
100
AcDbXrecord
 90
        0
  0
ACAD_PROXY_OBJECT
  5
1EC
102
{ACAD_REACTORS
330
1E4
102
}
330
1E4
100
AcDbProxyObject
 90
      499
 91
      509
 93
       34
310
40C8804000
  0
ACAD_PROXY_OBJECT
  5
1EA
102
{ACAD_REACTORS
330
1E4
102
}
330
1E4
100
AcDbProxyObject
 90
      499
 91
      509
 93
       34
310
40C8804040
  0
XRECORD
  5
1E7
102
{ACAD_REACTORS
330
1E4
102
}
330
1E4
100
AcDbXrecord
 90
        0
  0
XRECORD
  5
1E6
102
{ACAD_REACTORS
330
1E4
102
}
330
1E4
100
AcDbXrecord
 90
        0
  0
DICTIONARY
  5
274
330
45
100
AcDbDictionary
280
     1
  3
ACAD_XREC_ROUNDTRIP
360
275
  0
DICTIONARY
  5
272
330
44
100
AcDbDictionary
280
     1
  3
ACAD_XREC_ROUNDTRIP
360
273
  0
DICTIONARY
  5
276
330
46
100
AcDbDictionary
280
     1
  3
ACAD_XREC_ROUNDTRIP
360
277
  0
XRECORD
  5
275
102
{ACAD_REACTORS
330
274
102
}
330
274
100
AcDbXrecord
102
MATERIAL
148
0.0
149
0.0
149
0.0
 93
        0
 94
      127
282
     0
 72
     1
 77
     1
171
     1
175
     1
179
     1
273
     0
  0
XRECORD
  5
273
102
{ACAD_REACTORS
330
272
102
}
330
272
100
AcDbXrecord
102
MATERIAL
148
0.0
149
0.0
149
0.0
 93
        0
 94
      127
282
     0
 72
     1
 77
     1
171
     1
175
     1
179
     1
273
     0
  0
XRECORD
  5
277
102
{ACAD_REACTORS
330
276
102
}
330
276
100
AcDbXrecord
102
MATERIAL
148
0.0
149
0.0
149
0.0
 93
        0
 94
      127
282
     0
 72
     1
 77
     1
171
     1
175
     1
179
     1
273
     0
  0
ENDSEC
  0
EOF
